<svg xmlns="http://www.w3.org/2000/svg" xmlns:xlink="http://www.w3.org/1999/xlink" viewBox="0 0 60 60" width="50" height="50"><defs><style>.cls-1,.cls-3,.cls-5{fill:none;}.cls-2{clip-path:url(#clip-path);}.cls-3{stroke:#936;stroke-linecap:round;stroke-linejoin:round;stroke-width:0.5px;}.cls-4{clip-path:url(#clip-path-2);}.cls-5{stroke:#9e005d;stroke-miterlimit:10;}</style><clipPath id="clip-path" transform="translate(-0.4 -0.6)"><path class="cls-1" d="M57.2,55.9H57c-.1,0-.2,0-.2-.1s-.1-.6.4-1.3l-.6.4h-.3s-.1-.2,0-.3l.7-1.2a9.3,9.3,0,0,1-2.4,2.2h-.2c-.2-.2-.2-.2.6-1.2a44.3,44.3,0,0,0,3.1-4.1c-.6.2-2.8,2.5-4.9,5.3,0,.1-.1.1-.1.2h-.2c-.1-.1-.2-.2,0-.6s-1,1-1.4,1h-.3a.5.5,0,0,1-.2-.4,1.4,1.4,0,0,1,.2-.6l-.7.6h-.2c-.1,0-.2,0-.2-.1a.2.2,0,0,1,0-.3c2.6-2.8,5.4-5.8,7-7.7L49.6,55a.3.3,0,0,1-.4,0c-.2-.3.2-1,1-2l-1.9,1.8a.2.2,0,0,1-.3,0,.4.4,0,0,1-.1-.3l4.6-5.2-5.7,5.6h-.5a.4.4,0,0,1,.1-.3L58.6,41l-.7.4-.5.6c-1.1,1.4-2.8,3.1-4.5,4.9s-1.1,1.3-1.6,1.9c-3.1,3.9-4.9,6.1-5.8,6.1h-.3a.8.8,0,0,1-.2-.5v-.2l-1.8,1.6h-.4a.2.2,0,0,1,0-.3L46,51.9l-3.2,2.9-.8.6h-.2v-.2c0-.1,0-.1.1-.2l.5-.5L47,49.6c6-6.3,9.3-9.7,10.7-10.8a1.3,1.3,0,0,0,.1-.6c.1-.2,0-.2,0-.3h-.1l-.6.2Q55,40.4,50.2,45L46,49.2c-2,2.2-3.9,4.4-5.5,6.4h-.4c0-.1-.1-.1-.1-.3a6.2,6.2,0,0,1,1.4-2.1l-1.6,1.6a.2.2,0,0,1-.3-.3l.7-.8A13,13,0,0,1,38.3,55h-.2c0,.1-.2.1-.3,0h-.4a1.1,1.1,0,0,1-.8-.3.6.6,0,0,1-.3-.6,1.6,1.6,0,0,1,.3-.8l-1.3,1.6h-.4c-.1-.2-.2-.3,1.3-2l2.9-3.5-3.3,3.1-.3.4c-2,2.5-2,2.5-2.2,2.5h-.2a.8.8,0,0,1-.2-.5l-.8.4-.2.3h-.8a1,1,0,0,1-.8-.3c-.1,0-.1-.1-.1-.2h.1A8.7,8.7,0,0,1,27,56.6a1.7,1.7,0,0,1-1.5-.5c-.1-.1-.1-.1-.1-.2s0-.1.1-.2l.3-.3a.9.9,0,0,1-.7-.3.5.5,0,0,1-.2-.4,2.5,2.5,0,0,1,.2-.7l-.3.2-1.6,1.7h-.3l-.4-.5a5.3,5.3,0,0,1-1.2.3l-1.2-.2a4.5,4.5,0,0,1-1.9.7,1.7,1.7,0,0,1-1-.3.8.8,0,0,1-.2-.4h-.2a1.9,1.9,0,0,1-1,.3,3.7,3.7,0,0,1-1.5.5,1.4,1.4,0,0,1-1.3-.5h-.4l-.7-.2c-.1-.2-.2-.3,2.7-3.3l.3-.7L10.4,56a.3.3,0,0,1-.4,0c0-.1-.1-.3,0-.4l1.5-1.5-1.3.9a7.8,7.8,0,0,1-1,.8H9a7.9,7.9,0,0,1-2.5.8,2.5,2.5,0,0,1-1.9-.7.3.3,0,0,1,0-.4l.5-.5H4.6c-.2,0-.4,0-.5-.2H4l-1.4.5-.3.3c-.1.1-.3.1-.3,0s-.1-.1-.1-.2a1.2,1.2,0,0,1-.8-.4,1,1,0,0,1-.4-.9,6.4,6.4,0,0,0,.2-.7A.9.9,0,0,1,.3,53c-.1,0-.1-.1-.1-.2H.3c0-.1.1-.1.2-.2a6.8,6.8,0,0,1-.2-1.4,6.6,6.6,0,0,1,.6-2.2,2.3,2.3,0,0,1-.4-1.4,1.3,1.3,0,0,1,.1-.6c-.1-.1-.1-.2-.1-.4a1.1,1.1,0,0,1,.2-.7H.5a.3.3,0,0,1-.1-.2c0-.2.1-.4,1.6-1.8a13.6,13.6,0,0,1,1.2-1.7L1.9,43.2H1.6a.2.2,0,0,1,0-.3L4.7,39,1.4,42.4a.3.3,0,0,1-.4,0c0-.1-.1-.2-.1-.4s2.2-2.7,6.3-6.2l1-1,2.5-3L7.1,34.9c-3.4,3.5-5.7,6-6,6.4H1c0,.1-.1.1-.2.1H.6s-.1-.1,0-.3h0l1.2-1.5a2.9,2.9,0,0,1-1,.6H.6c-.1-.1-.1-.1-.1-.2v-.2l2.8-2.3c.9-1.1,1.9-2.5,3.1-3.9-2.4,2.3-4.1,3.9-4.7,4.3H1.5a.6.6,0,0,1-.1-.4L12.5,25.9c2.4-3,5.1-6.2,7.7-9.2l-5.4,5.5-2.9,2.9C5.6,32.9,2.3,37,1.1,37.1l-.3-.2c-.1,0-.1-.1-.1-.2a4.6,4.6,0,0,1,1.3-2c-.6.7-.7.7-.8.7s-.2,0-.2-.1A1.5,1.5,0,0,1,.5,34a9.3,9.3,0,0,1,1.7-3.8l-.5.5c-.1.1-.3.1-.3,0s-.2-.2-.1-.3L4,27,1.3,29.7a.2.2,0,0,1-.3,0,1.5,1.5,0,0,1-.4-1.1,3.7,3.7,0,0,1,.5-1.5C1,27,.9,27,.9,26.9H.8a.3.3,0,0,1,.1-.2c0-.1.3-.3.9-.7A34.4,34.4,0,0,1,5.7,21l-.7.6C2.5,24.2.8,25.9.8,26a.3.3,0,0,1-.4,0,.2.2,0,0,1,0-.3l1.8-2.4H1.7l-1,1.2H.4a1.2,1.2,0,0,1-.4-1,5.3,5.3,0,0,1,.9-2.2H.8v-.2h0l1.9-1.8a71.8,71.8,0,0,1,5.5-5.3c5.2-5.2,9.5-9.8,10.7-11.7L17.5,3.6C13.3,8.8,2.4,18.8.9,20.2a.2.2,0,0,1-.3,0,.3.3,0,0,1,0-.4L17.2,3.2A5.1,5.1,0,0,0,18.6.8h0c-.3-.1-1.3.7-2.8,2.1C13.2,6.2,5.6,15.9,2.3,17.2L.8,18.9H.4a1.1,1.1,0,0,1-.3-.8,2.4,2.4,0,0,1,.6-1.4v-.2a3.1,3.1,0,0,1,.5-1.3.4.4,0,0,1,.1-.3l.3-.4H1.5a.6.6,0,0,1-.7-.2c0-.1-.1-.2-.1-.3l.2-.5-.5-.2a.2.2,0,0,1,0-.3l1.4-1.7H1.6a.6.6,0,0,1-.5-.2v-.4c2.4-2,8.6-7.7,8.7-9.4,0-.2,0-.2-.1-.3H9.5a1.8,1.8,0,0,0-1,.6L4.3,6.5,2.1,9l-.3.4H1.5c-.1-.1-.2-.1-.1-.3h.1V8.8L5.1,4.4C3.7,5.9,2,7.6.8,9H.4c-.1-.1-.2-.3.9-1.8h0c-.1.1-.3,0-.4-.1s0-.5,1.4-2l.6-.6a2.6,2.6,0,0,1-1.2.8H1.4c-.1-.1-.2-.2.1-.9S.8,5,.6,5H.3c-.3-.2,0-.6,1-1.7L2.6,1.5,2.1,2c-.6.7-.6.7-.8.7H1.1L.9,1.6.7,1.4C1,1,1,1,1.1,1s.2,0,.2.1h.1v.7l.3-.2C2.8.5,2.9.4,3.1.4h.2c.4.4-.2,1.3-1.7,3a.1.1,0,0,1-.1.1L3.9,1h.3c.1,0,.1.2.1.3A28.1,28.1,0,0,0,1.9,4.7,25.2,25.2,0,0,0,5.2,1.1h.1c.1,0,.2,0,.2.1s.1.9-.6,1.8C6,1.6,6.1,1.4,6.3,1.4h.3a.2.2,0,0,1,0,.3c-.7.8-1.4,1.5-2,2.3l-.5.6C6.2,2.5,8.4.3,8.8.3h.3c0,.1.1.1,0,.3h.4a.8.8,0,0,1,.6.2.8.8,0,0,1,.2.6.6.6,0,0,1-.1.4L11,.9h.3c.2.1.2.2.1.3s-1.5,2-3,3.8l3.4-3.5.4-.3h.2a.3.3,0,0,1,.1.2h-.1c-.1.1-.1.2-.2.2L11,3.3C7.2,8.1,3.4,12.6,1.5,13.4a.9.9,0,0,0-.3.6h.3l.7-.2A129.2,129.2,0,0,1,11.5,3.6l1.9-2.2c.1-.1.1-.1.1-.2h.4q.2,0,0,.3h0A4.1,4.1,0,0,1,15,.9c.2,0,.4.1.4.2s.1.1.1.2h-.1L10.5,5.9,9.6,7l6.7-5.8h.4A8.4,8.4,0,0,1,18.6.2a.5.5,0,0,1,.4.2c0,.1.1.2.1.4a2,2,0,0,1-.1.7l.2-.3h.3c.1.1.2.2.1.4s-1,1.9-2.6,3.8L21.1.7h.4a1.5,1.5,0,0,1,.2.8h0l.6-.3.6-.8c0-.1.1-.1.2-.1h.2c0,.1.1.2.1.3h0A2.7,2.7,0,0,1,24.6.4a1.4,1.4,0,0,1,1.1.3,2,2,0,0,1,.4.8h.2c.1.1.1.2-.1.4h0a.1.1,0,0,1-.1.1h0v.5L28,.9h.4a.2.2,0,0,1,0,.3l-.4.4,1.2-.5h.5a1.2,1.2,0,0,1,1,.4c.1,0,.1.1.1.2S30,2.9,28.6,4.5L32.8.4a.2.2,0,0,1,.3,0,.4.4,0,0,1,.2.6,5.4,5.4,0,0,1,2.5-1,1.6,1.6,0,0,1,1.4.5.3.3,0,0,1,0,.4l-.3.3A7,7,0,0,1,39.2.4,2.2,2.2,0,0,1,41,1l.3.4.5-.2.5-.5h.4a1.4,1.4,0,0,1,.2.6l.3.3.2.3L45,.8h.4A4,4,0,0,1,47.3,0l1,.2.8-.2a1.2,1.2,0,0,1,1,.4h0l.8.5a1.1,1.1,0,0,1,.3.8l.5-.5h.2A.1.1,0,0,1,52,1c.1,0,.2,0,.2.1s.1.1.1.2l-.2.2c0,.1-.1.2-.2.4l1.4-.8.3-.4H54L55.3.4a1.7,1.7,0,0,1,1.3.5c.1,0,.1.1.1.2h-.1l-.9.9A3.4,3.4,0,0,1,55,3.6L57.9.7h.3a.3.3,0,0,1,0,.4L56,3.6l.3-.3c1.2-1.3,1.9-1.9,2.3-1.9h.3v.2c0,.1,0,.1-.1.2L56.6,3.7c-.8.8-1.7,1.9-2.8,3.2a7.7,7.7,0,0,1,1.9-1.1l2.9-3H59a1.4,1.4,0,0,1,.4,1.1,6.5,6.5,0,0,1-.5,1.5h.2a.3.3,0,0,1,0,.4l-.9.9L56.8,8.9l1.3-1.3h.3a.2.2,0,0,1,0,.3l-5.2,5.4L49.7,17l4.9-4h.1l3.7-4.2h.4a2,2,0,0,1,.4.8h.2v.2a.3.3,0,0,1-.1.2h-.1a4.1,4.1,0,0,1-.6,2v.7l.3-.3h.4v.4l-1.6,1.6a2.1,2.1,0,0,1-.4.6h.8c.1,0,.1.1.1.2h-.1l-2.8,2.4-2.7,3.1c2.8-2.6,5-4.5,6-5.3s.4-.4.6-.4h.2v.4l-.5.4-3.2,4,3.4-3.4a.2.2,0,0,1,.3,0,.4.4,0,0,1,.1.3l-3.7,3.8,1.6-1.2a5.6,5.6,0,0,1,1.3-1.1h.2c.1,0,.1.1.1.2v.2l-1.7,1.3c-1.6,1.5-4.2,4-7.3,7.2a24.3,24.3,0,0,0-2,2.5c5.3-5.3,9.5-9.3,10-9.3h.3v.2h0c-5.1,4.7-9.6,9-13.5,12.8l-2.3,2.8c4.7-4.3,9.4-8.3,12.6-10.9L57.8,22h.4c.2.1.2.3.2.6v.2h.5a.2.2,0,0,1,0,.3c-.2.2-.9,1.3-2.2,2.9l1.7-1.6a.2.2,0,0,1,.3,0c.1,0,.1.1.1.2s-.4.8-1.2,1.6h.6a1.1,1.1,0,0,1,.3.8H59c.2.2.1.4-1,1.7l-.3.5h.5a.4.4,0,0,1,.1.3,1.6,1.6,0,0,1-.4.9l.3.2c.1.1.2.2-.1.5a.8.8,0,0,1,.7.3c.1.1.2.2.1.3a3.2,3.2,0,0,1-1.1,1.7c.2-.2.3-.2.4-.2h.2a.4.4,0,0,1,.1.3c0,.4-.9,1.4-3.1,3.3l-1.9,2.3-.4.5,5.7-5.7a.3.3,0,0,1,.4,0,.2.2,0,0,1,0,.3L49.5,44.4l9.1-9a.2.2,0,0,1,.3,0c.1,0,.1.1.1.2s-.4.9-1.2,1.8l.3.2c.2.2.3.4.2.6v.3h.3a1.1,1.1,0,0,1,.2.6h.5a.3.3,0,0,1,.1.2c0,.2-.2.5-.6,1a.6.6,0,0,1,.5.2.2.2,0,0,1,0,.3l-6.7,7.5,5.2-5.3h0a.3.3,0,0,1,.4,0,.2.2,0,0,1,0,.3l-5,5.7,4.6-4.5a.2.2,0,1,1,.3.3c-3.1,3.1-6.2,6.6-7.7,8.4l7.9-7.9a.3.3,0,0,1,.4,0c.1.1.3.3-1.2,2.2l.4-.3c.1-.1.3-.1.3,0a.4.4,0,0,1,.1.3l-4.9,5c-1.3,1.5-2,2.5-1.9,2.8s2.2-2.2,3.4-3.7,3.2-4.1,3.9-4.2l.5.2v.3l-1.7,1.8.6-.2h.4c.2.2.3.3-1.8,3.1l1.3-1.5h.4a.3.3,0,0,1,0,.4l-1.1,2,1.7-1.9h.3c.3.3,0,.7-1,2l-.4.5h.3a.3.3,0,0,1-.2.4l-.7.8C57.3,55.7,57.2,55.8,57.2,55.9ZM46.1,53.2a2.4,2.4,0,0,0-.6,1.1h0c.5,0,2.5-2.3,4.4-4.7Zm4.2-4.6,1.5-1.4Zm6.1-6.5a6,6,0,0,0,.8-.8l.5-.6c-1.4,1.3-3.6,3.4-6,5.9l1.9-1.8,1.8-1.6Zm.9-1.7.9-.8a.6.6,0,0,0,.1-.4V39h-.2ZM47.2,50.1c3.7-3.3,7.8-7.3,9.6-9.9-2.3,2.2-6.6,6.7-9.4,9.7C47.3,50,47.3,50.1,47.2,50.1Zm-7,2.9a62.1,62.1,0,0,0,4.6-4.5ZM38,54.5,49.4,43.1l3.7-4.4-1.1.9c-5.9,5.1-13.9,12.1-14,14.7Zm3.2-5.8c-2.5,2.5-4.3,4.7-4.4,5.6s.1.2.1.3h.6v-.5c.1-2.7,7.9-9.5,14.2-15L55,36.3l1.8-2.1c-1.4,1.4-3.6,3.4-6.4,5.9S43.9,46,41.2,48.7Zm7-7.2a15.4,15.4,0,0,1,1.9-1.7c3.8-3.5,8.2-7.5,8.3-8.3h-.7C56.7,32.7,54.2,35.3,48.2,41.5ZM45.4,43l-4.5,5.2,5.7-5.8c3.8-3.9,7.9-8.1,9.9-10.3l-1.9,1.4-2.1,1.9-4.7,4.9ZM56.9,31.3l.5-.2.4-.5h-.2ZM33.4,54.7h0l.5-.6ZM38,50l7-7.3-4,3.7Zm-4.4,3.9,1.7-1.4c1-1.1,1.9-2.3,2.9-3.5l-4.5,4.7ZM55.3,32.2l1.5-1.5-.4.2Zm1.6-2.1h.5c.1-.2.3-.4.3-.6Zm-8.2,8,1.5-1.3,1.4-1.6ZM30.9,55.3H31l.6-.2,1.5-1.7ZM41,45.1l1.6-1.5.7-.7c4.3-5,8.4-9.4,11.3-11.5l1.9-2,1.3-1.5a4.4,4.4,0,0,0,.2-1c0-.2,0-.3-.1-.4s-2,1.3-4.4,3.5C50.1,34.4,45.5,40.1,41,45.1ZM29.8,54.9c5.5-3.5,14.4-14,20.8-22h0l-7.4,7.6c-2.8,3.2-5.6,6.2-8.2,8.8Zm-3.8,1a1.6,1.6,0,0,0,1,.2,5.4,5.4,0,0,0,2.5-1h-.2a1.1,1.1,0,0,1-.3-.8h0l-1,1.1a.3.3,0,0,1-.4,0l-.2-.2-.8.2ZM29.6,54c-.1.1-.1.1-.1.2a.4.4,0,0,0,.1.3L31,52.8Zm1.9-2.2a25.6,25.6,0,0,0,3-2.8l3.1-3.3ZM43.6,39l1.7-1.7.5-.5A151.4,151.4,0,0,0,33.1,48.9ZM30.4,52.3l2.5-2.6-2.1,1.9ZM28.6,54l.6-.6c.1-.1.1-.3.3-.5l-1.8,1.5h0Zm22-22.1,1.2-1.1A60.5,60.5,0,0,0,57,24.6l-1.7,1.3C54.1,27.6,52.4,29.6,50.6,31.9ZM35.4,45.8C39,42.1,43.7,37.9,48,34.1l5.4-6.5c-3.8,3.2-9,7.7-13.7,12.1s-7,7.8-10.1,10.7a9.1,9.1,0,0,0-1.8,3.3l2.6-2.4A54.1,54.1,0,0,1,35.4,45.8ZM26.3,55l.9-.8h0a5.4,5.4,0,0,1,1-2.5l-2.1,1.7c-.6.7-.8,1.1-.7,1.3a1.2,1.2,0,0,0,.9.3ZM56.8,24.1l.9-.8a1.4,1.4,0,0,0,.2-.6ZM27.3,51.8l2-1.9L32,46.7l-3.8,4Zm9.8-10.3,2.2-2.1,1-1.2ZM23,55.2h0l.3-.2Zm0-.5,1.4-.8L28,50.2c3.5-4.1,9.5-10.2,15.2-15.7l1.1-1.2,2.3-2.8Zm-1.9.5h.1l1-.2c-.1-.1,0-.2,0-.3h.1v-.2c0-.2.1-.3.1-.5h-.1Zm2-1.9a2.4,2.4,0,0,0-.2.8L40.7,35.6,33,43.2A107.1,107.1,0,0,1,23.1,53.3Zm28.2-29,1.4-1.5,1.2-1.4c1.1-1.5,2-2.7,2.7-3.5-1.8,1.5-4.3,3.8-7.2,6.4l-3.9,4.5-.9,1.1Zm-13,13,8.9-8.9-4.9,4.2ZM23.9,51.7,32.6,43l7-8-7,6.5c-1.3,1.5-2.7,2.9-4,4.2A30.2,30.2,0,0,0,23.9,51.7Zm-2.1,2,.9-.9A23.3,23.3,0,0,1,25,49.2L21.8,52a5.5,5.5,0,0,0-1.1,2.5h0Zm-1.7,1.2h.2a.6.6,0,0,1-.1-.4,4.7,4.7,0,0,1,.5-1.6l-1.1.9h-.1a1.1,1.1,0,0,0,.3.8Zm-2.7.4c.1.1.1.2.2.2s.3.2.6.2a3.7,3.7,0,0,0,1.5-.5.2.2,0,0,1-.2-.2.8.8,0,0,1-.4-.8ZM38,35.8l4-3.7,3.1-3.6h.1l-4.3,4.3-1.3,1.4-1.5,1.6ZM23.7,49.5c2.5-2.4,5.5-5.4,8.9-8.9l-5.2,4.9-3.1,3.3ZM20,52.8a11.4,11.4,0,0,0,1.7-1.5h.1ZM32.8,39.7l6.5-6.1v-.2Zm3.7-4.6c2.9-2.6,5.7-5.3,8.4-7.9l2.4-2.7c-2.3,1.9-4.7,4.1-7.2,6.3ZM20.7,51l5.1-4.7,4.4-4.7a6,6,0,0,0,.8-.8l-7.5,6.5A32.8,32.8,0,0,0,20.7,51ZM52.1,19.7l.6-.5L55,16.4l-.6.6Zm-34.3,34L19.6,52a21,21,0,0,1,1.8-2.8l-1.8,1.6A21.2,21.2,0,0,0,17.8,53.7ZM42.4,28.1l7.2-6.3,2.1-2.4-8.1,7.3ZM16.3,55h0l.7-.6a15.2,15.2,0,0,1,1.1-2.3,40,40,0,0,1-3.3,2.6c0,.2.1.3.3.5l.5.2c.1,0,.1,0,.1-.1l.5-.2A.1.1,0,0,0,16.3,55ZM27.8,42.9l5.9-5.2c1.2-1.4,2.4-2.9,3.7-4.3l-3.7,3.4ZM56.5,14.5h.1ZM46,23.8l8-7.1,4.1-4.9a.1.1,0,0,0,.1-.1,11.2,11.2,0,0,0,.5-1.3l-3.8,3h-.1L51.7,17ZM13.6,55.7h1.3l-.2-.2a.9.9,0,0,1-.3-.5ZM38.7,31.5l1.2-1.1.9-1.2-.6.6ZM22.4,47.6l1.4-1.4c2.6-3,6.1-6.5,9.8-10L35,34.7A171.6,171.6,0,0,0,22.1,47.9Zm-7.7,6.5,5.2-4.4C24.2,44.3,32.3,36.4,40,29.2L50.8,17.3l1.6-1.8-6.1,5.1-6.9,6.7C29.5,37.5,19.6,47.6,15,52.5a3.9,3.9,0,0,0-.3,1.4Zm-.7.6c0-.1.1-.1.2-.2s-.1-.4,0-.6v-.6a16.6,16.6,0,0,0-1.7,1.9h.1A3.9,3.9,0,0,0,14,54.7ZM58.3,9.6l.4-.2c-.1-.1-.1-.1-.1-.2ZM16.1,50.3l-.4.7L19,47.6a.1.1,0,0,1,.1-.1l-.4.3ZM42.6,23l11-10.9,2.7-3.4L43.9,21.5a18,18,0,0,1-1.9,2ZM12.1,53l2.5-2.1,1.6-1.6c.5-.8,1.2-1.6,1.9-2.6l-.9.8-3.5,3.6Zm8.6-8.6-1.6,1.9,3.1-3.2Zm4.1-4.3,2.7-2.4.8-.9,1-1.1ZM35.1,29.6l1.4-1.2,6.9-7.1,8.3-9.2L38.2,25.9C37.2,27.1,36.2,28.4,35.1,29.6ZM30.4,34l1.9-1.8,1.3-1.5ZM58.1,5.6l-5.9,6.6,5.7-5.8c.1-.3.3-.5.4-.8ZM8.8,54.8h0l.9-.2,3-3.1ZM29.1,33.1,19.9,43.8l-1.2,1.5L37.9,25.6l5.9-7.2ZM5.1,55.6a2.1,2.1,0,0,0,1.4.4,7.4,7.4,0,0,0,2.1-.7l-.5-.2C8,55,8,55,8,54.9s.1-.1.1-.2l7.2-6.2,4.3-5,4.9-5.9L7.2,54.9c0,.1-.2.1-.3,0a1.6,1.6,0,0,1-.4-.7ZM58.4,5.2h.1a.3.3,0,0,1,.1-.2ZM47.2,14.9l-1,1.2L42,21.3,57.2,5.7,56,6.1ZM58.4,4.4a.3.3,0,0,1,.4,0,4.3,4.3,0,0,1,.1-.5c0-.2-.1-.4-.1-.6L56.9,5.2h.9l.6-.7Zm-8,6.7,3.8-3.9L52.4,8.6ZM33.8,27.6l13-13,3.4-4.2-2.7,2.5c-1.2,1.4-2.6,2.9-4.1,4.4l-8.7,9.3ZM7.1,54.3l3.7-3.7a29.2,29.2,0,0,1-3.9,3.2A.8.8,0,0,0,7.1,54.3Zm2.1-2.9C14.8,46.6,24.3,36.9,34,26.6l.2-.2-5.6,5.4c-6.2,6.6-12.3,12.9-17.2,17.4ZM50.9,9.2l1.1-1,2.1-2.5-.5.5L51.2,8.8ZM35,24.9l4.6-4.5c2.3-2.5,4.5-4.8,6.6-6.8l1.9-2.2ZM4.6,54.5h0a3.8,3.8,0,0,0,1.6-.8h.2a.2.2,0,0,1,0-.3L4.6,54.5Zm2.3-1.6v.2l.5-.6Zm.2-.7L10.9,49,19,40.6,7.6,50.9A6.9,6.9,0,0,0,7.1,52.2Zm9.8-10.4,8.9-8.2L31.3,28c3.7-4,7.3-8.1,10.5-11.8l-1.9,1.7-9.8,9.7C25.7,32.6,21.1,37.6,16.9,41.8ZM5.3,53.4l1.1-.8.3-.7ZM44.5,13.8l-4.8,5.6L47.8,11C46.8,11.9,45.7,12.9,44.5,13.8Zm3.2-3.3c1.3-1.1,2.5-2.2,3.7-3.1l1.9-2A17.9,17.9,0,0,0,54.8,3c-.8.9-1.7,1.7-2.6,2.6A58.2,58.2,0,0,1,47.7,10.5ZM3.6,54.5l.7-.4.5-.7Zm11.9-12,5.2-5.3ZM4.3,53.2l2.6-2.4L5.3,52Zm4.8-4.8.3-.2C14.3,43,21.8,35.3,29.5,27.5l1.9-2.1C22.2,33.8,13.2,42.6,9.1,48.4ZM6.4,50.6l1.5-1.1c1.9-3.2,5.8-7.7,11.5-13.4l-3.3,3C12.2,43.6,8.8,47.7,6.4,50.6ZM55.9,1.3c0-.1.1-.1.2-.2h-.3C55.8,1.1,55.9,1.2,55.9,1.3ZM53.8,3.4l1.5-1.5c0-.2.1-.3.1-.5s0-.2-.1-.2a10.1,10.1,0,0,1-1.2,1.4ZM1.3,53.6a4.3,4.3,0,0,1-.1.5,1.1,1.1,0,0,0,.2.6l.7.2h.1L4,52.7a5.3,5.3,0,0,1-2.3.8H1.5C1.5,53.6,1.4,53.6,1.3,53.6ZM41.2,15.9l6.5-6.6,6-7a1.3,1.3,0,0,0,.1-.6c.1-.1,0-.2,0-.3h-.2L48.8,6.3a113.8,113.8,0,0,1-8.4,9.4L37.6,19ZM2.1,52.9a7.6,7.6,0,0,0,2.8-1.3l7.5-8.9Zm32.2-31,.6-.5.5-.5Zm20-20.7v.4l.5-.6ZM27.9,27.4c4.2-4,8.3-8.1,11.9-11.7L42,13.1,26.3,28.8l.6-.6ZM50.3,4,52,2.4l-1.2.7c0,.1,0,.1-.1.2A2.5,2.5,0,0,1,50.3,4ZM21.7,32.6,45.5,8.8l3.6-4.4C42,10.1,31.2,21.8,21.7,32.6Zm-7.5,7.6L16.3,38c-3.9,3.4-7.4,6.7-10.1,9.4ZM1.9,52.4l5-5L3,50.9Zm4.5-5.9c3.2-3.2,7.5-7.1,12.3-11.3C27.5,25.1,38.1,13.5,45.9,6.5l-6.4,5.2L11.4,40.6l-5,5.9ZM1.1,52.6h.1c.1-.1.1-.2.2-.4Zm-.2-.5,1.8-1.6.8-.9c-.9.8-1.6,1.3-2,1.3a.5.5,0,0,1-.4-.2.2.2,0,0,1,0-.3L11,40.2c1.6-2,3.4-4.1,5-6.2s3.7-4.6,5.7-6.9l-7.4,7.6C9.6,40.3,6.2,44.2,4,46.3l-2.5,3H1.2C1,50,.9,50.6.8,51.1A3.1,3.1,0,0,0,.9,52.1ZM42.2,8.8l4.7-3.7,3.8-3V1.7c0-.2,0-.3-.1-.4L49.9.9ZM2,50.2a35.1,35.1,0,0,0,4.7-4.8Zm23.6-27L16.4,34.4,15,36.2,36.2,14.3C32.8,17,29.2,20,25.6,23.2Zm3.1-3.3c3.6-3.1,7.2-6,10.4-8.6l5.5-5.6-11.9,10Zm20-19h0a1.6,1.6,0,0,1-.4.9l1-1h-.6ZM1.8,48c0,.1-.1.2-.2.4l.4-.5Zm34-35.5C42.4,7.1,47.8,2.4,48.2,1a10,10,0,0,0-2.5,1.3ZM2.3,47.2,3.7,46l2-2.5L2.4,47C2.3,47.1,2.3,47.1,2.3,47.2Zm-1.2-.3a1.3,1.3,0,0,0-.1.6,1.9,1.9,0,0,0,.1.8l.2-.3H1.2a.3.3,0,0,1,0-.4l.8-.9a34,34,0,0,1,2.7-3.7ZM11.8,35.7a81.8,81.8,0,0,0-7.9,9l7.3-7.6,4.7-5.3Zm6.8-6.2h0l1.8-1.8-.7.6ZM46.2,1.3,47.6.5h-.3a3.5,3.5,0,0,0-1.7.6h.2C46,1.2,46.2,1.2,46.2,1.3ZM23.3,24.5l1.4-1.2.9-1,.3-.3ZM45.2,2.1l.2-.3h-.1C45.3,1.9,45.2,2,45.2,2.1Zm-16,15.8.3-.2h.1ZM2.2,44.3a9.1,9.1,0,0,0-.7,1.4l4.4-4.9L3.6,43ZM14.9,31.7l5.8-5.4,1.5-1.8-.4.3-.8.7-5.3,5.4ZM42.7,4l.9-.8.7-.8-.5.4-1,1C42.7,3.8,42.7,3.9,42.7,4ZM32,13.8l2.4-2.3,1.3-1.4L33,12.8ZM11.3,32.4l1.5-1.2,8.5-7c3.7-4,7.5-7.9,11-11.4a102.3,102.3,0,0,1,8.5-8.7,3.9,3.9,0,0,0,.3-1.4h0L34.2,9.5A151.2,151.2,0,0,1,20.3,23.4Zm31-29.6.6-.5V1.9h-.1A9.3,9.3,0,0,1,42.3,2.8ZM8.5,36.2c2-2.1,4.4-4.2,6.8-6.4l-2.1,1.8-5,4.1c-1.7,1.9-3.1,3.6-4.1,4.9l1.5-1.4Zm33.1-34V3a8.8,8.8,0,0,0,.7-1.3H42Zm-5,4.3L41,2h0a14.1,14.1,0,0,0-3,1.9A23.6,23.6,0,0,1,36.6,6.5ZM20.2,22.8,34,9.1a35.8,35.8,0,0,0,3.2-4.5,89.4,89.4,0,0,0-7,6.4L27,14.4c-3.8,3.9-7.7,8.3-11.4,12.5Zm-7.6,7.6L14.1,29l-.9.7ZM38.2,3.1a15.1,15.1,0,0,1,2.6-1.5c0-.1-.1-.2-.2-.3a1.5,1.5,0,0,0-.8-.4v.2L38.3,2.6A.7.7,0,0,1,38.2,3.1ZM10.6,31.3l2.3-2,3.3-3.8Zm26-26.9,1-.8c0-.1.1-.2.1-.3A11.4,11.4,0,0,0,36.6,4.4ZM9.5,30.4,6.1,34.7c4.2-4.2,10.3-10.6,15.6-16.1,8.6-9,13.6-14.2,16.1-16.5a.4.4,0,0,1-.1-.3C30.7,9,17.8,22.2,9.5,30.4ZM38.2,1.7l.9-.8-1.2.4h0ZM13,26l-.6.8C20.7,18.5,31.5,7.4,37.2,1.6a6,6,0,0,0-1.5.9ZM28.1,9c-3.4,3.4-7,7.4-10.4,11.5L33.2,4.4A66.1,66.1,0,0,0,28.1,9ZM1.2,36.6c.8-.2,3.9-3.9,7.5-8.3H8.6C4.6,32.5,1.5,35.7,1.2,36.6ZM33.5,3.4l1.8-1.2L36.7.7c-.2-.2-.5-.2-.9-.2a3.8,3.8,0,0,0-1.3.4h.2c.2,0,.4,0,.5.2s.1.1.1.2S34.8,2.1,33.5,3.4ZM29,7.3c2.9-2.9,5.2-5.2,5.7-5.9h0a2.8,2.8,0,0,0-1.3.6l-1,1A31.2,31.2,0,0,1,29,7.3ZM6.7,29.5l1.4-1.4c1.1-1.1,2.4-2.3,3.7-3.7h0L8.6,27.3l-1.7,2C6.8,29.4,6.7,29.4,6.7,29.5ZM1.2,34.8a3.8,3.8,0,0,0,.8-.9l-.7.3H1A1.4,1.4,0,0,0,1.2,34.8ZM16.8,19l3-2.9c3.7-3.9,7.6-8.2,11.4-12.5-2.2,2-5.2,5-8.4,8.3ZM1.7,33.6a6.4,6.4,0,0,0,1.7-1.1L5,30.6ZM12.2,23.4,14,21.7a31.1,31.1,0,0,1,2.3-2.8ZM1.1,33.5,8.2,27c4.9-5.4,9.9-10.9,14.2-15.4l.8-1-10,10L1.7,32.2H1.6A11.2,11.2,0,0,0,1.1,33.5ZM31.7,2.1l1.1-.8V1ZM2.6,30.5l9.7-9.6,7.8-8h-.2C14.5,18.6,8.1,24.7,4.5,28.1ZM23.8,9h.1c3.6-3.8,6.1-6.6,6.4-7.3h-.5C29.6,2.6,27.1,5.4,23.8,9ZM9.2,22.2c3.2-3.2,6.9-6.5,10.5-9.6,5.1-5.2,8.8-9.3,9.5-10.8L7.5,23.5,3.8,28l.4-.3C5.6,26,7.3,24.2,9.2,22.2ZM23.6,6.7,28.3,2a15.2,15.2,0,0,0-2.1,1.4l-.9.9ZM11.1,19.2l2.5-2.5L12.1,18ZM1.2,29.1l5.9-5.9,2.6-3.1H9.5c-1.9,2-3.6,3.6-4.9,4.8L1.3,28.3H1.1v.2A.7.7,0,0,0,1.2,29.1Zm13.5-14a98.8,98.8,0,0,0,8.6-8.8l-7.6,7.6ZM1.6,27.1v.3l.4-.4Zm.4-.7a9.1,9.1,0,0,0,1.3-1,1.2,1.2,0,0,0,.5-.5L2.1,26.3Zm1.1-1.6L6.6,22,17.7,10.3C12.3,15.1,6.2,20.8,3.1,24.8ZM24.7,3.6l.7-.5a.4.4,0,0,1,.1-.3ZM11.3,15.4c3.4-3.2,7-6.4,10-8.9l2.5-2.7,1.8-2a.9.9,0,0,0-.3-.7.6.6,0,0,0-.7-.2l-.8.2h0c.3.2.4.3-9.2,10.5ZM4.1,21.7l.5-.4c3.2-3.2,6.5-6.7,9.5-9.9l2.1-2.5c-2.5,2.6-5.4,5.3-8,7.7ZM2.2,22.8l.6-.3,2.9-3.7-.8.8Zm19.4-20L18.8,6.4a63.4,63.4,0,0,0,4.5-5H23a.1.1,0,0,1-.1.1A7.9,7.9,0,0,1,21.6,2.8ZM.6,23.1a1.1,1.1,0,0,0-.1.5c0,.2,0,.3.1.4l.5-.6A.5.5,0,0,1,.6,23.1Zm10-9.4a101.9,101.9,0,0,0,8.1-8.3L15.5,8.1h0C13.9,9.9,12.2,11.8,10.6,13.7ZM1.1,22.9h.3l1.1-1.2Zm6.1-6.1.5-.4,2-2.4-.2.2C8.7,15.1,8,16,7.2,16.8ZM.9,22.4l3.6-3.2c.2-.1.3-.3.5-.5a16.5,16.5,0,0,1-3.4,2.7A6.1,6.1,0,0,0,.9,22.4Zm1.4-2a87.7,87.7,0,0,0,7-6.7l.7-.8L8.4,14.3,3,19.6ZM20,2.7l1.1-.8a.9.9,0,0,0,.1-.5h0ZM3.2,16.1c2.6-1.8,6.7-6.6,10-10.8C10.4,8.1,6.8,12,3.2,16.1ZM.9,17.2a1.9,1.9,0,0,0-.3.9v.2l.9-.9Zm.3-.5h0a.5.5,0,0,0,.4.2H2C4.6,13.8,9.8,8,13.7,4.1c-2.4,2-5.1,4.4-7.4,6.7L4.7,12.4A41.7,41.7,0,0,0,1.2,16.7ZM6.8,9.6l-.8.8.9-.9Zm5.7-6.2,1.8-1.6A6.4,6.4,0,0,0,12.8,3ZM2.3,12.3a56.8,56.8,0,0,0,6.5-7C6.1,8,3.7,10.6,2.3,12.3ZM1,13h.2a15.5,15.5,0,0,1,1.3-1.7Zm1-2.3L3,10l.7-.8Zm-.5-4,1.1-1L4.3,3.6l.4-.5h.1L2.7,5.4Z"/></clipPath><clipPath id="clip-path-2" transform="translate(-0.4 -0.6)"><path class="cls-1" d="M1.3,1.2c1.2-1.2,1.6,0,3.4,0h7.2c1.8,0,1.8-.3,3.6-.3s1.8.2,3.6.2S20.9.9,22.7.9s1.8.3,3.6.3S28,.9,29.8.9h3.6c1.8,0,1.8.2,3.6.2h3.6c1.8,0,1.8-.2,3.6-.2s1.8.4,3.6.4H55c1.9,0,2.2-1.3,3.5,0s.4,1.7.4,3.5-.2,1.8-.2,3.6-.2,1.8-.2,3.6-.1,1.8-.1,3.6.5,1.8.5,3.6-.5,1.8-.5,3.6.2,1.8.2,3.6v3.6c0,1.9.2,1.9.2,3.7s-.3,1.8-.3,3.6.3,1.8.3,3.6-.1,1.8-.1,3.6-.1,1.8-.1,3.6.2,1.8.2,3.6,1.1,2.4-.1,3.7-1.8.1-3.6.1-1.8-.3-3.6-.3-1.8.3-3.6.3-1.8-.3-3.6-.3H37.1c-1.8,0-1.8.2-3.6.2H26.3c-1.8,0-1.8-.3-3.6-.3H19.1c-1.8,0-1.8.3-3.6.3H11.9c-1.8,0-1.8-.2-3.6-.2s-1.8.3-3.6.3-2.2.9-3.5-.4.1-1.6.1-3.5S1,49.8,1,48,.9,46.2.9,44.4s.1-1.8.1-3.6.2-1.8.2-3.6S.8,35.4.8,33.6.9,31.8.9,30s.2-1.8.2-3.6.1-1.8.1-3.6V19.1c0-1.8-.3-1.8-.3-3.6s.1-1.8.1-3.6S.9,10.1.9,8.3s.7-1.9.3-3.7S0,2.5,1.3,1.2Z"/></clipPath></defs><title>Asset 11</title><g id="Layer_2" data-name="Layer 2"><g id="Layer_3" data-name="Layer 3"><g class="cls-2"><path class="cls-3" d="M48.5,30.5c.1.1,2.2-2.7,2.4-2.4s-1,2.4-1,2.4S52,28.4,52,28.4a27.2,27.2,0,0,1-1.1,2.5c.4.4,3.9-3.8,3.9-3.8s-2.3,3.6-2.3,3.6S55.7,27,56,27.3l-1.4,2.8s2.1-2.3,2.2-2.3-1.3,2.8-1.3,2.8,2.6-3,2.7-2.8-.5,1.9-.5,1.9,1.3-1.4,1.4-1.3" transform="translate(-0.4 -0.6)"/><path class="cls-3" d="M46.9,28.1c.1.1.6-.7.7-.6a24.3,24.3,0,0,0-1.8,3.2l2.5-2.5s-3.6,4.7-3.5,4.9S50,27,50.5,27.4s-8,7.9-7.3,8.6,5.3-5.2,5.3-5.2" transform="translate(-0.4 -0.6)"/><path class="cls-3" d="M32.4,8.8c.3.2,2.1-2,2.1-2s-2.3,3.1-2,3.4,2-2.6,2.3-2.3-1.9,2.8-1.7,3l2.2-2.2L33.5,12l2.4-2.5-1.3,2.8s1.3-1.9,1.6-1.6-2.3,3.7-2.3,3.7l2.2-2.2s-1.2,2.2-1,2.4l1.4-1.4s-1.2,2.5-1.2,2.6,1.3-1.3,1.3-1.3l-.9,2.4,1.8-1.8L34.9,19c.3.4,2.7-2.9,2.8-2.8s-2.6,4.1-2.6,4.1,2.1-2.5,2.3-2.4-2.1,3-1.8,3.3a39.7,39.7,0,0,0,2.9-2.9l-1.9,3.3,1.8-1.8c.2.1-1.7,3.1-1.7,3.1l2.4-2.4-1.8,3.2c.2.1,1.5-1.9,1.7-1.7l-1.6,3,1.7-1.6a37.9,37.9,0,0,0-2,3.4c0,.1,1.7-2.4,2-2.1l-1.6,3.1s2.9-3.1,3-3-2.2,3-1.9,3.3l1.6-1.6s-1.4,2.3-1.1,2.5.8-1.2,1-1a11.3,11.3,0,0,1-.8,2.2c.3.2,1.8-2.4,2.1-2.1s-1.9,3.3-1.9,3.3l2.3-2.2-1.7,3,1.1-1.1-1,2.4c.2.2,1.7-1.6,1.7-1.6S40.1,35,40.1,35s1.4-1.7,1.6-1.5L40,36.6c.1.1,2.2-2.5,2.3-2.4s-1.1,2.1-.9,2.4l1.4-1.5-1.3,2.8,1.7-1.6c.3.3-1.6,2.4-1.3,2.6l5.5-5.5-5.8,7.2c.2.1,3.9-4.6,4.2-4.2S43,40.7,43,40.7s2.4-2.9,2.7-2.7" transform="translate(-0.4 -0.6)"/><path class="cls-3" d="M31.7,1.3l.4-.5c.4.3-1.6,2.5-1.3,2.8a20.8,20.8,0,0,0,2.1-2.1l-3,4.4,3.2-3.3s-2.9,4.2-2.8,4.3S34,3.2,34,3.2l-4.6,6,4.4-4.4c.3.3-4.5,5.8-4.4,5.8l4.7-4.7c.3.3-4.8,4.7-4,5.5s2.4-3.1,2.7-2.8-3.7,4-3.1,4.6,1.9-2.7,2.3-2.4-2.4,3.9-2.4,3.9,1.7-1.8,1.7-1.8-3.4,4.1-3,4.5,2.8-3.5,3.1-3.2-3.4,4-3,4.5L31.1,16c.1.1-3,4.2-2.9,4.3s3.2-3.8,3.5-3.5S28,21.9,28,21.9s2.2-2.4,2.4-2.3l-2.7,4.1c.4.4,3-3.4,3.1-3.2l-2.7,4.2s2.5-2.9,2.7-2.7-3.8,4.8-3.6,5,2.3-2.9,2.5-2.6-3.8,4.2-3.3,4.8l3.4-3.4c.3.3-3.6,4.9-3.6,4.9l3.9-3.8c0,.1-4.4,4.5-3.7,5.1s3.1-3.1,3.1-3.1-3.9,4.7-3.6,5l3.6-3.6c.1.2-4,4.5-3.5,5s3-3.6,3.3-3.3l-3.6,4.9,3.2-3.2c.7.6-3.6,5-3.6,5l3.4-3.3c0,.1-4.5,4.7-3.9,5.3s2.6-3.5,3.1-3.1-3.2,4-2.9,4.3l3.2-3.2c.3.3-3,4-2.8,4.2s1.4-2.3,1.9-1.9l-2.9,4.3,3.7-3.6-4.4,5.7c.4.4,3.1-3.2,3.2-3.1" transform="translate(-0.4 -0.6)"/><path class="cls-3" d="M13.7,23.6l2.1-2.1-.9,2.4c.3.3,1.3-1.8,1.5-1.6l-1.5,2.9c.1.1,2.2-2.6,2.4-2.4s-2.6,3.2-2.2,3.6l2-1.9-2.2,3.6,3-3c.1.1-2.8,4-2.7,4.1l1.9-2c.3.3-.6,2.1-.6,2.1s.8-.8.8-.8a12.9,12.9,0,0,1-.7,2.1c.2.3,1.4-1.7,1.6-1.6a17,17,0,0,1-.9,2.4c.1.2,1.1-1.5,1.3-1.3s-2,3.4-2,3.4,2.7-3.4,3-3.1-2,3.1-1.8,3.3S19,32.5,19,32.5s-1,2.4-1,2.4,2.3-2.3,2.3-2.3a39.4,39.4,0,0,0-2.6,4s2.2-2.8,2.5-2.5L18,37.7c.2.1,2-2.5,2.2-2.2l-2.3,3.7c.2.1,2-2,2-2s-1.4,2.5-1.2,2.6l1.6-1.6-1.7,3.1c0,.1,2.7-3.2,2.9-2.9S19,42.3,19,42.3l2.9-2.8-2.6,4,2.9-2.9a33,33,0,0,0-1.8,3.2c.1.1,1.5-1.6,1.5-1.6S20,45.5,20,45.6s2.7-2.8,2.7-2.7l-2.2,3.6,2.4-2.4c.2.2-1.3,2.7-1.3,2.7s.8-1.1,1-1-1,2.4-1,2.4a33.1,33.1,0,0,1,2.7-2.6l-2.5,3.9c.2.2,1.5-1.9,1.7-1.7l-1,2.4,3.8-3.9c.3.3-3.3,4.8-3.3,4.8l3.5-3.5s-4.1,4.7-3.7,5.1,4-4.8,4.4-4.4-5.1,5.8-4.7,6.1,3.7-4,3.9-3.8-2.9,4.1-2.8,4.2,2.3-2.5,2.4-2.4-1.5,2.9-1.5,2.9,1.1-1.4,1.2-1.2" transform="translate(-0.4 -0.6)"/><path class="cls-3" d="M13.4,18.8l.9-.9c.2.2-2.8,4.3-2.8,4.3l3.8-3.8-4.8,6.2c.3.4,5.2-5.4,5.3-5.4s-6,7.5-6,7.5,5.3-6.7,6-6" transform="translate(-0.4 -0.6)"/><path class="cls-3" d="M.9,28.9s.9-1,.9-.9v1.6c0,.1,2.1-2.4,2.2-2.3s-2.4,3.4-2.2,3.6,3.2-3.1,3.2-3.1-.8,1.9-.6,2,1.9-1.9,1.9-1.9-1.1,2.3-1,2.4,1.9-2.1,2-2a18.9,18.9,0,0,0-1.1,2.5S16,19.9,16.5,20.4s-8.1,9.2-8,9.4,3.8-5.3,4.6-4.6-3.5,4.9-3.5,4.9,2.2-2.2,2.2-2.2" transform="translate(-0.4 -0.6)"/></g><g class="cls-4"><path class="cls-5" d="M57.4,27.4H47.6c-.5,0-.9.6-1.1,1-.7,2-.9,1.9-1.7,3.8s.6,3.7-1.5,4-.4-1.9-.9-3.6-.8-1.6-1.3-3.3l-1-3.4c-.4-1.7-.3-1.8-.8-3.5l-1-3.4c-.5-1.7-.6-1.7-1.1-3.4s-.2-1.8-.7-3.5-.3-1.7-.8-3.4-.6-1.7-1.1-3.4-.4-1.8-.9-3.5-.9-.6-1.5-.6-1.1.2-1.2.9-.5,1.7-.7,3.5-.4,1.7-.7,3.5.2,1.8,0,3.5-.7,1.7-1,3.5-.1,1.8-.3,3.6l-.6,3.5c-.3,1.7,0,1.8-.3,3.5s-.5,1.7-.8,3.5,0,1.8-.2,3.6-.4,1.7-.7,3.5l-.6,3.5c-.2,1.7-.1,1.8-.3,3.5s1.1,3.6-.7,3.5-.6-1.7-1.2-3.5-.3-1.9-.8-3.7-.9-1.7-1.4-3.5-.2-1.9-.7-3.7l-1.2-3.6c-.5-1.8-.4-1.8-.9-3.6s-.7-1.7-1.3-3.5-.7-1.8-1.2-3.6a1,1,0,0,0-1.1-.7,1.5,1.5,0,0,0-1.5.4c-.6,1.5-.5,1.6-1.1,3s-.4,1.6-1.1,3-.1,2.1-1.4,2.9-1.8-.1-3.5-.1-1.6.2-3.3.2S.9,28.3.9,29a1.7,1.7,0,0,0,1.5,1.5c1.9,0,1.9-.3,3.8-.3H9.9a1.1,1.1,0,0,0,1.1-.7c.7-1.5.9-1.5,1.6-3S12.3,22.8,14,23s.6,2,1.1,3.7.3,1.8.9,3.5.4,1.7.9,3.4.6,1.7,1.1,3.5.8,1.6,1.3,3.3.4,1.8.9,3.5.6,1.7,1.1,3.4.3,1.8.8,3.5.4,1.8.9,3.5.9.6,1.5.6,0,.3.1.3A1.5,1.5,0,0,0,26,54.1c.2-1.7.1-1.8.4-3.5s-.1-1.8.2-3.6.7-1.7,1-3.4-.1-1.8.1-3.6.2-1.7.5-3.5.3-1.7.5-3.5.4-1.7.6-3.5l.6-3.5c.3-1.7.6-1.7.9-3.4s-.3-1.9,0-3.6.3-1.7.6-3.5.3-1.8.5-3.5-1.1-3.8.7-3.8.5,2.1,1,3.9.4,1.8.9,3.5l1,3.6c.5,1.8.9,1.7,1.4,3.5s.3,1.8.9,3.6.2,1.8.7,3.6.9,1.7,1.4,3.5l1,3.5c.5,1.8.4,1.9.9,3.6s.6,1.2,1.2,1.2a1.6,1.6,0,0,0,1.5-.9c.7-1.7.4-1.9,1.1-3.6L47,33.8c.7-1.8-.2-2.7,1.4-3.6s2.3.3,4.5.3h4.4c.8,0,1.2-.6,1.2-1.4a1.2,1.2,0,0,0-1.1-1.3C57.2,27.7,57.4,27.4,57.4,27.4Z" transform="translate(-0.4 -0.6)"/></g></g></g></svg>