<svg xmlns="http://www.w3.org/2000/svg" viewBox="0 0 229.3 520.7">
<title>body_front2</title>
<g id="Layer_1" data-name="Layer 1">
<g id="body">

<path id="body-f" d="M750.7,343.1a70.9,70.9,0,0,0-14.5-21.5c-1.5-1.4-3.4-2.8-4.1-4.6-2.3-6.1-4.7-12.3-5.9-18.7a134.3,134.3,0,0,1-2.2-21.9c-.4-11.7-1.8-23.1-7-33.8a38.2,38.2,0,0,1-4-15.3c-.4-6.8-1.1-13.6-1.7-20.5-.4-4.1-1.4-8.3-1.1-12.4a88.4,88.4,0,0,0-.8-24.1c-1.4-6.9-4.8-12.6-11-16.1-3-1.7-6.5-2.7-9.7-4l-19.5-8.6c-4.9-2.3-9.7-4.6-14.3-7.1-1.3-.6-2.8-2-2.9-3.1a22.8,22.8,0,0,1,4.6-17.5c2.9-4.1,5.2-8.2,5.9-13.2s-.4-7-2.8-7.8-2.2-2.1-1.7-3.8.3-1.3.5-1.9c1.7-8-.6-14.7-7-19.9-4.5-3.7-9.8-4.9-15.5-5.2s-14-.1-20.4,3.5-11.8,9.1-12.4,17.3c-.2,4.2-.3,8.3-2.4,12a3.2,3.2,0,0,0-.3,1.4c-.1,7.4,2.1,13.9,7.8,19a5.1,5.1,0,0,1,1.7,3,52.3,52.3,0,0,1,.3,6.9c0,5.5-2.2,9.9-7.2,12.5s-9.9,5.2-14.8,7.8c-2,1-3.8,2.2-5.9,2.7a49.8,49.8,0,0,0-14,6c-5.4,3.4-10.5,7-12.7,13.4-1.5,4.8-1.2,9.8-1.3,14.8s-.1,12-.7,17.9a213.6,213.6,0,0,0-1.1,29.9,69.6,69.6,0,0,1-1.4,18.2c-1.7,8.4-2.9,16.9-3.9,25.3-.7,5.6-.8,11.3-1.2,16.9-.8,9.4-3.8,18.2-6.5,27.1a14.7,14.7,0,0,1-1.9,4c-2.8,4.1-6.2,7.9-8.6,12.2a108.7,108.7,0,0,0-6.2,14.9c-1,2.6.4,3.9,3.2,3.5l4.5-.7c1-.2,1.7,0,1.7,1.3.1,2.9.2,5.9.6,8.9s.6,3.4,1.6,4.3a14.4,14.4,0,0,0,10.5,3.5c3.9-.4,7.3-2.2,10.7-4.3a14.6,14.6,0,0,0,6.8-8.5c1.6-5.5,3-11,4.4-16.6s1.4-9.9-.7-14.6-.8-6.6.1-9.8a22.5,22.5,0,0,0,.8-2.4c2.1-5.9,4.5-11.7,6.3-17.7,4.2-13.8,5.9-28.1,8.4-42.3.5-3.2,1-6.3,1.6-9.5a2.4,2.4,0,0,1,1.2,1.5,25.8,25.8,0,0,1-.4,3.9c-1,7.1-2.3,14.1-3.3,21.1-.7,5.3-.5,10.7-1.6,15.8a167.9,167.9,0,0,0-3.8,38c.2,7,.3,14,1,21,1.2,11.2,2.4,22.5,4.3,33.7s5.8,24.1,6.5,36.6a122.2,122.2,0,0,1,.4,16c-.4,7.6-1.7,15.1-2.1,22.7-.5,10.4.8,20.7,2.8,30.9,2.6,12.6,5.6,25,8.3,37.5.5,2.7,1.1,5.6.6,8.2a19,19,0,0,0,.6,11.1,2.7,2.7,0,0,1-.6,2.3c-3.4,3.6-6.7,7.3-10.4,10.6a18.2,18.2,0,0,1-6.8,4.3c-7.6,2.1-11.5,7.8-15.1,13.9a5.6,5.6,0,0,0,.2,4,18.3,18.3,0,0,0,3.5,4.4,4.9,4.9,0,0,0,3,1.2c5.6-.2,11.2-.7,16.8-.9a21.8,21.8,0,0,0,15.2-6.7,48.7,48.7,0,0,1,16-11.7,13.1,13.1,0,0,0,3.4-2.4,5.5,5.5,0,0,0,1.9-5.1c-.9-5.6-1.7-11.2-2.8-16.8-.8-4-2.6-8-2.9-12-.8-14.1,1.3-28,5-41.5s4.4-27-.7-40.3a14.1,14.1,0,0,1-.1-9.3,9.8,9.8,0,0,0,.7-3.3c.4-5.7.8-11.5,1-17.2.2-10.4.1-20.8.6-31.2.3-4.6,1.8-9.1,2.7-13.6.1-.4.6-.8.9-1.2s.7.8.8,1.3a10.1,10.1,0,0,1,.5,2.5c2.2,13.3,2.5,26.9,3.2,40.4a138.3,138.3,0,0,0,1.6,18.2c1.1,7,1.8,13.9.5,21-.7,3.8-1.6,7.9-1.3,11.7.7,8.5,2.2,16.9,3.2,25.4s1.9,16.9,2.6,25.4a151.4,151.4,0,0,1,0,16.5c-.4,8.6-1.4,17.1-1.8,25.6a7.6,7.6,0,0,0,1.4,4.9c3.6,4.3,7.2,8.8,11.4,12.4,8,6.8,17.5,9,27.9,7.4,3.3-.5,6.4-1.6,8.2-4.8,3.6-6.5,4.2-8.5-2.4-13.7a200.7,200.7,0,0,1-15.4-13.7c-3.8-3.8-5-9.1-4.5-14.1.9-8.3,2.6-16.5,4-24.8,2-11.8,4.6-23.6,6-35.5,1.1-8.6.7-17.3.6-25.9-.2-5.9-1.8-11.8-1.5-17.6.4-8.4.9-16.7.3-25a7.8,7.8,0,0,1,.7-3.3c2-5.5,4.4-10.9,6.1-16.5a195.9,195.9,0,0,0,8.5-43.5c.7-9.6,1.8-19.1,2.3-28.6a111.8,111.8,0,0,0-.3-19.2c-.6-4.7-3-9.2-4.5-13.8a14.2,14.2,0,0,1-.7-2.2l.6-.3a25.9,25.9,0,0,1,1.9,3.1c4,8.9,7.9,17.9,12.1,26.7a32.4,32.4,0,0,1,2.9,18.4,36.9,36.9,0,0,0,.1,11.5c1.6,7.7,5,14.7,8.9,21.4a18.5,18.5,0,0,0,14.1,9.2c2.2.3,4.7,1.1,6.6-.6s5.1-5.5,7.7-8.2a2.5,2.5,0,0,0,.1-.9c0-2.6.1-5.2-.1-7.8s.2-1.7,1.6-1.6a37.5,37.5,0,0,0,6.7-.1c.7,0,1.9-1.3,1.8-1.9A15.6,15.6,0,0,0,750.7,343.1ZM709.3,234.6a3.5,3.5,0,0,1-3.4,3.6L689.1,241a3.3,3.3,0,0,1-2.3-.7c-2-1.9-3.4-4-3.3-6.9.4-11.4.7-22.8,1-34.2a10.9,10.9,0,0,0-.3-2.6,6.6,6.6,0,0,1,6.3-8H707a1.6,1.6,0,0,1,1.1.8c-2.3,7.1.1,13.9,1.2,20.9A93.4,93.4,0,0,1,709.3,234.6Zm-29,1.6A114.6,114.6,0,0,1,678,249c-.5,2.5-1.5,4.9-4.2,5.5a7.8,7.8,0,0,1-8-2.6,153.2,153.2,0,0,1-10.2-12.7c-6-8.3-11.8-16.8-17.6-25.2a16.4,16.4,0,0,0-2.8-3.1,8,8,0,0,1-3-6.9c.1-4.5,0-9,0-13.4,0-1.5.5-2,2.1-2H685c-.9,2.5-2,4.4-2.1,6.3-.4,4.1-.1,8.2-.4,12.3C681.8,216.9,681.2,226.5,680.3,236.2Zm.7,43.6a2.9,2.9,0,0,1-1.1,1.6l-26.6,21.5a2.2,2.2,0,0,1-1.6.5H634.1c-1.3,0-1.7-.4-1.7-1.7v-72c0-5.4-.1-10.8-.2-16.3v-2.6a23.7,23.7,0,0,1,2.7,2.5c5.6,8.1,11.1,16.4,16.9,24.4a182.2,182.2,0,0,0,12.1,15.4c3.8,4.2,7.7,5.3,12.7,2.2,1-.6,2-.4,2.3.7,1,3.8,2.4,7.6,2.8,11.5S681.3,275.7,681,279.8Zm15-123.6c6,2.3,8.7,7.2,10,12.9s1.6,10.8,2.3,16.2c.1.3-.8,1-1.2,1H670.3v.3H633.9c-1.4,0-1.7-.4-1.7-1.8l-.3-29.2c0-3.8.1-3.8,3.7-3.8h34.5A67.7,67.7,0,0,1,696,156.2Zm-58.1-50.4a9,9,0,0,1-1.8,1.6c-.8.4-1.7,1-2.4.8s-1-1.4-1-2.2c.1-10.4.3-20.8.4-31.2.1-3,0-6,.1-9,0-.4.6-1.2,1-1.2a20.8,20.8,0,0,1,21,13.7c1.2,3.4,0,6.6-.4,9.8s-.8,4.5-1.2,6.8a3.7,3.7,0,0,0,.5,2.3,4.8,4.8,0,0,1,.9-1.4c.9-.4,2-1.1,3-.9s1.5,1.2,1.6,1.9a16.8,16.8,0,0,1-.2,5,44.5,44.5,0,0,1-2.4,7c-.3.7-1.3,1.1-2,1.6a6.6,6.6,0,0,1-.4-2.3c0-1.4.3-2.7.4-4l-.8-.2a13.9,13.9,0,0,0-1,3.3,37.2,37.2,0,0,1-5,14.1,23.2,23.2,0,0,1-13.5,10.1c-1.5.5-2.5-.1-2.3-1.8v-.3l.5-9.1a9.5,9.5,0,0,1,2.1-.9h3.6c.5-.1.9-.6,1.3-.9a3.5,3.5,0,0,0-1.4-.6,35,35,0,0,0-4.5.7c-1.1.1-1.7-.2-1.6-1.4a4.3,4.3,0,0,0,0-1.6c-.4-3.1.4-5.3,3.7-6.4,1-.3,1.6-1.7,2.4-2.5ZM610.2,111c-.2.5-.4,1.2-.6,1.2a2.1,2.1,0,0,1-1.6-.6,26.1,26.1,0,0,1-5-13.9c-.1-.7.9-1.5,1.4-2.2l1.9,1.7.9,1.1a5.5,5.5,0,0,0,.5-1.7c-.3-3.6-.7-7.2-1-10.8C606.1,77.1,610,71.2,618,68c2.7-1.1,5.4-2.1,8.1-2.9s4.1-.4,4.1,3c.1,8.1.3,16.2.2,24.3,0,4.5-.4,9.1-.7,13.6,0,.8-.7,1.6-1,2.4l-2.8-1.3-1.1-.4c0,.5-.2,1.3,0,1.4a9.7,9.7,0,0,0,3.3,1.4c1.5.2,2.1.9,2.1,2.3v2c0,3.4,0,3.8-2.4,4.7-.2.1-2.9-.5-3.3-.4l-1.3.3c-.1.1,1.1.4,1.8.7h2.8c3.6,1.5,1.5,5.2,2.3,7.8a4.3,4.3,0,0,1,.1,1.6c0,2.9-1.3,3.8-3.9,2.6-7.6-3.6-12.7-9.3-14.3-17.8a7.7,7.7,0,0,0-1.4-3.4A4.2,4.2,0,0,1,610.2,111Zm-12.4,32.4c3.2-1.6,6.4-3.4,9.4-5.3s5.6-6.6,6.1-11.3c0-.3.1-.6.1-.9s.7-1.6,1.8-.8a77.4,77.4,0,0,0,7.3,5.5c5.6,3.6,11.4,3,17.1.3,1.9-.9,3.5-2.5,5.4-3.7a3.8,3.8,0,0,1,2.1-.4,2.3,2.3,0,0,1,.6,1.3c-1.1,5.4,2.2,8.1,6.4,10s9.4,4,14,6.2a25.6,25.6,0,0,1,5.9,4H588.2C591.6,146.6,594.8,145.1,597.8,143.4Zm-40.1,26.8c.6-4.5,3.4-8,7.1-10.6,5.6-3.9,10.9-7.9,18.6-7.7,14.5.4,29-.1,43.5-.3,1.9-.1,2.3.7,2.3,2.3l.6,27.5c0,1.1.1,2.1.2,3.2s-.6,2-2,2H615.2v.5H576.8l-17.6-.3a1.8,1.8,0,0,1-2-2.1C557.4,179.9,557.1,175,557.7,170.2Zm2.4,178.4c-1,3-1.8,6.1-2.9,9.1-.3.9-1.3,1.6-2,2.4l-.5-.3c.4-4,1.7-7.9,1-11.9h-.6a9.4,9.4,0,0,0-.6,1.5c-.5,2.8-.8,5.7-1.4,8.5a18.2,18.2,0,0,1-1.8,5.1,2.5,2.5,0,0,1-1.8,1c-.4,0-1.1-1.1-1-1.7q.3-4.3.9-8.7c.1-1.1.5-2.2.6-3.3a3.7,3.7,0,0,0-.7-1.6c-.3.4-.9.8-1,1.2-.6,2.7-1.1,5.4-1.6,8s-.5,3.9-1.1,5.8-1.4,1.2-2.1,1.8-1.1-1.5-1-2.3c.3-4.4.8-8.9,1.2-13.3.1-1,.1-2,.1-3H543c-1.2,5.4-2.5,10.8-3.7,16.2h-.8a23.7,23.7,0,0,1-.9-3.6c-.4-5.1-.7-10.3-.9-15.4l.5-4.2c-4.5,1.7-5.4,4.5-8.6,7.6a6.8,6.8,0,0,1-1.7.9,4.4,4.4,0,0,1,.2-2,65.7,65.7,0,0,1,11.5-19.6c1.7-2,3.5-3.9,5.2-5.8a1.5,1.5,0,0,1,.9-.4l12,.9a5,5,0,0,1,4.8,4.5A44.2,44.2,0,0,1,560.1,348.6Zm15.9-81c-2.9,12.5-4.9,25.3-9.7,37.3-1.5,4-3.3,8-5.1,11.9a3.8,3.8,0,0,1-4.6,2.3c-3.6-.5-7.4-.8-11.1-1.2a1.7,1.7,0,0,1-1.6-2.3,54.7,54.7,0,0,1,1.3-5.5c2.7-7.7,3.4-15.7,4.2-23.8,1.1-10.8,2.1-21.7,3.4-32.5.3-2.7,1.6-5.2,2.6-7.8a2.4,2.4,0,0,1,2.1-1.2l19.3,2.3a2.7,2.7,0,0,1,2.6,3.1C578.3,256,577.3,261.8,576,267.6Zm8.1-58a130.3,130.3,0,0,0-1.8-13.8c-.3-1.3-1.6-2.5-2.5-3.7s-.6,0-1-.1-.2.8,0,1c3.1,4.7,2.8,10.2,3.4,15.4.7,7.9,1.2,15.9,1.8,23.8.3,4.5-1.8,8.2-4.9,11-1.3,1.2-4.3,1-6.5.8-4.8-.4-9.6-1.1-14.5-1.9a2.6,2.6,0,0,1-1.6-1.8c-1.2-14.8-1.6-29.6.9-44.2a28.9,28.9,0,0,0,.4-2.9c.2-3.7.2-3.6,3.8-3.7h58.3v-.4h7.9a2.4,2.4,0,0,1,1.6,1.3c.3,5.1.6,10.3.7,15.4a3.2,3.2,0,0,1-1,2.1c-7.3,8.6-12.8,18.3-18.7,27.9-3.6,5.8-7.3,11.5-11.1,17.2a19.4,19.4,0,0,1-3.2,3.2,3.4,3.4,0,0,1-4.7.5c-1.7-1-3.5-1.9-3.4-4.5.1-5.6.9-11.2-.7-16.7C584.8,227,584.8,218.3,584.1,209.6Zm.2,69.1c.5-7.1,1.4-14.1,2.2-21.2.2-1.3.8-1.4,1.8-.5,3.5,3.3,7,3.5,10.1-.2a146.3,146.3,0,0,0,10.8-15c5.5-8.4,10.7-17,16.1-25.5a31.7,31.7,0,0,1,3.7-4c.3,2.2.6,3.9.7,5.5.2,17.3.4,34.6.5,51.8.1,10.7,0,21.5,0,32.2,0,1.3-.3,1.7-1.7,1.7l-16.8.2a6.4,6.4,0,0,1-4.7-1.6c-6.9-5.8-13.9-11.7-21-17.3C583.8,283,584.2,280.7,584.3,278.7ZM620,544.5c.7,3.8,1.3,7.6,1.8,11.3s-.7,3.5-2.4,4.5c-4.2,2.5-8.3,4.9-12.3,7.6a41,41,0,0,0-6,5.8c-2.9,3.1-6.6,4.3-10.6,4.8a50,50,0,0,0-7.6,1.2,15.7,15.7,0,0,1-11.1-.8c-.6-.3-.9-1-1.4-1.5l.6-4.6a6.8,6.8,0,0,1,.9-1.7c.8-1,1.8-1.8,2.6-2.8a4,4,0,0,0,1.2-2.3c0-2.3,1.5-3.1,3.2-3.5,5.8-1.2,9.7-4.9,13.3-9.1s5.9-6.2,9-9.2a1.8,1.8,0,0,1,1.3-.4h16.3C619.2,543.8,620,544.2,620,544.5Zm2.8-91.4c3,10.3,1.9,20.3-.7,30.5a186.4,186.4,0,0,0-5.7,39.3,35.7,35.7,0,0,0,2.3,14.4c1.4,3.6,1.1,3.9-2.7,4l-12.2.2c-3,0-4.5-1.1-4.1-3.6,1.7-12-2.7-23.1-5-34.6-2.9-14.5-6.4-29-5.9-44,.3-8.9,1.8-17.9,2.8-26.8,0-.5,1-1.2,1.6-1.3h8.6V431l17.9.8c.4,0,1.3.7,1.2.9C618.6,439.8,620.9,446.5,622.8,453.1Zm1.6-78.3a125.2,125.2,0,0,0-2.2,18.3c-.6,11.3-.6,22.6-.9,33.9,0,1.6-.7,2.4-2.4,2.4l-20.5-.7a43.6,43.6,0,0,1-5.1-.3c-.3,0-.8-.5-.9-.8-1.9-19.3-6-38.2-9.4-57.2a230.4,230.4,0,0,1-4.2-39c-.3-13.6.3-27,3.2-40.3.4-1.7,1-3.5,1.5-5.5a30.4,30.4,0,0,1,2.5,2.1c3.2,2.9,6,6.4,9.7,8.6,10,6.1,17.3,14.9,24.6,23.7,5,6.1,7.3,13.4,7.8,21.3C628.7,352.7,626.5,363.7,624.4,374.8Zm3.8-47.8-7.3-9.1-8.1-10.4-.4-.8h1.3c7.2-.1,14.4-.2,21.6-.1,4.2,0,8.3.2,12.5.4,1.2,0,1.4.4.7,1.3-3.2,3.9-6.3,7.7-9.6,11.5l-6.8,7.2Zm38,222.4a35.7,35.7,0,0,1,5.6,7.2c1.9,3,5.4,4.9,8.2,7.4a12.3,12.3,0,0,1,2.2,2.9l2.1,1.6c.9.3,1.7.4,1.9.8s1.2,1.2,1,1.6a11.7,11.7,0,0,1-1.5,3.2l-1.7,2.7a3.7,3.7,0,0,1-1.7,1.6,9.9,9.9,0,0,1-2.4-.1c-.6,2-2.4,2.1-4.2,2s-1.3-.8-1.5-1.3-.6-1.1-1.4-.6l-1.7,1.1a4.3,4.3,0,0,1-4.5.4l-8.8-3.4c-2.3-.9-4.2-2.1-5.3-4.3a17.3,17.3,0,0,0-6.6-7.1c-4.3-2.7-4.8-6.8-4-11.3,1.1-6.4.3-5.1,6.1-5.2s10.8,0,16.2,0A3.6,3.6,0,0,1,666.2,549.4Zm5.8-70.2c-1.6,10.6-3.9,21.1-5.7,31.7-1.4,7.7-2.5,15.5-3.9,23.3-.6,3.4.5,6.5,1.3,9.6.4,1.2.1,1.6-1.2,1.6l-19.2.2c-1.3,0-1.9-.4-1.6-1.8a89.7,89.7,0,0,0,2.1-11.3,85.8,85.8,0,0,0-.2-13.4c-.7-8.5-1.5-17.1-2.5-25.6-.7-5.7-2.2-11.3-2.5-17a115.9,115.9,0,0,1,.5-20.4c.7-4.9,1.8-9.9,1.5-14.9a66.6,66.6,0,0,0-1.1-7.8c-.4-1.5,0-1.8,1.4-1.8h26.9c1.1,0,1.4.3,1.6,1.5.7,5.2,1.7,10.3,2.5,15.5A95.2,95.2,0,0,1,672,479.2Zm15.1-182.5a196,196,0,0,1-.9,31.6c-.9,9.5-1.4,19.2-2.8,28.6-2,13.4-4.8,26.6-9.7,39.3l-3.1,17.6c-.1,4.6-.4,9.1-.8,13.6,0,.5-.9,1.2-1.5,1.4a9.1,9.1,0,0,1-3.3.5l-24.8-.4a2.3,2.3,0,0,1-1.5-1.5c-.5-4.3-.7-8.6-1-12.9-.6-8.6-1.3-17.2-2-25.7s-1.4-16.3-2-24.4-1-17.6-1.6-26.4a17.6,17.6,0,0,1,4.8-13.3c5.9-6.5,11.2-13.6,17.4-19.7s10.7-8.8,16.1-13.1l9.7-7.7c2.1-1.6,2.9-1.3,4.2.9S686.8,292.7,687.1,296.7Zm4.8-19.2a70,70,0,0,1-5.5-23.9c-.1-2.6-.9-5.2-1.3-7.8a8.2,8.2,0,0,1,.3-2.1l7-.8c6-1.1,12-2.2,18.1-3a3.3,3.3,0,0,1,2.4,1.5c3.2,5.9,5.7,12.1,6.1,18.8s.6,15.4.7,23.1a76.5,76.5,0,0,0,4.1,23.2c1.2,3.4,1.6,7.2,2.3,10.9a1.8,1.8,0,0,1-1,1.3l-12.8,5c-2.7,1-2.8.9-2.8-1.9.2-5.4-2.3-10.1-4.4-14.9C700.8,297,696.1,287.3,691.9,277.5Zm52.5,68.2c-2-1.8-3.8-3.9-5.9-5.5a15.9,15.9,0,0,0-5.1-2.4c-.5-.2-1.3.3-2,.5l1.4,1.3c.6.7,1.7,1.3,1.9,2.1,1.2,5.4,2.2,10.8,1.6,16.4-.1.3-.1.7-.2,1l-.9,1.2c-.4-.4-.9-.6-1-1-1-3.6-1.8-7.2-2.6-10.7l-1.7,1.2c.5,3.7,1.3,7.4,1.7,11,.1,1.1-.6,2.4-.9,3.5-.7-.8-1.8-1.6-2.1-2.6-1.2-3.9-2-7.9-3-11.8l-.9-3.5c-.1-.2-.5-.4-.8-.6a2.4,2.4,0,0,0-.6.8,15.3,15.3,0,0,0,.2,3.7c.8,4.1,1.8,8.2,2.7,12.4.2.5-.2,1.2-.3,1.8s-1.3-.4-1.7-.9l-4.9-4.4-3.8-6.2c-.9-1.7-1.9-3.4-2.8-5.2-3.3-6.1-4.7-12.6-3.3-19.5a2.4,2.4,0,0,1,1.3-1.5l14.4-5.5c2.6-1.1,4.5-.3,6.3,1.4,5.3,5.1,10,10.7,12.6,17.8.5,1.4,1.3,2.7,1.9,4a12.3,12.3,0,0,1,.2,1.9A4.4,4.4,0,0,1,744.4,345.7Z" transform="translate(-522.6 -61.9)"/>

<path id="right-b" d="M605.2,199.2a3.4,3.4,0,0,0,3.4-3c0-1.5-1.6-2.6-3.8-2.7s-3.3,1-3.3,2.6S603.6,199.2,605.2,199.2Zm-.4-4.5c.8.1,1.6.9,2.9,1.8-1.2.9-2,1.9-2.3,1.7a14.3,14.3,0,0,1-2.6-2.3C603.4,195.5,604.2,194.6,604.8,194.7Z" transform="translate(-522.6 -61.9)"/>
<path id="left-b" d="M659.3,191.7c-1.9-.1-4,1.7-3.9,3.2s1.8,2.8,3.8,2.8,3.4-1.3,3.3-2.9A3.1,3.1,0,0,0,659.3,191.7Zm-.3,5.5-2.3-2.1,2.2-2.2c.7.7,1.7,1.3,2,2.2S659.8,196.3,659,197.2Z" transform="translate(-522.6 -61.9)"/>
<path id="right-eye" d="M620.5,93.6a10.4,10.4,0,0,0-1.7,1.2c.5.3,1.1.9,1.7.9l5.7-.6c.2,0,.5-.3.5-.3s-.3-.6-.5-.6l-3.1-.9A13.2,13.2,0,0,0,620.5,93.6Z" transform="translate(-522.6 -61.9)"/>
<path id="right-eyebrow" d="M616.2,92.2l9.8-1C624,89.6,617.5,90.3,616.2,92.2Z" transform="translate(-522.6 -61.9)"/>
<path id="left-eye" d="M644.8,94.3l.8-.5c-.2-.3-.4-.8-.7-.8l-8.1.2v1.3a18,18,0,0,0,4.6,1A9.7,9.7,0,0,0,644.8,94.3Z" transform="translate(-522.6 -61.9)"/>
<path id="left-eyebrow" d="M636.6,90.7h9.8C644.4,89.1,638,89.3,636.6,90.7Z" transform="translate(-522.6 -61.9)"/>
</g>
</g>


<g id="Layer_2" data-name="Layer 2" >

<path id="_1" data-name="1" d="M625,119.1c-.7-.3-1.9-.6-1.8-.7l1.3-.3c.4-.1,3.1.5,3.3.4,2.4-.9,2.4-1.3,2.4-4.7v-2c0-1.4-.6-2.1-2.1-2.3a9.7,9.7,0,0,1-3.3-1.4c-.2-.1,0-.9,0-1.4l1.1.4,2.8,1.3c.3-.8,1-1.6,1-2.4.3-4.5.7-9.1.7-13.6.1-8.1-.1-16.2-.2-24.3,0-3.4-.7-4-4.1-3s-5.4,1.8-8.1,2.9c-8,3.2-11.9,9.1-11.3,17.8.3,3.6.7,7.2,1,10.8a5.5,5.5,0,0,1-.5,1.7l-.9-1.1-1.9-1.7c-.5.7-1.5,1.5-1.4,2.2a26.1,26.1,0,0,0,5,13.9,2.1,2.1,0,0,0,1.6.6c.2,0,.4-.7.6-1.2a4.2,4.2,0,0,0,.4-1,7.7,7.7,0,0,1,1.4,3.4c1.6,8.5,6.7,14.2,14.3,17.8,2.6,1.2,3.9.3,3.9-2.6a4.3,4.3,0,0,0-.1-1.6c-.8-2.6,1.3-6.3-2.3-7.8H625Z" transform="translate(-522.6 -61.9)"/>
<path id="_2" data-name="2" d="M632.4,129.3v.3c-.2,1.7.8,2.3,2.3,1.8a23.2,23.2,0,0,0,13.5-10.1,37.2,37.2,0,0,0,5-14.1,13.9,13.9,0,0,1,1-3.3l.8.2c-.1,1.3-.4,2.6-.4,4a6.6,6.6,0,0,0,.4,2.3c.7-.5,1.7-.9,2-1.6a44.5,44.5,0,0,0,2.4-7,16.8,16.8,0,0,0,.2-5c-.1-.7-1-1.9-1.6-1.9s-2.1.5-3,.9a4.8,4.8,0,0,0-.9,1.4,3.7,3.7,0,0,1-.5-2.3c.4-2.3.9-4.5,1.2-6.8s1.6-6.4.4-9.8a20.8,20.8,0,0,0-21-13.7c-.4,0-1,.8-1,1.2-.1,3,0,6-.1,9-.1,10.4-.3,20.8-.4,31.2,0,.8.5,2.1,1,2.2s1.6-.4,2.4-.8a9,9,0,0,0,1.8-1.6l.6.7c-.8.8-1.4,2.2-2.4,2.5-3.3,1.1-4.1,3.3-3.7,6.4a4.3,4.3,0,0,1,0,1.6c-.1,1.2.5,1.5,1.6,1.4a35,35,0,0,1,4.5-.7,3.5,3.5,0,0,1,1.4.6c-.4.3-.8.8-1.3.9H635a9.5,9.5,0,0,0-2.1.9" transform="translate(-522.6 -61.9)"/>
<path id="_3" data-name="3" d="M672.9,148.4H674a25.6,25.6,0,0,0-5.9-4c-4.6-2.2-9.4-4-14-6.2s-7.5-4.6-6.4-10a2.3,2.3,0,0,0-.6-1.3,3.8,3.8,0,0,0-2.1.4c-1.9,1.2-3.5,2.8-5.4,3.7-5.7,2.7-11.5,3.3-17.1-.3a77.4,77.4,0,0,1-7.3-5.5c-1.1-.8-1.7-.6-1.8.8s-.1.6-.1.9c-.5,4.7-1.9,8.8-6.1,11.3s-6.2,3.7-9.4,5.3-6.2,3.2-9.6,4.8h.6" transform="translate(-522.6 -61.9)"/>
<path id="_4" data-name="4" d="M615.2,187.1v-.5H628c1.4,0,2.1-.6,2-2s-.2-2.1-.2-3.2l-.6-27.5c0-1.6-.4-2.4-2.3-2.3-14.5.2-29,.7-43.5.3-7.7-.2-13,3.8-18.6,7.7-3.7,2.6-6.5,6.1-7.1,10.6s-.3,9.7-.5,14.5a1.8,1.8,0,0,0,2,2.1l17.6.3Z" transform="translate(-522.6 -61.9)"/>
<path id="_5" data-name="5" d="M670.3,186.6v-.3h36.8c.4,0,1.3-.7,1.2-1-.7-5.4-1.1-10.9-2.3-16.2s-4-10.6-10-12.9a67.7,67.7,0,0,0-25.9-4.5H635.6c-3.6,0-3.7,0-3.7,3.8l.3,29.2c0,1.4.3,1.8,1.7,1.8Z" transform="translate(-522.6 -61.9)"/>
<path id="_6" data-name="6" d="M578.9,189.1c-5.8,0-11.5.4-17.3.4-3.6.1-3.6,0-3.8,3.7a28.9,28.9,0,0,1-.4,2.9c-2.5,14.6-2.1,29.4-.9,44.2a2.6,2.6,0,0,0,1.6,1.8c4.9.8,9.7,1.5,14.5,1.9,2.2.2,5.2.4,6.5-.8,3.1-2.8,5.2-6.5,4.9-11-.6-7.9-1.1-15.9-1.8-23.8-.6-5.2-.3-10.7-3.4-15.4a14.6,14.6,0,0,1,.2-3" transform="translate(-522.6 -61.9)"/>
<path id="_7" data-name="7" d="M698.7,188.6h-8.2a6.6,6.6,0,0,0-6.3,8,10.9,10.9,0,0,1,.3,2.6c-.3,11.4-.6,22.8-1,34.2-.1,2.9,1.3,5,3.3,6.9a3.3,3.3,0,0,0,2.3.7l16.8-2.8a3.5,3.5,0,0,0,3.4-3.6,93.4,93.4,0,0,0,0-24.2c-1.1-7-3.5-13.8-1.2-20.9a1.6,1.6,0,0,0-1.1-.8Z" transform="translate(-522.6 -61.9)"/>
<path id="_8" data-name="8" d="M579.4,250.3a2.7,2.7,0,0,0-2.6-3.1c-6.4-.9-12.9-1.7-19.3-2.4a2.8,2.8,0,0,0-2.1,1.3c-1,2.5-2.3,5.1-2.6,7.8-1.3,10.8-2.3,21.7-3.4,32.5-.8,8-1.5,16.1-4.2,23.8a52.9,52.9,0,0,0-1.3,5.4c-.3,1.4.2,2.2,1.6,2.3,3.7.4,7.5.7,11.1,1.3a3.8,3.8,0,0,0,4.6-2.3c1.8-4,3.6-7.9,5.1-11.9,4.8-12,6.8-24.8,9.7-37.3C577.3,261.9,578.3,256.1,579.4,250.3Z" transform="translate(-522.6 -61.9)"/>
<path id="_9" data-name="9" d="M685.4,243.7a8.2,8.2,0,0,0-.3,2.1c.4,2.6,1.2,5.2,1.3,7.8a70,70,0,0,0,5.5,23.9c4.2,9.8,8.9,19.5,13.2,29.4,2.1,4.8,4.6,9.5,4.4,14.9,0,2.8.1,2.9,2.8,1.9l12.8-5a1.8,1.8,0,0,0,1-1.3c-.7-3.7-1.1-7.5-2.3-10.9a76.5,76.5,0,0,1-4.1-23.2c-.1-7.7-.2-15.4-.7-23.1s-2.9-12.9-6.1-18.8a3.3,3.3,0,0,0-2.4-1.5c-6.1.8-12.1,1.9-18.1,3" transform="translate(-522.6 -61.9)"/>
<path id="_10" data-name="10" d="M536.7,343.9c.2,5.1.5,10.3.9,15.4a23.7,23.7,0,0,0,.9,3.6h.8l3.7-16.2h.8c0,1,0,2-.1,3-.4,4.4-.9,8.9-1.2,13.3-.1.8.6,1.5,1,2.3s1.8-1.1,2.1-1.8.7-3.9,1.1-5.8,1-5.3,1.6-8c.1-.4.7-.8,1-1.2a3.7,3.7,0,0,1,.7,1.6c-.1,1.1-.5,2.2-.6,3.3q-.6,4.3-.9,8.7c-.1.6.6,1.7,1,1.7a2.5,2.5,0,0,0,1.8-1,18.2,18.2,0,0,0,1.8-5.1c.6-2.8.9-5.7,1.4-8.5a9.4,9.4,0,0,1,.6-1.5h.6c.7,4-.6,7.9-1,11.9l.5.3c.7-.8,1.7-1.5,2-2.4,1.1-3,1.9-6.1,2.9-9.1a44.2,44.2,0,0,0,1.4-22.8,5,5,0,0,0-4.8-4.5l-12-.9a1.5,1.5,0,0,0-.9.4c-1.7,1.9-3.5,3.8-5.2,5.8a65.7,65.7,0,0,0-11.5,19.6,4.4,4.4,0,0,0-.2,2,6.8,6.8,0,0,0,1.7-.9c3.2-3.1,4.1-5.9,8.6-7.6" transform="translate(-522.6 -61.9)"/>
<path id="_11" data-name="11" d="M715.5,353l3.8,6.2,4.9,4.4c.4.5,1.1.6,1.7.9s.5-1.3.3-1.8c-.9-4.2-1.9-8.3-2.7-12.4a15.3,15.3,0,0,1-.2-3.7,2.4,2.4,0,0,1,.6-.8c.3.2.7.4.8.6l.9,3.5c1,3.9,1.8,7.9,3,11.8.3,1,1.4,1.8,2.1,2.6.3-1.1,1-2.4.9-3.5-.4-3.6-1.2-7.3-1.7-11l1.7-1.2c.8,3.5,1.6,7.1,2.6,10.7.1.4.6.6,1,1l.9-1.2c.1-.3.1-.7.2-1,.6-5.6-.4-11-1.6-16.4-.2-.8-1.3-1.4-1.9-2.1l-1.4-1.3c.7-.2,1.5-.7,2-.5a15.9,15.9,0,0,1,5.1,2.4c2.1,1.6,3.9,3.7,5.9,5.5a4.4,4.4,0,0,0,1.7.7,12.3,12.3,0,0,0-.2-1.9c-.6-1.3-1.4-2.6-1.9-4-2.6-7.1-7.3-12.7-12.6-17.8-1.8-1.7-3.7-2.5-6.3-1.4l-14.4,5.5a2.4,2.4,0,0,0-1.3,1.5c-1.4,6.9,0,13.4,3.3,19.5.9,1.8,1.9,3.5,2.8,5.2l.6-.2" transform="translate(-522.6 -61.9)"/>
<path id="_12" data-name="12" d="M579,190c.9,1.2,3,4.5,3.3,5.8a130.3,130.3,0,0,1,1.8,13.8c.7,8.7.7,17.4,3.2,25.9,1.6,5.5.8,11.1.7,16.7-.1,2.6,1.7,3.5,3.4,4.5a3.4,3.4,0,0,0,4.7-.5,19.4,19.4,0,0,0,3.2-3.2c3.8-5.7,7.5-11.4,11.1-17.2,5.9-9.6,11.4-19.3,18.7-27.9a3.2,3.2,0,0,0,1-2.1c-.1-5.1-.4-10.3-.7-15.4a2.4,2.4,0,0,0-1.6-1.3h-7.9v.4H591.3c-4.1,0-8.3-.5-12.4-.4" transform="translate(-522.6 -61.9)"/>
<path id="_13" data-name="13" d="M685,188.6H634.3c-1.6,0-2.1.5-2.1,2,0,4.4.1,8.9,0,13.4a8,8,0,0,0,3,6.9A16.4,16.4,0,0,1,638,214c5.8,8.4,11.6,16.9,17.6,25.2a153.2,153.2,0,0,0,10.2,12.7,7.8,7.8,0,0,0,8,2.6c2.7-.6,3.7-3,4.2-5.5a114.6,114.6,0,0,0,2.3-12.8c.9-9.7,1.5-19.3,2.2-29,.3-4.1,0-8.2.4-12.3C683,193,684.1,191.1,685,188.6Z" transform="translate(-522.6 -61.9)"/>
<path id="_14" data-name="14" d="M629,212.3a31.7,31.7,0,0,0-3.7,4c-5.4,8.5-10.6,17.1-16.1,25.5a146.3,146.3,0,0,1-10.8,15c-3.1,3.7-6.6,3.5-10.1.2-1-.9-1.6-.8-1.8.5-.8,7.1-1.7,14.1-2.2,21.2-.1,2-.5,4.3,1.7,6.1,7.1,5.6,14.1,11.5,21,17.3a6.4,6.4,0,0,0,4.7,1.6l16.8-.2c1.4,0,1.7-.4,1.7-1.7,0-10.7.1-21.5,0-32.2-.1-17.2-.3-34.5-.5-51.8C629.6,216.2,629.3,214.5,629,212.3Z" transform="translate(-522.6 -61.9)"/>
<path id="_15" data-name="15" d="M632.2,210.9v2.6c.1,5.5.2,10.9.2,16.3v72c0,1.3.4,1.7,1.7,1.7h17.6a2.2,2.2,0,0,0,1.6-.5l26.6-21.5a2.9,2.9,0,0,0,1.1-1.6c.3-4.1,1-8.2.7-12.2s-1.8-7.7-2.8-11.5c-.3-1.1-1.3-1.3-2.3-.7-5,3.1-8.9,2-12.7-2.2a182.2,182.2,0,0,1-12.1-15.4c-5.8-8-11.3-16.3-16.9-24.4A23.7,23.7,0,0,0,632.2,210.9Z" transform="translate(-522.6 -61.9)"/>
<path id="_16" data-name="16" d="M628.2,327h3.9l6.8-7.2c3.3-3.8,6.4-7.6,9.6-11.5.7-.9.5-1.3-.7-1.3-4.2-.2-8.4-.4-12.5-.4-7.2-.1-14.4,0-21.6.1h-1.3l.4.8,8.1,10.4" transform="translate(-522.6 -61.9)"/>
<path id="_17" data-name="17" d="M583.5,285.6c-.5,2-1.1,3.8-1.5,5.5-2.9,13.3-3.5,26.7-3.2,40.3a230.4,230.4,0,0,0,4.2,39c3.4,19,7.5,37.9,9.4,57.2.1.3.6.8.9.8a43.6,43.6,0,0,0,5.1.3l20.5.7c1.7,0,2.4-.8,2.4-2.4.3-11.3.3-22.6.9-33.9a125.2,125.2,0,0,1,2.2-18.3c2.1-11.1,4.3-22.1,3.7-33.5-.5-7.9-2.8-15.2-7.8-21.3-7.3-8.8-14.6-17.6-24.6-23.7-3.7-2.2-6.5-5.7-9.7-8.6A30.4,30.4,0,0,0,583.5,285.6Z" transform="translate(-522.6 -61.9)"/>
<path id="_18" data-name="18" d="M673.7,396.2c4.9-12.7,7.7-25.9,9.7-39.3,1.4-9.4,1.9-19.1,2.8-28.6a196,196,0,0,0,.9-31.6c-.3-4-.7-8-2.8-11.6s-2.1-2.5-4.2-.9l-9.7,7.7c-5.4,4.3-11.3,8.2-16.1,13.1s-11.5,13.2-17.4,19.7a17.6,17.6,0,0,0-4.8,13.3c.6,8.8,1,17.6,1.6,26.4s1.4,16.3,2,24.4,1.4,17.1,2,25.7c.3,4.3.5,8.6,1,12.9a2.3,2.3,0,0,0,1.5,1.5l24.8.4a9.1,9.1,0,0,0,3.3-.5c.6-.2,1.5-.9,1.5-1.4.4-4.5.7-9,.8-13.6" transform="translate(-522.6 -61.9)"/>
<path id="_19" data-name="19" d="M601.8,431v.2h-8.6c-.6.1-1.6.8-1.6,1.3-1,8.9-2.5,17.9-2.8,26.8-.5,15,3,29.5,5.9,44,2.3,11.5,6.7,22.6,5,34.6-.4,2.5,1.1,3.6,4.1,3.6l12.2-.2c3.8-.1,4.1-.4,2.7-4a35.7,35.7,0,0,1-2.3-14.4,186.4,186.4,0,0,1,5.7-39.3c2.6-10.2,3.7-20.2.7-30.5-1.9-6.6-4.2-13.3-1.9-20.4.1-.2-.8-.9-1.2-.9Z" transform="translate(-522.6 -61.9)"/>
<path id="_20" data-name="20" d="M654.2,431.7H640.9c-1.4,0-1.8.3-1.4,1.8a66.6,66.6,0,0,1,1.1,7.8c.3,5-.8,10-1.5,14.9a115.9,115.9,0,0,0-.5,20.4c.3,5.7,1.8,11.3,2.5,17,1,8.5,1.8,17.1,2.5,25.6a85.8,85.8,0,0,1,.2,13.4,89.7,89.7,0,0,1-2.1,11.3c-.3,1.4.3,1.8,1.6,1.8l19.2-.2c1.3,0,1.6-.4,1.2-1.6-.8-3.1-1.9-6.2-1.3-9.6,1.4-7.8,2.5-15.6,3.9-23.3,1.8-10.6,4.1-21.1,5.7-31.7a95.2,95.2,0,0,0-.1-30.6c-.8-5.2-1.8-10.3-2.5-15.5-.2-1.2-.5-1.5-1.6-1.5Z" transform="translate(-522.6 -61.9)"/>
<path id="_21" data-name="21" d="M570.4,577.4c.5.5.8,1.2,1.4,1.5a15.7,15.7,0,0,0,11.1.8,50,50,0,0,1,7.6-1.2c4-.5,7.7-1.7,10.6-4.8a41,41,0,0,1,6-5.8c4-2.7,8.1-5.1,12.3-7.6,1.7-1,2.8-2.3,2.4-4.5s-1.1-7.5-1.8-11.3c0-.3-.8-.7-1.2-.7H602.5a1.8,1.8,0,0,0-1.3.4c-3.1,3-6.2,5.9-9,9.2s-7.5,7.9-13.3,9.1c-1.7.4-3.2,1.2-3.2,3.5a4,4,0,0,1-1.2,2.3c-.8,1-1.8,1.8-2.6,2.8a6.8,6.8,0,0,0-.9,1.7" transform="translate(-522.6 -61.9)"/>
<path id="_22" data-name="22" d="M682.2,566.9A12.3,12.3,0,0,0,680,564c-2.8-2.5-6.3-4.4-8.2-7.4a35.7,35.7,0,0,0-5.6-7.2,3.6,3.6,0,0,0-2-.8c-5.4,0-10.8-.1-16.2,0s-5-1.2-6.1,5.2c-.8,4.5-.3,8.6,4,11.3a17.3,17.3,0,0,1,6.6,7.1c1.1,2.2,3,3.4,5.3,4.3l8.8,3.4a4.3,4.3,0,0,0,4.5-.4l1.7-1.1c.8-.5,1.2-.6,1.4.6s1,1.3,1.5,1.3,3.6,0,4.2-2a9.9,9.9,0,0,0,2.4.1,3.7,3.7,0,0,0,1.7-1.6l1.7-2.7a11.7,11.7,0,0,0,1.5-3.2c.2-.4-.7-1.3-1-1.6s-1-.5-1.9-.8" transform="translate(-522.6 -61.9)"/>
</g>
</svg>