<svg id="Layer_1" data-name="Layer 1" xmlns="http://www.w3.org/2000/svg" viewBox="0 0 131.8 339"><title>body_back</title><path d="M657.3,301.1" transform="translate(-430.6 -221)"/><path d="M656,301.7" transform="translate(-430.6 -221)"/><path d="M562.2,410.3c-.3-1.3-.9-2.5-1.3-3.7-1.4-5.3-3.5-10.1-7.6-13.5a3.5,3.5,0,0,1-.9-1.6,63.4,63.4,0,0,1-1.6-20.4,69.7,69.7,0,0,0,.4-7.9c0-8-2-15.5-3.7-23.1a20.1,20.1,0,0,1-.2-4.9c.1-4.7.4-9.4.4-14.1s-.7-6.4-.7-9.6,1-4.6.9-6.9a104.3,104.3,0,0,0-1.1-11.1c-1.3-8.5-5.4-14-13.2-15.8a9.9,9.9,0,0,1-3.3-1.5l-10.6-6c-4-2.3-5.2-4.6-5-9.5a3.1,3.1,0,0,1,1.8-3,8.6,8.6,0,0,0,2.7-3.2,46,46,0,0,0,1.9-5.2,5.6,5.6,0,0,0-1.2-6.3,3.4,3.4,0,0,1-1-3c.4-10.6-3.9-16-11.9-18.3-6.1-1.7-12.4-.5-18.2,2.9s-7.1,7.8-6.9,13.9c.1,2.2.4,4.2-1.1,6.2a5.9,5.9,0,0,0-.2,4.7,27.2,27.2,0,0,0,4.1,7.5c3.5,4.1,2.8,10-1.7,12.5-2.8,1.6-5.9,2.8-8.6,4.6a48.9,48.9,0,0,1-10.7,5.4c-3.7,1.2-7.3,3.5-8.9,7.8a54,54,0,0,0-3,19.2c.1,5.4.5,10.8.8,16.2s-.5,11.7-2.6,17.2a50.7,50.7,0,0,0-3.1,11.4c-1.1,8.3-1.6,16.7-2.4,25.1-.5,5-.8,10.2-3.6,14.5s-5.4,7.3-7.7,11.3a27.2,27.2,0,0,0-2.5,7.6,4,4,0,0,0,1.1,2.8c.4.3,1.5.1,2.2-.2,2.3-1.4,2.3-1.4,2.5,1.6a9.3,9.3,0,0,1,.2,2.3c-.3,3.8,1,6.6,4.4,7.6a14.9,14.9,0,0,0,4.2-.1c4.3-.5,6.5-2.8,7.7-7.5a12.7,12.7,0,0,1,.6-1.8c2.4-5.7,4.2-11.4,3.1-17.9a17.5,17.5,0,0,1,.5-7.2c1.7-6.6,3.7-13.1,5.6-19.6,2.5-8.5,5.3-16.9,5.8-26a7.3,7.3,0,0,1,.7-1.9c.3.7,1,1.4.9,2.1-.4,3.2-.9,6.5-1.5,9.7s-1.7,9.3-2.6,13.9c-.4,2.2-.6,4.4-1.2,6.5-1.7,6-3,12.1-1.9,18.6a56.9,56.9,0,0,1,.4,7.2c-.1,11.5.8,22.8,3.7,33.8,1.8,6.6,3.7,13.2,2.6,20.4-.5,3,.1,6.4.7,9.5a39.7,39.7,0,0,1,.2,16.1,45.6,45.6,0,0,0,.5,18.4c1.4,6,2.9,12,4.1,18s2.7,12.3,3,18.6c.2,8.2-.6,9.9-8.1,13.4a26.4,26.4,0,0,0-2.9,1.5c-1.6,1.2-1.6,2.3.2,3.1a58,58,0,0,0,6.9,2.7c1.6.6,3.5.8,4.8,1.9,3.1,2.5,6.5,3,10.1,2.7,5.9-.4,7.8-3.2,6.6-9.6-.1-.8-.5-1.6-.7-2.5a13.3,13.3,0,0,1-.3-2.8c-.1-3.4.1-6.9-.3-10.2a74.8,74.8,0,0,1,1-26.3c2.4-10.6,4.4-21.2,2.2-32.2-.6-3.1-1.1-6.3-.2-9.7a43.7,43.7,0,0,0,1.3-10.8c-.3-9.6-1.5-19.2,0-28.8.1-.6.3-1.2.4-1.8s1,1.1,1.1,1.7c.8,7.1,2,14.2,2.2,21.3.3,8.6-.2,17.1,3.1,25.1.5,1.1,0,2.8-.4,4.1-2.4,7.8-3.6,15.6-.6,23.6a12.7,12.7,0,0,1,.6,3.9c.2,4.2.3,8.4.5,12.6.5,6.9,1.9,13.8-1.1,20.5a3.7,3.7,0,0,0-.2,2.3,19.5,19.5,0,0,1-1.2,10.4,3.8,3.8,0,0,0,1.5,4.8c3,2.1,6.1,3.1,9.6,1.5a18.5,18.5,0,0,1,11.1-1.5c1.3.3,2.7-.2,4.1-.5a14.8,14.8,0,0,0,3.6-1c1-.4,2.4-1.1,2.5-1.8a4.3,4.3,0,0,0-1.4-3.2c-3.4-2.7-7-5.1-10.6-7.6a4.3,4.3,0,0,1-1.8-3.4,27.7,27.7,0,0,1,.2-9.1c1.4-7,2.6-14.1,4.2-21a82.5,82.5,0,0,0,2.5-25.2c-.7-10.2-2-20.4-1.2-30.7a33.1,33.1,0,0,1,.8-5.5c2-8.2,4.2-16.4,5.8-24.7A60.4,60.4,0,0,0,535,409c0-9.6-.3-19.2-.4-28.8a3.6,3.6,0,0,1,.4-1.1c.4.2,1,.4,1.1.7.8,4.9,3.9,9.5,1.3,14.7a11.5,11.5,0,0,0-.3,2.6c-1.1,7.8,1.4,14.8,4.2,21.4,1.4,3.1,3.8,6.7,8.1,6.8s5.8-1.8,6.1-5.3c.1-1.2.2-2.4.2-3.6l.3-4.2a20.9,20.9,0,0,0,3.5,1.3,3.6,3.6,0,0,0,2.7-.5C562.6,412.7,562.4,411.2,562.2,410.3Zm-15.3-79.2a4.4,4.4,0,0,1-2.5,4.4c-4.1,2.1-8,4.5-12,6.7-2.3,1.2-2.8.9-2.5-2,.5-5.9,1.1-11.9,1.9-17.8s1.7-9.7,2.5-14.6a2.7,2.7,0,0,0,0-.9c-.3.3-.7.5-.8.7-.8,4.3-1.8,8.6-2.4,13-1,7.1-1.8,14.2-2.5,21.4-.1,1.8-.7,2.4-2.3,2.3-5.6-.3-10.8-1.7-15.4-5.5-3-2.5-6.1-4.9-9.1-7.5a4.1,4.1,0,0,1-.9-2.8c-.1-6.1,0-12.2,0-18.3h.1c0-5.8.1-11.7,0-17.6-.1-2.6.6-3,2.9-2.7,7.7,1.1,14.9,3.2,20.7,9.6a19.7,19.7,0,0,0,18.3,6.6c1.4-.2,2.2,0,2.3,2,.3,5.3.9,10.5,1.3,15.8C546.7,326.3,546.8,328.7,546.9,331.1Zm-46.1,19.7h.2V334.9c-.1-2.1.5-2.4,2-1.1s3.6,3,5.4,4.6c5.1,4.5,10.7,7.2,17.3,7,2.1,0,3,.8,3.3,3.3,1.2,8,2.7,15.9,4,23.8a4.8,4.8,0,0,1,0,1.2c-.2-.2-.5-.3-.6-.6-2.9-7.2-8.8-8.1-14.7-8.5s-10.9.3-15.7,4a1.4,1.4,0,0,1-1.1-.5,4.7,4.7,0,0,1-.1-1.7ZM531,278.9c7.3.3,12.6,5.5,14.2,13.5.7,3.4,1.4,6.9.3,10.5-.4,1.2-.8,1.8-1.9,1.9-5.9.7-11.5,0-16.3-4.5l-.9-.9a30.8,30.8,0,0,0-11.3-8.1h0l.5-2.2.5-2.4.5-1.3.5-1.4.4-.5.4-.3h-.8l-.8.9-.5,2-.6,2.7-.7,1.8-.5.2a45,45,0,0,0-9.8-2.2c-3.2-.4-3.2-.5-3.2-4.1.1-6,.1-6,5.6-6h9.2Zm-25.5-55.6c7.4,1.2,12.4,8.6,11.4,17a18.8,18.8,0,0,1-.5,3.3c-.2,1-.4,1.7,1.1,1.3s1.5.8,1.6,1.4c.5,3.4-.9,6.3-2.5,8.9-.2.3-.9.7-1,.6-2.3-2.2-2.4,1-3.6,1.7a11.4,11.4,0,0,1-4.7,1.6c-5.4.8-5.5.7-5.7-5.2-.3-8.6-.6-17.3-.9-27.1C500.6,222.6,500.6,222.6,505.5,223.3Zm-19.4,31.8c-1.7-2.6-3.8-4.9-3.8-8.4,0-.5.1-1.4.4-1.4s1,.2,1.5.3l1.1.6c-.1-.4-.1-.9-.2-1.3a52.5,52.5,0,0,1-1.3-5.7c-.6-8,3.7-11.9,9.1-14.4s6.5-2.6,6.7,4.7l.9,12.3c0,5-.1,9.9,0,14.9,0,2.2-.6,3.1-2.6,2.6s-4.7-1.2-7.1-2c-.6-.2-1.5-.7-1.6-1.3s-.9-2.2-2.1-.7S486.2,255.4,486.1,255.1Zm-34.6,158a9.3,9.3,0,0,1-1.2,2.7l-1.4,1.8a22.6,22.6,0,0,1,0-2.6c.2-1.3.6-2.6.8-3.9s-.2-.7-.3-1.1-.6.6-.6,1c-.6,2.4-.9,4.8-1.5,7.1a7.8,7.8,0,0,1-1.6,2.1,20.5,20.5,0,0,1-.5-2.4c.2-2.3.5-4.6.7-6.9a2,2,0,0,0-.2-1.1c-.2.3-.6.5-.7.8s-.4,2.2-.5,3.3-.2,2.9-.5,4.2a8.4,8.4,0,0,1-1.5,2.6,8.7,8.7,0,0,1-.7-3.1c.2-2.9.8-5.7,1.2-8.5a7,7,0,0,0-.3-1.4c-.4.3-.9.6-1,1s-.1,3.1-.3,4.6-.6,3.5-1,5.2-.5.5-.8.8-.5-.7-.5-1.1.1-3.9-.1-5.9-.4-5-.6-7.6a5.4,5.4,0,0,0-.5-1.1,2.7,2.7,0,0,0-.8.7c-.3.4-.5,1-.9,1.3s-1.8,1.4-2.6,2.1a10.8,10.8,0,0,1,1.1-3.6c2.6-4,5.4-7.8,8.1-11.8a8.6,8.6,0,0,0,.7-1c.7-1.1,1.2-2.8,2.1-3.2s2.3.5,3.4.9c5.5,1.6,5.5,1.6,5.1,8.1a8.2,8.2,0,0,1-.1,1C455.2,403.1,453,408,451.5,413.1Zm15.9-70.8a117.5,117.5,0,0,1-7.1,28.9,148.5,148.5,0,0,0-4.7,15.7c-.5,2-1.3,2.5-3,1.8a23.5,23.5,0,0,0-4.5-1.4c-2-.5-3.2-1.4-2.6-3.1.8-9.9,1.1-19.1,2.3-28.2.8-6.1,2.8-12.1,4.3-18.2.4-1.8,1.3-2.3,3.1-1.7l10.3,3.1C467.1,339.6,467.7,340.2,467.4,342.3Zm26.5,207.1c2,5.7-.4,9.3-6.2,9.6l-6.3-2.5-7-2.7c-.7-.3-1.5-.3-2.2-.6a20.7,20.7,0,0,1-3.5-2.2c1-.6,2.2-1.1,3.2-1.8s4.5-3.9,6.8-5.7a3.5,3.5,0,0,1,2.2-1.2c2.9,0,5.9.3,8.9.3a2.2,2.2,0,0,1,2.5,2.1C492.7,546.3,493.4,547.8,493.9,549.4Zm.4-46.6a128.7,128.7,0,0,0-1.9,27.7,53,53,0,0,0,1,8c.3,1.9.1,1.1-1.4,2s-4.5.2-6.7.7h-.8c-4.6-.1-4.4-.1-4.6-5.3a121.8,121.8,0,0,0-1.4-13.4c-.5-3.3-1.5-6.5-1.5-9.8,0-6.6-3.8-12.1-3.9-18.5s.3-9.9.6-14.8c.2-3,.9-5.9.8-8.9s.5-2.4,2.1-2.3h14.9c.6.1,1.7.8,1.8,1.3.9,5.3,1.4,10.7,2.5,16S495.3,497.1,494.3,502.8Zm2.3-77.2c-1.1,8.1-1.9,16.2-.7,24.4.7,4.9-.1,9.7-.9,14.5-.2,1.6-.8,2.2-2.3,2.2s-5.6-.1-8.4-.1H476c-1.4,0-2.2-.5-2.3-2.3-.2-4.8-.6-9.7-.9-14.5l-4.9-26.6a118.1,118.1,0,0,1-1.6-26,11.2,11.2,0,0,0-.3-3.2l.4.5,1.2.9,3.9,1.8a19.2,19.2,0,0,0,3.3.5l3.8.9a20.7,20.7,0,0,1,3,.5,18,18,0,0,0,4,1,53.4,53.4,0,0,0,8-.1,17,17,0,0,0,3.7-1l1.8-.8a6.8,6.8,0,0,1,.5,2.3C498.7,409,497.6,417.3,496.6,425.6Zm2.6-33.5a6.6,6.6,0,0,1-6.8,6.3c-3.1.2-6.1.1-9.2.1h0l-4-.9-4-.8h-2.3l-1.1-.6-1.8-.4h-1.2l-.9-.6h-.2l-1-.6-.8-1.1a18.6,18.6,0,0,1-.6-2.9c.3-5.6.2-11,1.9-16.3a11.3,11.3,0,0,1,6.2-7.1c7.1-3.2,14.2-2.9,21.3-.1a6.6,6.6,0,0,1,4.2,5.1A71.9,71.9,0,0,1,499.2,392.1Zm-.6-24c-6.4-5.1-13.5-5.6-20.8-3.9-2.9.6-5.7,2.4-8.4,4-1.2.7-1.4.4-1.2-.8.3-2.9.6-5.9,1.1-8.8s1.8-7.4,2.6-11.2c.3-1.3.7-1.9,1.9-1.8,9.2.4,16.8-4.1,23.8-10.1a9.8,9.8,0,0,1,1.8-.8,15.2,15.2,0,0,1,.3,2.1c.1,5,.1,10,.1,15h-.1v15.3C499.7,367.6,500.2,369.4,498.6,368.1Zm1.2-56.8h0c0,6.2,0,12.4-.1,18.6a4.3,4.3,0,0,1-1.1,3.1,139,139,0,0,1-12,8.6c-3.9,2.4-8.4,2.6-12.8,2.7-1.4.1-1.8-.4-1.9-2-.3-3.3-1-6.5-1.5-9.8-.7-5.2-1.3-10.4-2.1-15.7-.3-2.2-.7-4.5-1.2-6.8a5,5,0,0,0-.8-1.4c0,.5.2,1,.2,1.5.4,4.3.9,8.5,1.3,12.8s.5,5.5.7,8.3a40.1,40.1,0,0,1,.1,4.9c-.1,1.7-.6,2.6-2.4,2a101,101,0,0,0-10.7-3.2c-1.7-.5-2.1-1.6-2.1-3.3q.5-7.7.6-15.3a60.4,60.4,0,0,0-.3-8.5c-.2-1.6-.2-2.4,1.4-2l1.2.2c8,1.5,15-.8,20.8-7.1s13.5-7.5,21.1-8.8c1.5-.2,1.6.7,1.6,2Zm-.4-23.4c-1,1.4-3.7,1.3-5.7,1.8l-.9.2c-3.8.7-3.8.7-5-3.5a1.4,1.4,0,0,0-.2-.6l-1.8-3.2c.3,1.1.6,2.2,1,3.3a10.6,10.6,0,0,1,.6,1.9c.4,1.9.3,3-1.8,4.1a68.7,68.7,0,0,0-11,7.8c-3.2,2.5-6.4,4.9-10.4,5.2a70,70,0,0,1-9.2-.5c-.6,0-1.5-1.3-1.4-1.8,1-5.2,1.7-10.5,3.4-15.4s5.5-5.1,8.9-6.6c6.1-2.8,12.5-1.4,19.9-2h11.7c1.7,0,2.6.5,2.4,2.6S500.5,286.5,499.4,287.9ZM476,277.5a12.9,12.9,0,0,1-1.9-.4,10.3,10.3,0,0,1,1.4-1.5l8.4-4.2c4.4-2.1,5.2-3.4,5.1-8.8a19.3,19.3,0,0,0-.1-2.4c0-1.4.2-2.2,1.9-1.5,6.8,3.1,13.8,2.4,20.8.8,1.2-.3,1.6-.4,1.5,1.1-.6,6.3,2.4,9.6,7.4,11.5a43.7,43.7,0,0,1,5.7,2.9,13.6,13.6,0,0,1,1.7,1.7,16,16,0,0,1-2.1.5l-24.8.3Zm49.6,266.7c2.6,1.9,5,3.9,7.5,5.9a5.4,5.4,0,0,1,.9,1.2c-.5.3-.9.9-1.4,1-4,.7-7.9,2.1-12.1,1.4-2-.4-4.3.9-6.3,1.7a9.1,9.1,0,0,1-8.3-.9,2.9,2.9,0,0,1-1.3-3.9c.9-2.3,1.8-4.6,2.9-6.9a2.6,2.6,0,0,1,1.8-1.2c1.6-.1,3.3,0,5,0l7.1-.4A11.1,11.1,0,0,1,525.6,544.2Zm-1.4-35.3c-1.6,6.8-3.1,13.7-4.3,20.6a56.1,56.1,0,0,0-.6,9.2c-.1,1.3-.4,2.1-1.7,2.1h-8.1l-3.4-.2a14.5,14.5,0,0,1,.5-3,46.1,46.1,0,0,0,.9-19.2,91.2,91.2,0,0,1-.5-10.5l.9-30.7c.1-1.7.3-3.2-.3-4.6s-.4-1-.6-1.5c-1.1-3.3-1-3.6,2.2-3.6h13.6c1.4,0,2,.2,2.4,2A93.5,93.5,0,0,1,524.2,508.9Zm5.8-75.2-4.9,20.4c.2,1.9.1,3.9.2,5.9.1,4-1.5,6-4.9,6s-8-.2-11.9,0c-2.4.1-3.3-1-3.5-3.3l-.3-9.3c-.5-7.8-.4-15.8-1.7-23.5-1.6-9.9-1.9-19.9-2.3-29.9-.1-1.3-.3-2.8,1.6-1.5,4.1,2.6,12.1,1.6,15.3,1.1a13.4,13.4,0,0,0,4.3-.6l2.9-.6,1.7-.5,1.3-.4a4.1,4.1,0,0,0,1.9-.8l1.8-1.2a3.9,3.9,0,0,0,1.3-1.1h0v3A105.9,105.9,0,0,1,530,433.7Zm2.8-40.2h0l-1.1.5-1,1-1.6.9-1.9,1-2.5.8-2.3.5a18.7,18.7,0,0,0-2.5.4l-1.5.3H518a89.1,89.1,0,0,1-10.3-.7c-4.9-.9-6.6-3.3-6.7-8.9s-.2-8.8-.1-13.2,1.6-7.3,5.9-8.7a26.6,26.6,0,0,1,17.6-.3c3.3,1.2,5.3,3.5,7.2,6.9C535.2,380.4,533.3,386.9,532.8,393.5Zm3.2-19.8c-2.2-7.5-4.1-15-3-23.1.1-.3-.4-.8-.6-1.2s-1.4-2.2-1.6-3.4.9-1.9,1.6-2.3c4.1-2.3,8.2-4.3,12.3-6.5,2.7,4.2,2.9,9.2,4,13.9,1.5,6.7,1.2,13.6.9,20.4a146.4,146.4,0,0,0,.8,16.2c.1,1.7.1,2.5-1.5,2.8s-4.7,1.1-7,1.5a1.6,1.6,0,0,1-1.4-.8C539,385.4,537.7,379.5,536,373.7Zm24.4,38c-.7-.3-1.5-.3-1.9-.7s-2.1-3.4-3.2-5.1-.7-.6-1.1-.9a7.7,7.7,0,0,0-.2,1.5c-.1,4.3,0,8.7-.4,12.9-.2,1.6-1.8,3.8-3,4.1s-4.3,1-4.9-2.5a1.6,1.6,0,0,0-.3-.9h0l-.7-1.5-.3-.9-.5-1.1-.3-1.1-.3-1.7a4.3,4.3,0,0,0,0-1.6l-.7-.9c-.1.4-.3.9-.1,1.2s.1,1,.4,1.5l.5,2.2.6,1.5.3,1c-.1,1.8-1,1.3-1.5.3a19.9,19.9,0,0,1-1.5-4.3,59.3,59.3,0,0,1-2.4-9.2,44.1,44.1,0,0,1,0-8.9,3.7,3.7,0,0,1,3.5-3.4c1.1-.1,2.1-.5,3.2-.7s3.9-1.6,5.1-.8,3.2,3.7,4.7,5.7c2.6,3.6,3.9,7.9,5.1,12.2A7.6,7.6,0,0,1,560.4,411.7Z" transform="translate(-430.6 -221)"/><path d="M487.7,297a3.5,3.5,0,0,0-.5.8c-.5,2.2-1.1,4.4-1.7,6.6s-1.2,3.1-1.7,4.7-.5,1-1.2,1.3-1,.4-1.5.3-3.5-1.9-4.1-4.7a2.7,2.7,0,0,0-.3-1.2l-.7-.5a4.1,4.1,0,0,0-.3.8c1.1,1.9,1.9,4.1,3.3,5.7s2.6,1.9,4,0c.7-.3.7-.9,1.1-1.6l4.6-11.1C488.8,298,487.8,297.2,487.7,297Z" transform="translate(-430.6 -221)"/><polygon points="91.4 89.4 90.8 90.3 90 90.7 89 90.7 88.2 90.1 87.6 89 86.8 86.8 85.3 82.1 84.6 79.3 84.2 77.2 84.1 76.3 83.7 77.5 84.3 80 85 83.2 86 85.6 87.1 89.4 88 90.5 89.4 91.2 90.9 90.9 92.3 89 92.8 88.4 92.8 87.8 92.2 88 91.4 89.4"/><polygon points="116.5 194.3 116.1 192.7 115.8 191.7 115.6 190.8 115.3 190.2 115.6 191.8 115.6 192.2 116.1 194.5 116.7 196.3 117.1 198 117.5 200 117.7 200.5 117.9 199.8 117.1 196.4 116.5 194.3"/><path d="M550.7,416.2l-.6-3-.4-1.8-.2-.6-.3.7.3,1.1.4,2.2s.2,1.7.2,1.8a7.4,7.4,0,0,1,.4,1.4,6.9,6.9,0,0,0,.2,1.3l.4,1,.3-.2-.2-1.2Z" transform="translate(-430.6 -221)"/></svg>