<svg xmlns="http://www.w3.org/2000/svg" xmlns:xlink="http://www.w3.org/1999/xlink" viewBox="0 0 60 60" height="50" width = "50"><defs><style>.cls-1,.cls-3,.cls-5{fill:none;}.cls-2{clip-path:url(#clip-path);}.cls-3,.cls-5{stroke:#9e005d;}.cls-3{stroke-linecap:round;stroke-linejoin:round;stroke-width:0.5px;}.cls-4{clip-path:url(#clip-path-2);}.cls-5{stroke-miterlimit:10;}</style><clipPath id="clip-path" transform="translate(-0.4 -0.5)"><path class="cls-1" d="M54.2,54.6h-.1a.3.3,0,0,1-.1.2h-.4c-.1-.1-.2-.2.4-1.6-.2.2-.3.4-.5.5s-1.1,1.4-1.4,1.4-.2,0-.2-.1-.3-.2.2-1.2c-.9,1-1,1-1.1,1h-.2a.2.2,0,0,1,0-.3l2.1-2.8-2.6,2.6h-.4c-.1-.2-.2-.3,1-2L49,54.1a.2.2,0,0,1-.3,0,.4.4,0,0,1-.1-.3l2.3-3-3.4,3.4h-.4a.2.2,0,0,1,0-.3l7-8.3a34.3,34.3,0,0,0-4.2,4.7c-2.2,2.7-3.2,3.8-3.7,3.9h-.3c-.1-.1-.1-.2-.1-.4a1.1,1.1,0,0,1,.1-.5l-2,1.8a.3.3,0,0,1-.4,0,.2.2,0,0,1,0-.3c1.4-1.5,3.6-3.9,5.7-6l-5.8,5.4h0c-.5.5-.6.5-.7.5h-.1c-.1-.1-.1-.1-.1-.2s0-.1.1-.2l.5-.5,3-3.1c3.7-4,5.7-6,6.8-7a3.1,3.1,0,0,0,.5-1.1v-.2a2.6,2.6,0,0,0-1.2.7l-4,4-1.9,2c-1.6,1.8-3.4,3.8-5.1,5.9h-.4c-.3-.3.1-1.1,2.6-3.7l-2.9,2.9c0,.1-.2.1-.3,0a.2.2,0,0,1,0-.3l7.1-7.9-1.7,1.7a32.2,32.2,0,0,1-6.2,6.2l-.5.6a.3.3,0,0,1-.4,0H38a.6.6,0,0,1-.7-.2.8.8,0,0,1-.2-.5,2.4,2.4,0,0,1,.4-1.2l-.3.4L36,54.4h-.3c-.2-.2-.3-.3,1.1-1.8s6.8-8.3,10.8-12.4l-1.1,1-.2.2c-2.8,3.2-5.9,6.6-8.6,9.2l-1.9,2.3c-1.6,1.9-1.6,2-1.8,2h-.1a.9.9,0,0,1-.3-.6h0l-.5.3-.5.6h-.9a.8.8,0,0,1-.7-.2.3.3,0,0,1-.1-.2c0-.1.1-.1.1-.2,2.2-1.8,4.8-4.1,7.6-6.6l4.3-4.5c3.3-3.4,7.2-7.4,9.4-9.8a4.6,4.6,0,0,0,.7-.7,3.5,3.5,0,0,0,.6-1.6.4.4,0,0,0-.1-.3c-.5.1-2.5,1.9-5.1,4.5-6.7,8.3-16.7,20.1-20.9,20.4a1.5,1.5,0,0,1-1.3-.4v-.2c0-.1,0-.1.1-.2l.3-.3a.9.9,0,0,1-.7-.3c-.1-.1-.1-.2-.1-.4a1.9,1.9,0,0,1,.5-1.2l-2.3,2.4h-.3a1.6,1.6,0,0,1-.4-.7,4.3,4.3,0,0,1-1.4.4,2,2,0,0,1-1.1-.2,3.7,3.7,0,0,1-1.9.8,1.6,1.6,0,0,1-.9-.3c-.1-.2-.2-.3-.2-.4h-.3l-1.1.3a2.7,2.7,0,0,1-1.4.4,1.3,1.3,0,0,1-1.2-.4.3.3,0,0,1-.1-.2h-.3a.8.8,0,0,1-.6-.2c-.2-.2-.3-.3,2.9-3.7l.5-.8-5,5a.2.2,0,0,1-.3,0,.3.3,0,0,1,0-.4L13,52.6l-1.5,1.1c-.9.9-1.4,1.3-1.6,1.3H9.6v-.2a6.2,6.2,0,0,1-2.6.9,2.4,2.4,0,0,1-1.7-.6.3.3,0,0,1,0-.4l.5-.6-.5.2a.6.6,0,0,1-.5-.2h0a6.7,6.7,0,0,1-1.8.8H3c-.1,0-.2.1-.3,0H2.6a1.3,1.3,0,0,1-1.1-.3,1.6,1.6,0,0,1-.3-.9H1.1L.3,53c-.1,0-.1-.1-.1-.2H.3c0-.1.1-.1.2-.2a6.8,6.8,0,0,1-.2-1.4,6.6,6.6,0,0,1,.6-2.2,2.3,2.3,0,0,1-.4-1.4,1.3,1.3,0,0,1,.1-.6c-.1-.1-.1-.2-.1-.4a1.1,1.1,0,0,1,.2-.7H.5a.3.3,0,0,1-.1-.2c0-.2.1-.4,1.6-1.8a13.6,13.6,0,0,1,1.2-1.7L1.9,43.2H1.6a.2.2,0,0,1,0-.3L4.7,39,1.4,42.4a.3.3,0,0,1-.4,0c0-.1-.1-.2-.1-.4s2.2-2.7,6.3-6.2l1-1,2.5-3L7.1,34.9c-3.4,3.5-5.7,6-6,6.4H1c0,.1-.1.1-.2.1H.6s-.1-.1,0-.3h0l1.2-1.5a2.9,2.9,0,0,1-1,.6H.6c-.1-.1-.1-.1-.1-.2v-.2l2.8-2.3c.9-1.1,1.9-2.5,3.1-3.9-2.4,2.3-4.1,3.9-4.7,4.3H1.5a.6.6,0,0,1-.1-.4L12.5,25.9c2.4-3,5.1-6.2,7.7-9.2-1.7,1.8-3.6,3.6-5.4,5.4l-2.9,3C5.6,32.9,2.3,37,1.1,37.1l-.3-.2c-.1,0-.1-.1-.1-.2a4.6,4.6,0,0,1,1.3-2c-.6.7-.7.7-.8.7s-.2,0-.2-.1A1.5,1.5,0,0,1,.5,34a9.3,9.3,0,0,1,1.7-3.8l-.5.5a.3.3,0,0,1-.4,0s-.1-.2,0-.3L4,27,1.3,29.7a.2.2,0,0,1-.3,0,1.5,1.5,0,0,1-.4-1.1,3.7,3.7,0,0,1,.5-1.5C1,27,.9,27,.9,26.9H.8a.3.3,0,0,1,.1-.2l.9-.7a34.3,34.3,0,0,1,3.9-4.8l-.7.5C2.5,24.2.8,25.9.8,26h0a.3.3,0,0,1-.4,0,.2.2,0,0,1,0-.3l1.8-2.4H1.7l-1,1.2H.4a1.2,1.2,0,0,1-.4-1,5.3,5.3,0,0,1,.9-2.2H.8V21l1.9-1.8a71.8,71.8,0,0,1,5.5-5.3c5.2-5.2,9.5-9.8,10.7-11.7L17.5,3.6C13.3,8.8,2.4,18.8.9,20.2a.2.2,0,0,1-.3,0,.3.3,0,0,1,0-.4L17.2,3.2A5.1,5.1,0,0,0,18.6.8h0c-.3-.1-1.3.7-2.8,2.1C13.2,6.2,5.6,15.9,2.3,17.2L.8,18.9H.4a1.1,1.1,0,0,1-.3-.8,2.4,2.4,0,0,1,.6-1.4v-.2a3.1,3.1,0,0,1,.5-1.3.4.4,0,0,1,.1-.3l.3-.4H1.5a.6.6,0,0,1-.7-.2c0-.1-.1-.2-.1-.3l.2-.5-.5-.2a.2.2,0,0,1,0-.3l1.4-1.7H1.6a.6.6,0,0,1-.5-.2v-.4c2.4-2,8.6-7.7,8.7-9.4,0-.2,0-.2-.1-.3H9.5a1.8,1.8,0,0,0-1,.6L4.3,6.5,2.1,9l-.3.4H1.5c-.1-.1-.2-.1-.1-.3h.1V8.8L5.1,4.4C3.7,5.9,2,7.6.8,9H.4c-.1-.1-.2-.3.9-1.8h0c-.1.1-.3,0-.4-.1s0-.5,1.4-2l.6-.6a2.6,2.6,0,0,1-1.2.8H1.4c-.1-.1-.2-.2.1-.9S.8,5,.6,5H.3c-.3-.2,0-.6,1-1.7L2.6,1.5,2.1,2c-.6.7-.6.7-.8.7H1.1V1.8H.7a.2.2,0,0,1,0-.3C1,1,1,1,1.1,1s.2,0,.2.1h.1v.7l.3-.2C2.8.5,2.9.4,3.1.4h.2c.4.4-.2,1.3-1.7,3a.1.1,0,0,1-.1.1L3.9,1h.3c.1,0,.1.2.1.3A28.1,28.1,0,0,0,1.9,4.7,25.2,25.2,0,0,0,5.2,1.1h.1c.1,0,.2,0,.2.1s.1.9-.6,1.8C6,1.6,6.1,1.4,6.3,1.4h.3a.2.2,0,0,1,0,.3c-.7.8-1.4,1.5-2,2.3l-.5.6C6.2,2.5,8.4.3,8.8.3h.3c0,.1.1.1,0,.3h.4a.8.8,0,0,1,.6.2.8.8,0,0,1,.2.6.6.6,0,0,1-.1.4L11,.9h.3c.2.1.2.2.1.3s-1.5,2-3,3.8l3.4-3.5.4-.3h.2a.3.3,0,0,1,.1.2h-.1c-.1.1-.1.2-.2.2L11,3.3C7.2,8.1,3.4,12.6,1.5,13.4a1.5,1.5,0,0,0-.3.6h.3l.7-.2A129.2,129.2,0,0,1,11.5,3.6l1.9-2.2c.1-.1.1-.1.1-.2h.4q.2,0,0,.3h0A4.1,4.1,0,0,1,15,.9c.2,0,.4.1.4.2s.1.1.1.2h-.1L10.5,5.9,9.6,7l6.7-5.8h.4A8.4,8.4,0,0,1,18.6.2a.5.5,0,0,1,.4.2c0,.1.1.2.1.4a2,2,0,0,1-.1.7l.2-.3h.3c.1.1.2.2.1.4s-1,1.9-2.6,3.8L21.1.7h.4a1.5,1.5,0,0,1,.2.8h0l.6-.3.6-.8c0-.1.1-.1.2-.1h.2c0,.1.1.2.1.3h0A2.7,2.7,0,0,1,24.6.4a1.4,1.4,0,0,1,1.1.3,2,2,0,0,1,.4.8h.2c.1.1.1.2-.1.4h0a.1.1,0,0,1-.1.1h0v.5L28,.9h.4a.2.2,0,0,1,0,.3l-.4.4,1.2-.5h.5a1.2,1.2,0,0,1,1,.4c.1,0,.1.1.1.2S30,2.9,28.6,4.5L32.8.4a.2.2,0,0,1,.3,0,.4.4,0,0,1,.2.6,5.4,5.4,0,0,1,2.5-1,1.6,1.6,0,0,1,1.4.5.3.3,0,0,1,0,.4l-.3.3A7,7,0,0,1,39.2.4,2.1,2.1,0,0,1,41,1l.3.4.5-.2.5-.5h.4a1.4,1.4,0,0,1,.2.6l.3.3.2.3L45,.8h.4A4.5,4.5,0,0,1,47.3,0l1,.2.8-.2a1.2,1.2,0,0,1,1,.4h0l.8.5a1.1,1.1,0,0,1,.3.8l.5-.5h.2A.1.1,0,0,1,52,1c.1,0,.2,0,.2.1h.1c0,.1,0,.2-.2.3L50.7,3.3c0,.1-.1.2-.2.4l.4-.2L53.6.7H54a.9.9,0,0,1,.3.7h.4a1.1,1.1,0,0,1,.3.8,4.3,4.3,0,0,1-.8,2.1h.4c.1,0,.1.2,0,.3L52,7.5v.2l.2-.2c1.1-1.1,1.8-1.7,2.1-1.7h.3v.2a.1.1,0,0,0-.1.1L52.4,7.9l-3.3,3.8,1.8-1.2,3.3-3.3h.2c.1,0,.2,0,.2.1a1.1,1.1,0,0,1,.3,1,3.4,3.4,0,0,1-.4,1.5.2.2,0,0,0,.2.2.3.3,0,0,1,0,.4l-1.3,1.3c-.5.8-1.2,1.7-1.9,2.6L53.7,12h.4c0,.1.1.2,0,.3L44,22.6c2.3-2,4.4-3.7,6.2-5.1L54,13h.4a2.5,2.5,0,0,1,.4.7l.2.2a.1.1,0,0,1,0,.2h0c-.1,0-.1.1-.2.2a5,5,0,0,1-.7,1.9.8.8,0,0,1,.2.4c0,.1-.1.2-.1.4l.3-.3a.3.3,0,0,1,.4,0,.2.2,0,0,1,0,.3L53,19.3l-.3.4.7-.5c.2,0,.3.1.3.2a.1.1,0,0,1,.1.1c0,.1,0,.2-.1.2s-1.1.9-2.8,2.4l-3,3.3,6.3-5.5c.3-.4.5-.5.6-.5H55c0,.1.1.1.1.2s-.1.1-.1.2l-.4.3-3.2,3.9,3.3-3.3a.3.3,0,1,1,.4.4L51.5,25a17.7,17.7,0,0,1,1.7-1.4q.9-.9,1.2-.9h.2V23a.1.1,0,0,1-.1.1L53,24.4c-1.6,1.5-4.4,4.2-7.7,7.6L43,34.8c5.4-5.5,10-9.9,10.6-9.9h.3v.2C48.7,30,43.6,35,39.1,39.4c-1.2,1.5-2.5,3-3.8,4.4,5-4.9,11.3-10.4,15.2-13.7l2.9-3.7h.4a.7.7,0,0,1,.2.6v.3h.2a.2.2,0,0,1,.3.3,34.4,34.4,0,0,1-2.2,2.9L54,28.6a.2.2,0,0,1,.3,0,.4.4,0,0,1,.1.3c0,.3-.4.8-1.4,1.7l.6-.2h.3a1.4,1.4,0,0,1,.2.7v.2c0-.1.1-.1.1-.2h.4c.2.2.3.3-1.5,2.2l-.2.3.7-.4h.2a.4.4,0,0,1,.1.3,1.2,1.2,0,0,1-.4.8l.4.3c.1.1.1.1-.2.6h.1a.8.8,0,0,1,.7.2c0,.1.1.1.1.3s-2,2.5-6.6,6.8-10.4,9.5-10.4,11h0c.1.1.2.2.3.1h.4v-.2c.1-2,4.9-6.4,10.7-11.5l2.3-2.1c1.8-2.2,2.3-2.7,2.6-2.8H54a.4.4,0,0,1,.1.3c0,.3-.7,1.1-2.5,2.7L50.3,42l-1,1.2,5.2-5.1c0-.1.2-.1.3,0a.2.2,0,0,1,0,.3l-7.1,7.9,6.5-6.5h.3c.3.2.2.5-1.2,2h0c.2,0,.4.1.4.2a.6.6,0,0,1,.2.5.8.8,0,0,1-.1.4h.4a.8.8,0,0,1,.2.6.3.3,0,0,1-.1.2h.6a.3.3,0,0,1,.1.2c0,.2-.2.5-.8,1.1h.3l.4.2a.2.2,0,0,1,0,.3L51,50c.9-.8,1.7-1.7,2.4-2.4h0a.3.3,0,0,1,.4,0,.2.2,0,0,1,0,.3L51.4,51l2-2a.2.2,0,0,1,.3,0,.6.6,0,0,1,.1.4c-.9,1.1-1.9,2.3-2.5,3.2L54,49.9c0-.1.2-.1.3,0s.3.3-1,2.1l.2-.3a.2.2,0,0,1,.3,0c.1.1.2.3.1.4a19.7,19.7,0,0,0-1.4,2.2l.6-.8c1-1.1,1.3-1.4,1.5-1.4h.3a.1.1,0,0,1,0,.2,8.3,8.3,0,0,0-.7,1.8h0A.3.3,0,0,1,54.2,54.6Zm-7.9-1A27,27,0,0,0,49.5,50l1-1.3a.2.2,0,0,1-.2.2l-.9,1C47.8,51.4,46.3,53.1,46.3,53.6Zm4.3-5.7L49.5,49Zm.6-1.3,2.3-2.2a3.1,3.1,0,0,0,.4-.9h0l-.6.5a30.7,30.7,0,0,1-3.2,3.8ZM39.1,53.5l6.2-6.2,3.9-4.7C45,46.3,38.9,51.7,38.7,53.7Zm5.5-8.4,3-2.8c2.9-2.7,6.2-5.7,6.4-6.4h-.2a.7.7,0,0,0-.6.2l-8.1,8.5C44.9,44.7,44.8,44.9,44.6,45.1Zm4.2-5.4c-2,2-4.3,4.6-6.5,7.1.7-.8,1.6-1.6,2.4-2.6,2.4-2.4,4.9-5,6.6-6.9Zm2.8-3.2,1.2-.8.6-.7h-.3ZM34.3,53.6a1.7,1.7,0,0,0-.2.5,6.9,6.9,0,0,0,1-1.2Zm.9-1.4,2-1.9,1.6-1.9ZM49.5,37.7l2.4-2.2-.9.6A11.4,11.4,0,0,1,49.5,37.7Zm-6.9,7-.5.6.7-.8Zm9.9-10,.3-.2.5-.5ZM31.7,54.5l.8-.2A8.5,8.5,0,0,1,34,52.5Zm-.1-1.4C35.3,50,40.4,44.3,44.7,39,40.5,43.4,35.6,48.7,31.6,53.1Zm-4.8,2.1h.7a5.8,5.8,0,0,0,2.5-1,.8.8,0,0,1-.2-.7h0l-1.1,1.1h-.4c-.1-.1-.2-.2-.2-.3l-.7.2Zm3.7-2.4a3.1,3.1,0,0,0-.2.8h0l3.6-3.9a37.6,37.6,0,0,1-3.2,2.8Zm1.4-2.1,2.7-2.6-2,1.7Zm-3.3,2.8a6.5,6.5,0,0,0,1.5-1l.4-.7ZM50.9,30.4l-4.2,5.2a77.9,77.9,0,0,0,5.6-6.3ZM35.4,46.2c2.4-2.4,5.3-5,8.1-7.6l5.3-6.4c-7.1,6-18.5,16.3-20.1,20.6l3.5-3.2C33.1,48.5,34.2,47.4,35.4,46.2Zm-8.3,8,.9-.8c.2-1.2,1.5-3.2,3.4-5.4-1.2,1.2-2.4,2.4-3.6,3.4s-1.7,2.3-1.6,2.6.3.2.6.2ZM52.4,28.5l.8-.6.3-.8ZM23.6,54.3l.2.3a4.6,4.6,0,0,1,.7-.7Zm.6-.8,2-1.5,4.4-4.5c2.2-2.4,5-5.2,7.8-8.1l.4-.3,2.9-3.6Zm-2.3.9,1-.3h.2a3.1,3.1,0,0,1,.2-.8Zm2.3-2.3-.5,1.1L38.8,37.4ZM46.5,29l2-1.9L50.1,25l2.2-2.8-7,6.2-2.6,3.1-2.5,3ZM34.6,41l7.3-7.3-4.2,3.7Zm-9.2,9.1c2.7-2.6,5.8-6,8.9-9.6A73,73,0,0,0,25.4,50.1Zm-3.9,3.5c.7-.6,1.5-1.2,2.4-2.1C26,47.9,31.6,42.3,37.4,37l4.9-5.8h.1l-2.6,2.4-2.3,2.4L31.7,42c-2.9,3.1-5.7,5.9-8.1,8.1A10.8,10.8,0,0,0,21.5,53.6Zm-.8.5H21a4,4,0,0,1,1-2.3L20.3,53v.3a1.4,1.4,0,0,0,.2.7Zm-2.5.5c0,.1,0,.1.1.2l.5.2a2.9,2.9,0,0,0,1.5-.6c-.1,0-.1,0-.1-.1a1,1,0,0,1-.4-.9ZM30.6,42.4l-2.2,2.3L31,42Zm-9,8.8,1.9-1.7L25,47.6c0,.1-.1.1-.2.2a50.5,50.5,0,0,1-4.1,4c0,.1,0,.2-.1.2A3.9,3.9,0,0,0,21.6,51.2Zm-2.4,1.9a1.8,1.8,0,0,0,.7-.5h0ZM31.3,41l6.1-5.9L39.3,33l-6.7,6.2-3.4,3.9.9-1Zm-9.2,8.7,2.2-2.1c1.7-1.7,3.4-3.7,5.3-5.7l-3.5,3C24.5,46.7,23.1,48.3,22.1,49.7Zm-3.4,3.1L20.6,51a30.6,30.6,0,0,1,2.7-3.7l-1.6,1.4A24.2,24.2,0,0,0,18.7,52.8ZM35.2,36c1.8-1.5,3.5-3.2,5.1-4.7l-4.5,4.1Zm3.1-3.6L45,26.5,47.1,24l-7.5,6.8ZM17.6,53.7h.2a13.3,13.3,0,0,1,1.8-3.1,43.2,43.2,0,0,1-3.9,3.3c-.1,0-.1.1-.2.2s.1.3.3.5h.4ZM53.1,18.1l.3-.3.3-.7ZM31.5,39.4l.8-.7c.1-.1.1-.2.2-.2ZM42.1,27.9c2.8-2.6,5.3-4.9,7.4-6.7s3.6-4.2,4-4.8a4.3,4.3,0,0,0,.7-1.6L51,17.4C48.6,20.1,45.3,24,42.1,27.9Zm-10.8,11L35.5,35l1.2-1.5-2.8,2.7Zm-17,16a.4.4,0,0,0,.5.1h.7a.1.1,0,0,0-.1-.1l-.3-.5ZM38.8,30.8l.5-.4.8-1A8.6,8.6,0,0,1,38.8,30.8Zm-18,18a9.4,9.4,0,0,0,1-1c3.1-3.5,7.4-7.8,11.9-12.2S43.6,24.9,48,19.9l-8,6.8c-9.4,9.6-19.2,19.7-24,24.8a9.4,9.4,0,0,0-.6,1.8h0Zm-7.6,5.7h0a3.6,3.6,0,0,0,1.7-.8v-.4a2.9,2.9,0,0,1,.2-.9A21.6,21.6,0,0,0,13.2,54.5ZM53.8,14.1l.5-.3c0-.1-.1-.1-.1-.2Zm-36,34.4-.7,1.1,1.8-1.9,6.6-6.8ZM38.1,27.6l7.3-7.4c2.1-2.1,3.8-4.1,5.3-5.8l-12.6,13-1.2,1.3h.2A9.4,9.4,0,0,1,38.1,27.6Zm-24.8,24a59.2,59.2,0,0,0,5.4-5c.6-.7,1.2-1.5,1.9-2.2L18,46.7l-3.9,4ZM29.8,35.1l1.1-1L38,26.8l9.2-10.2L33.8,30.3C32.5,31.9,31.2,33.6,29.8,35.1Zm-4.7,4.6a4.6,4.6,0,0,1,.7-.7l2.8-3.3-5.8,6ZM53.7,10c-1.2,1.3-3.3,3.8-6.2,6.9l5.6-5.7a7.5,7.5,0,0,0,.7-1.2ZM9.5,54.1a1.9,1.9,0,0,0,1-.4l2.9-3ZM29.6,32.5l-10,11.8-.5.6L33.5,30c2.2-2.6,4.3-5.3,6.4-7.7ZM8.8,54h0l7-6.1L19.2,44l5.7-6.8L8,54.2H7.6a2.5,2.5,0,0,1-.4-.7L5.8,54.9a2.1,2.1,0,0,0,1.2.3,6.8,6.8,0,0,0,2.1-.6l-.3-.2c0-.1-.1-.1-.1-.2S8.8,54.1,8.8,54ZM43.3,18.8l-.3.3-5.1,6.3L52.7,10.2l-1.4.6Zm10.8-10c0-.1.2-.1.2-.1a1.1,1.1,0,0,0,.1-.5c.1-.2,0-.3,0-.5l-2,2.1.9-.3.8-.7Zm-7.6,6.1,2.4-2.4-1.4,1.2ZM34.9,26.5,43,18.4,45,16C41.9,18.9,38.5,22.5,34.9,26.5Zm-7.4,7.4,1.7-1.7.8-.9ZM7.8,53.6,13,48.4A53.8,53.8,0,0,1,7.6,53,.8.8,0,0,0,7.8,53.6ZM10.6,50c5.2-4.7,13.6-13.2,22-22.2l-4.2,4c-5.7,6.2-11.3,12-16,16.3ZM46.5,13.9l.6-.6a7.5,7.5,0,0,0,1.2-1.4ZM5.3,53.8a7.3,7.3,0,0,0,1.8-.9h0A18.8,18.8,0,0,1,5.3,53.8Zm2.4-1.7v.2l.4-.5Zm28.1-28c1.5-1.6,3.1-3.1,4.6-4.6l3.5-3.8ZM8,51.3l3.9-3.4L19.6,40,8.7,49.8A9.3,9.3,0,0,0,8,51.3ZM17.7,41l8.7-8,4-4.1,8.5-9.5-4,3.5L29.8,28C25.8,32.5,21.6,37.1,17.7,41ZM6,52.8l1.3-.9a1.6,1.6,0,0,1,.3-.9ZM41.7,16.9l-2.6,3,4.3-4.4ZM44,14.3l3.1-2.6,5.4-5.6A15.2,15.2,0,0,0,53.9,4L52,5.8a62.9,62.9,0,0,1-6.4,6.6ZM4,54l.9-.5c.1-.2.4-.5.6-.9ZM40.3,17.5l1.1-1,.9-1-.2.2ZM5,52.5l1.4-1.3-.9.6ZM19.4,37.4a95.9,95.9,0,0,0-8.6,9.4C15.2,42.1,21.5,35.6,28,29.1,25,31.9,22,34.7,19.4,37.4ZM6.7,50.4l2.2-1.7c3.8-5.9,13.5-15.3,22.9-23.8l1-1-4.1,3.4c-4,3.9-8.2,7.8-12,11.3S9.2,47.4,6.7,50.4ZM54,2.8l.3.3a1.6,1.6,0,0,0,.2-.9V2l-.3.3A.8.8,0,0,1,54,2.8Zm-.3.6h.1A.1.1,0,0,1,53.7,3.4ZM1.7,53.5v.2a.8.8,0,0,0,.2.5c.1.2.4.2.6.2h.2l1.5-1.8A8.5,8.5,0,0,1,1.7,53.5ZM51.1,6l.7-.6.9-1.2Zm-9.3,9.3,5-5,6-7.1-1.6.6L48.8,6.3a113.8,113.8,0,0,1-8.4,9.4l-2.6,3.2Zm-6.3,6.2-.5.6L36.1,21ZM2.1,52.9a11.1,11.1,0,0,0,3-1.4c1.9-2.3,4.7-5.7,8.1-9.6ZM34.6,21.6l.4-.4.4-.3ZM52.2,2.9l.9-.2h.2l.5-.6V1.7c.1-.2,0-.3,0-.4Zm-24,24.2c4.1-3.9,8.1-7.9,11.6-11.4L42,13.1,26.5,28.6l.7-.6Zm-5.4,4.5L45.5,8.8l2.2-2.6C41.3,11.2,31.5,21.6,22.8,31.6Zm-8.6,8.6,2.4-2.4c-4,3.4-7.5,6.7-10.1,9.4ZM2.4,52l4.5-4.6L3.4,50.6Zm-1.3.6c.1.1.1.3.2.4a4.7,4.7,0,0,1,.5-1Zm5.7-6.5c3.3-3.3,7.7-7.2,12.5-11.4C29.5,23,41.8,9.6,48.9,4.7l1.3-1.5-3,2.3-7.7,6.2L11.4,40.6,6.2,46.7Zm-5.9,6,2.2-1.9A4.4,4.4,0,0,1,4,49.1c-1.2,1.2-2,1.8-2.5,1.8a.5.5,0,0,1-.4-.2c-.1,0-.1-.2,0-.3L11,40.2c1.6-2,3.4-4.1,5-6.2s3.7-4.6,5.7-6.9l-7.4,7.6C9.6,40.3,6.2,44.2,4,46.3l-2.5,3H1.2C1,50,.9,50.6.8,51.1A3.1,3.1,0,0,0,.9,52.1ZM42.2,8.8l4.7-3.7,3.8-3V1.7c0-.2,0-.3-.1-.4L49.9.9ZM2,50.2a35.1,35.1,0,0,0,4.7-4.8Zm23.6-27L16.4,34.4,15,36.2,36.2,14.3C32.8,17,29.2,20,25.6,23.2Zm3.1-3.3c3.6-3.1,7.2-6,10.4-8.6l5.5-5.6-11.9,10Zm20-19h0a1.6,1.6,0,0,1-.4.9l1-1h-.6ZM1.8,48c0,.1-.1.2-.2.4l.4-.5ZM35.9,12.5C42.4,7.1,47.8,2.4,48.2,1a10,10,0,0,0-2.5,1.3ZM2.3,47.2,3.7,46l2-2.5L2.4,47C2.3,47.1,2.3,47.1,2.3,47.2Zm-1.2-.3a1.3,1.3,0,0,0-.1.6,1.9,1.9,0,0,0,.1.8l.2-.3H1.2a.3.3,0,0,1,0-.4l.8-.9a34,34,0,0,1,2.7-3.7ZM11.8,35.7a92.2,92.2,0,0,0-7.9,9l7.3-7.6,4.7-5.3Zm6.8-6.2h0l1.8-1.8-.7.6ZM46.2,1.3,47.6.5h-.3a3.5,3.5,0,0,0-1.7.6h.2C46,1.2,46.2,1.2,46.2,1.3ZM23.3,24.5l1.4-1.2.9-1,.3-.3ZM45.2,2.1l.2-.3h-.1C45.3,1.9,45.2,2,45.2,2.1Zm-16,15.8.3-.2h.1ZM2.2,44.3a9.1,9.1,0,0,0-.7,1.4l4.4-4.9L3.6,43ZM14.9,31.7l5.8-5.4,1.5-1.8-.4.3-.8.7-5.3,5.4ZM42.7,4l.9-.8.7-.8-.5.4-1,1A.3.3,0,0,0,42.7,4ZM32,13.8l2.4-2.3,1.3-1.4L33,12.8ZM11.3,32.4l1.5-1.2,8.5-7c3.7-4,7.5-7.9,11-11.4a102.3,102.3,0,0,1,8.5-8.7,3.9,3.9,0,0,0,.3-1.4h0L34.2,9.5A151.2,151.2,0,0,1,20.3,23.4Zm31-29.6.6-.5V1.9h-.1A9.3,9.3,0,0,1,42.3,2.8ZM8.5,36.2c2-2.1,4.4-4.2,6.8-6.4l-2.1,1.8-5,4.1c-1.7,1.9-3.1,3.6-4.1,4.9l1.5-1.4Zm33.1-34V3a8.8,8.8,0,0,0,.7-1.3H42Zm-5,4.3L41,2h0a14.1,14.1,0,0,0-3,1.9A23.6,23.6,0,0,1,36.6,6.5ZM20.2,22.8,34,9.1a35.8,35.8,0,0,0,3.2-4.5,89.4,89.4,0,0,0-7,6.4l-3.3,3.4c-3.7,3.9-7.6,8.3-11.3,12.5C17.2,25.6,18.7,24.2,20.2,22.8Zm-7.6,7.6L14.1,29l-.9.7ZM38.2,3.1a15.1,15.1,0,0,1,2.6-1.5c0-.1-.1-.2-.2-.3a1.5,1.5,0,0,0-.8-.4.1.1,0,0,1,0,.2L38.3,2.6A.7.7,0,0,1,38.2,3.1ZM10.6,31.3l2.3-2,3.3-3.8Zm26-26.9,1-.8c0-.1.1-.2.1-.3A11.4,11.4,0,0,0,36.6,4.4ZM9.5,30.4,6.1,34.7c4.2-4.2,10.3-10.6,15.6-16.1,8.6-9,13.6-14.2,16.1-16.5a.4.4,0,0,1-.1-.3C30.7,9,17.8,22.2,9.5,30.4ZM38.2,1.7l.9-.8-1.2.4h0ZM13,26l-.6.8C20.7,18.5,31.5,7.4,37.2,1.6a6,6,0,0,0-1.5.9ZM28.1,9c-3.4,3.4-7,7.4-10.4,11.5L33.2,4.4A66.1,66.1,0,0,0,28.1,9ZM1.2,36.6c.8-.2,3.9-3.9,7.5-8.3H8.6C4.6,32.5,1.5,35.7,1.2,36.6ZM33.5,3.4l1.8-1.2L36.7.7c-.2-.2-.5-.2-.9-.2a3.8,3.8,0,0,0-1.3.4h.2c.2,0,.4,0,.5.2s.1.1.1.2S34.8,2.1,33.5,3.4ZM29,7.3a75.7,75.7,0,0,0,5.7-5.9h0a2.8,2.8,0,0,0-1.3.6l-1,1A26.1,26.1,0,0,1,29,7.3ZM6.7,29.5l1.4-1.3,3.7-3.8h0L8.6,27.3l-1.7,2C6.8,29.4,6.7,29.4,6.7,29.5ZM1.2,34.8a3.8,3.8,0,0,0,.8-.9l-.7.3H1A1.4,1.4,0,0,0,1.2,34.8ZM16.8,19l3-2.9c3.7-3.9,7.6-8.2,11.4-12.5-2.2,2-5.2,5-8.4,8.3ZM1.7,33.6a6.4,6.4,0,0,0,1.7-1.1L5,30.6ZM12.2,23.4,14,21.7a31.1,31.1,0,0,1,2.3-2.8ZM1.1,33.5,8.2,27c4.9-5.4,9.9-10.9,14.2-15.4l.8-1-10,10L1.7,32.2H1.6A11.2,11.2,0,0,0,1.1,33.5ZM31.7,2.1l1.1-.8V1ZM2.6,30.5l9.6-9.6,7.9-8h-.2C14.5,18.6,8.1,24.7,4.5,28.1ZM23.8,9h.1c3.6-3.8,6.1-6.6,6.4-7.3h-.5C29.6,2.6,27.1,5.4,23.8,9ZM9.2,22.2c3.2-3.2,6.9-6.5,10.5-9.6,5.1-5.2,8.8-9.3,9.5-10.8L7.5,23.5,3.8,28l.4-.3C5.6,26,7.3,24.2,9.2,22.2ZM23.6,6.7,28.3,2a15.2,15.2,0,0,0-2.1,1.4l-.9.9ZM11.1,19.2l2.5-2.5L12.1,18ZM1.2,29.1l5.9-5.9,2.6-3.1H9.5c-1.9,2-3.6,3.6-4.9,4.8L1.3,28.3H1.1v.2A.7.7,0,0,0,1.2,29.1Zm13.5-14a98.8,98.8,0,0,0,8.6-8.8l-7.6,7.6ZM1.6,27.1v.3l.4-.4Zm.4-.7a9.1,9.1,0,0,0,1.3-1,1.2,1.2,0,0,0,.5-.5L2.1,26.3Zm1.1-1.6L6.6,22,17.7,10.3C12.3,15.1,6.2,20.8,3.1,24.8ZM24.7,3.6l.7-.5a.4.4,0,0,1,.1-.3ZM11.3,15.4c3.4-3.2,7-6.4,10-8.9l2.5-2.7,1.8-2a.9.9,0,0,0-.3-.7.6.6,0,0,0-.7-.2l-.8.2h0c.3.2.4.3-9.2,10.5ZM4.1,21.7l.5-.4c3.2-3.2,6.5-6.7,9.5-9.9l2.1-2.5c-2.5,2.6-5.4,5.3-8,7.7ZM2.2,22.8l.6-.3,2.9-3.7-.8.8Zm19.4-20L18.8,6.4a63.4,63.4,0,0,0,4.5-5H23a.1.1,0,0,1-.1.1A7.9,7.9,0,0,1,21.6,2.8ZM.6,23.1a1.1,1.1,0,0,0-.1.5c0,.2,0,.3.1.4l.5-.6A.5.5,0,0,1,.6,23.1Zm10-9.4a101.9,101.9,0,0,0,8.1-8.3L15.5,8.1h0C13.9,9.9,12.2,11.8,10.6,13.7ZM1.1,22.9h.3l1.1-1.3Zm6.1-6.1.5-.4,2-2.4-.2.2C8.7,15.1,8,16,7.2,16.8ZM.9,22.4l3.6-3.2c.2-.1.3-.3.5-.5a16.3,16.3,0,0,1-3.5,2.7Zm1.4-2a75.5,75.5,0,0,0,6.9-6.7,6,6,0,0,0,.8-.8L8.4,14.3,3,19.6ZM20,2.7l1.1-.8a.9.9,0,0,0,.1-.5h0ZM3.3,16.1C5.9,14.2,10,9.3,13.2,5.3,10.4,8.2,6.8,12,3.3,16.1ZM.9,17.2a1.9,1.9,0,0,0-.3.9v.2l.9-.9Zm.3-.5h0a.5.5,0,0,0,.4.2H2C4.6,13.8,9.8,8,13.7,4.1c-2.4,2-5.1,4.4-7.4,6.7L4.7,12.4A41.7,41.7,0,0,0,1.2,16.7ZM6.8,9.6l-.8.8.9-.9Zm5.7-6.2,1.8-1.6A6.4,6.4,0,0,0,12.8,3ZM2.3,12.3a56.8,56.8,0,0,0,6.5-7C6.1,8,3.7,10.6,2.3,12.3ZM1,13h.2a15.5,15.5,0,0,1,1.3-1.7Zm1-2.3L3,10l.7-.8Zm-.5-4,1.1-1L4.3,3.6l.4-.5a29.1,29.1,0,0,1-2,2.3Z"/></clipPath><clipPath id="clip-path-2" transform="translate(-0.4 -0.5)"><path class="cls-1" d="M1,1c1.2-1.3,1.9.2,3.6.2H8.2c1.7,0,1.7-.2,3.5-.2H22.3c1.8,0,1.8.2,3.6.2S27.7,1,29.4,1s1.8.2,3.6.2H47.2c1.7,0,1.7.2,3.5.2s2.1-1.2,3.4,0,.1,1.6.1,3.4.3,1.8.3,3.6-.2,1.8-.2,3.5v7.2c0,1.8-.1,1.8-.1,3.5s.2,1.8.2,3.6-.3,1.8-.3,3.6-.1,1.8-.1,3.5.4,1.8.4,3.6.1,1.8.1,3.6-.1,1.8-.1,3.5V51c0,1.8,1.1,2.3-.1,3.5s-1.8.2-3.6.2H47.2c-1.8,0-1.8-.3-3.6-.3s-1.7.2-3.5.2-1.8-.2-3.5-.2-1.8-.2-3.6-.2-1.8.4-3.5.4H25.9c-1.8,0-1.8-.5-3.5-.5s-1.8.4-3.6.4-1.7-.2-3.5-.2H11.7c-1.7,0-1.7.3-3.5.3H4.6c-1.7,0-2.2,1.1-3.4-.1s-.1-1.7-.1-3.5S1,49.2,1,47.4.9,45.6.9,43.9s.3-1.8.3-3.6S.9,38.5.9,36.7s.4-1.8.4-3.5S1,31.4,1,29.6s.1-1.8.1-3.6V18.9c0-1.8-.1-1.8-.1-3.6s.3-1.7.3-3.5S.8,10,.8,8.2s.6-1.8.2-3.6S-.3,2.2,1,1Z"/></clipPath></defs><title>Asset 12</title><g id="Layer_2" data-name="Layer 2"><g id="Layer_6" data-name="Layer 6"><g class="cls-2"><path class="cls-3" d="M10.8,9.8c.8.8,6.9-6.8,6.9-6.8s-4.9,5.3-4.4,5.8,6.1-8.1,7-7.1S15,7.4,15.5,7.9l6.7-6.6L17.1,7.8S23.5.9,23.8,1.1L21,5.3S24.5.6,25.1,1.2s-3,4.4-3,4.4l4.1-4s-2,2.8-1.8,3.1l3.2-3.2a35.4,35.4,0,0,0-1.9,3.3c.5.4,3.2-3.1,3.2-3.1L27.2,4.8c.1.1,3.6-3.6,3.6-3.6L27.5,5.8c.6.6,4.4-4.8,4.6-4.6S28.8,6,28.8,6s3.8-4.5,4.1-4.2-2.8,3.6-2.5,4,4.5-4.5,4.5-4.5-2.4,3.8-2.4,3.8S35.6,2,35.6,2s-2.1,3.5-2.1,3.5l3.4-3.4L34.8,5.6c.2.2,2.4-2.9,2.7-2.6l-2,3.4,2.6-2.7s-2.5,3.8-2.4,3.9S38.3,4,38.8,4.5L36.6,8.1S40.8,3.5,41,3.6s-2.7,3.5-2.4,3.8l3-2.9s-1.8,2.6-1.5,2.9S42,4.9,42.3,5.2a14.5,14.5,0,0,1-1.1,2.5c.4.4,2.7-3.5,3.1-3.1s-2.2,3.6-2.2,3.6L45.3,5,43.4,8.4l2-2.1L44.1,9.1c.3.3,2.5-2.6,2.5-2.6s-2.1,3.6-2.1,3.6,2.2-2.7,2.4-2.4l-2.1,3.5c.1.2,3.1-3.4,3.2-3.2s-1.7,2.4-1.4,2.8l2.3-2.3-2,3.4,2.7-2.7c.4.5-2.5,3.1-2.1,3.5l3.1-3.1-3.3,4.7c.1.2,3-3.5,3.3-3.2s-2.4,3.7-2.4,3.7,3.3-3.9,3.6-3.6-4.6,4.7-3.9,5.3l4.2-4.1c.3.4-4,4.7-3.7,5s4.2-4.1,4.2-4.1-5.1,5.6-4.7,6.1L52.3,15c.7.8-5.5,6.4-5.3,6.7s5.7-6.1,5.9-5.9l-4.4,5.8c.2.2,3.5-4.1,3.8-3.8s-4,4.7-3.7,5.1,3.1-3.1,3.1-3.1l-3.1,4.6,4.1-4.2-3.2,4.7S51.7,22,52,22.4l-3.2,4.5s4.3-4.5,4.5-4.4-4.8,5.2-4.3,5.7,3.9-4.4,4.2-4.2a55.9,55.9,0,0,1-3.3,4.7L54,24.6" transform="translate(-0.4 -0.5)"/><path class="cls-3" d="M43.2,36c.8.8,4.8-4.8,4.8-4.8s-5.4,5.4-4.7,6.1S53.9,26.7,53.9,26.7L43.6,38.4,53.8,28.3s-7.6,8.4-7.3,8.7,7.8-7.8,7.8-7.8L48.9,36l4.9-4.9" transform="translate(-0.4 -0.5)"/><path class="cls-3" d="M40.9,28.7v-.2l.2,1.2c.2.2.4-.6.5-.5l-1.1,2.6s1.9-2.3,2.1-2.1-3.2,3.5-2.7,4.1,2.6-2.6,2.6-2.6l-3.6,5,4.7-4.7c.2.2-5.2,6.4-5.1,6.5l4.8-4.8c.7.7-3.8,5.3-3.8,5.3s4.7-4.8,4.7-4.8-4.8,6.2-4.8,6.2,2.7-3.3,3-3S40,40.8,40,40.8s2.2-2.8,2.6-2.5-3.4,4.8-3.4,4.8,3.7-4.7,4.2-4.2-3.5,4.4-3.3,4.6,2.5-2.4,2.5-2.4-3.7,5.1-3.7,5.1,4.9-4.9,4.9-4.9" transform="translate(-0.4 -0.5)"/><path class="cls-3" d="M14.4,28.6l.6-.5" transform="translate(-0.4 -0.5)"/><path class="cls-3" d="M5.6,9.4s2-2.3,2.1-2.1L4.3,12.1c.2.2,7-7.9,7.5-7.5S2.3,14.3,2.9,14.9,13.4,4.4,13.4,4.4s-10.5,10-9.5,11S15.1,4.1,15.1,4.1C16.9,5.9,2.7,16.7,3.3,17.4s4.4-4.9,4.6-4.7S2.6,19,2.8,19.3,7.7,13.9,8,14.1s-4.2,5.4-4.1,5.5,2.9-4.1,3.5-3.5S2.9,22,2.9,22s4.3-4.3,4.3-4.3L1.3,25c.8.8,5.6-5.7,5.6-5.6s-6,6.6-5.6,7,5.9-5.8,5.9-5.8l-5.6,7s5.3-6.4,5.8-5.9-7.1,7-6.3,7.8,5-5,5-5S-.2,30.4.7,31.3s5.2-5.9,5.5-5.6-5,6.5-5,6.5l3.9-3.9c.2.3-3.1,4.5-3.1,4.5s3.5-3.5,3.5-3.5-3.1,4.5-3.1,4.5,3.8-3.7,3.8-3.7S2.5,34,3.1,34.5s2.8-3.4,3.2-3.1L4.1,35s3.1-4,3.5-3.6S5.5,35,5.5,35s2.2-2.3,2.2-2.3L6.4,35.5l2.9-3S7,35.6,7.4,35.9l2.8-2.8A26.4,26.4,0,0,1,8.7,36s4.8-6.4,5.6-5.6-4.8,6.2-4.8,6.2l6.1-6.1c.5.5-5.5,6.9-5.5,6.9s5.3-5.3,5.3-5.3-4.6,4.8-4,5.4,3.8-4.3,4.1-4a48.4,48.4,0,0,0-3,4.4c.2.1,3.3-4.3,3.8-3.9L13,38.7a37,37,0,0,0,2.8-2.8c.6.7-4,5.5-4,5.5s4.7-4.9,4.8-4.8-4.9,6.2-4.8,6.2,4.2-5.6,4.9-4.9-4.8,5.7-4.5,6l5-5.1c.3.4-4.3,5.7-4.3,5.7s2.8-3.7,3.3-3.3-4.1,5.5-4.1,5.5l4.6-4.6c.2.2-4.2,5.1-3.9,5.4s3.1-3.5,3.3-3.3l-2.3,3.7c.2.1,3-3.7,3.3-3.4s-3.2,3.7-2.7,4.2,3-3.6,3.3-3.3L15,49.5c.2.1,2.3-3.1,2.7-2.7s-2.8,4.3-2.8,4.3,3.3-3.4,3.3-3.4-2.1,2.8-1.7,3.2l2.8-2.8c.2.2-2.4,3.2-2.1,3.5s3-3,3-3-2.5,3.9-2.5,3.9,2.6-3.2,2.9-2.9-1.4,2.7-1.3,2.7S21.6,50,21.6,50l-2.4,3.8c.4.4,3.2-3.4,3.3-3.3s-1.9,2.7-1.6,3l3.2-3.2c.3.3-2.3,3.7-2.3,3.7s3.5-3.5,3.5-3.5l-2.7,4.1c.1.1,3.9-4.8,4.4-4.3l-3.3,4.6,4.1-4s-2.2,3.5-2.2,3.6,3.9-4,3.9-4-2.9,4.3-2.9,4.3,4.7-5,4.9-4.8-3.6,4-3.1,4.5S32,50.9,32,50.9s-2.1,3.5-2.1,3.5,4.3-4.3,4.3-4.3-3.7,4.4-3.3,4.8S42,42.8,42.5,43.2,31.9,52.8,33.1,54,43.6,43.2,43.8,43.3s-10.6,10.1-9.6,11l9.4-9.4-6.5,8s4.8-5,4.8-4.9" transform="translate(-0.4 -0.5)"/></g><g class="cls-4"><path class="cls-5" d="M21.6,1.2a9.1,9.1,0,0,0-2.9.8,25.6,25.6,0,0,0-2.5,1.6,12.8,12.8,0,0,0-3.2.9A17.5,17.5,0,0,0,9.8,5.7,17.8,17.8,0,0,0,7.1,7.8a10.7,10.7,0,0,0-2.2,2.5,17.7,17.7,0,0,0-1.5,3.1,18.7,18.7,0,0,0-.1,3.4c0,2.2-.2,3.2.1,4A8.7,8.7,0,0,0,2,23.7a14,14,0,0,0-.6,3.2,16.9,16.9,0,0,0-.3,3.3,4.6,4.6,0,0,0,1.8,3.4L6,35.5c1.6.9,1.6,1,3.2,1.8a5.3,5.3,0,0,0,2.3.4c.3,0,.6-2.2,1.2-1.5s-.1,1.2-.1,2.2-.4,1.4-.4,1.9a18.6,18.6,0,0,0-.1,3.5,7.9,7.9,0,0,0,1,4,16.5,16.5,0,0,0,2.9,3,21.8,21.8,0,0,0,3.1,2.7,3.9,3.9,0,0,0,2.5,1.2c2.1,0,2.1-.4,4.1-.4h8.2a3.5,3.5,0,0,0,2.3-.9A21.6,21.6,0,0,0,39.4,51a13.4,13.4,0,0,0,2.7-3.1,7.6,7.6,0,0,0,1-3.9,9.9,9.9,0,0,0-.4-3.3c0-.6.1-1.2.1-2s-.9-1.5-.2-2.2.9,1.5,1.2,1.5a6.4,6.4,0,0,0,2.3-.5c1.6-.8,1.4-1.1,3-2s1.5-.9,3.1-1.8a4,4,0,0,0,2.2-3.3,16.6,16.6,0,0,0-.4-3.3,14.9,14.9,0,0,0-.4-3.3,8.4,8.4,0,0,0-1.4-3v-4a11.5,11.5,0,0,0-.4-3.3,10.1,10.1,0,0,0-1.1-3.2,11.3,11.3,0,0,0-2.2-2.7,19.2,19.2,0,0,0-2.8-1.8,19.8,19.8,0,0,0-3.1-1.2,24.4,24.4,0,0,0-3.3-1,15.1,15.1,0,0,0-2.6-1.2A10.9,10.9,0,0,0,34,1.1c-2-.1-2,.3-3.9.3H22.4a.8.8,0,0,0-.8-.3A.1.1,0,0,0,21.6,1.2Zm.6,4c1.8,0,1.8.3,3.5.3h3.6c1.8,0,1.8-.3,3.6-.2a10,10,0,0,1,3.7,1.9l.8.4a2,2,0,0,0,1.1.2,12.5,12.5,0,0,1,3.4,1,10.4,10.4,0,0,1,3.2,1.5,7.7,7.7,0,0,1,1.9,3,9.5,9.5,0,0,1,.8,3.5,11.6,11.6,0,0,1-.2,3.5c-.1.6-.4.6-.2,1.3s.3.5.7,1.1a12.7,12.7,0,0,1,1.1,3.6,32.5,32.5,0,0,1,.3,3.7,9.1,9.1,0,0,1-4.2,3,3.9,3.9,0,0,1-2.9-1.7A20.1,20.1,0,0,1,41.2,28c-.9,1.5-.4,1.5-.9,3.3l-.6,3.3a33.4,33.4,0,0,0-.8,3.3c0,.7.2.7.2,1.4v1.8c0,1.1.2,1.6.2,2.9a5.5,5.5,0,0,1-1.7,3.8,15.9,15.9,0,0,1-3.4,2.8c-2,.4-2,0-4.1,0H26c-2,0-2.1.3-4.1-.1a14.9,14.9,0,0,1-3.2-2.8c-1.3-1.4-2.3-2.7-2.3-3.7a8.8,8.8,0,0,1,.2-2.9c0-.6.6-1,.6-1.8s-.2-.3-.2-.5a35.2,35.2,0,0,0-.7-3.5c-.3-1.1-.5-2.4-.8-3.5s.3-2.3-1.1-3.3A15.6,15.6,0,0,1,12.7,31c-1.1,1.3-.7,2.1-2.3,1.9a5.2,5.2,0,0,1-2.6-1c-1.3-.6-1.5-.4-2.4-1.5a17.1,17.1,0,0,1,.4-3.6,14.1,14.1,0,0,1,1-3.6c.4-.6.7-.4.9-1s0-1-.1-2-.3-2-.3-3.4a9.6,9.6,0,0,1,.5-3.5,7.4,7.4,0,0,1,2.1-3,8.8,8.8,0,0,1,3.2-1.6,16.3,16.3,0,0,1,3.5-1.1c.5,0,.6.5,1.1.4s.3-.5.7-.8a10.5,10.5,0,0,1,3.8-1.9Z" transform="translate(-0.4 -0.5)"/></g></g></g></svg>