<svg id="Layer_1" data-name="Layer 1" xmlns="http://www.w3.org/2000/svg" viewBox="0 0 229.3 520.7"><title>body_front</title><path d="M733.1,274.6a18.7,18.7,0,0,0,.7,2.2c1.5,4.5,3.9,9,4.5,13.7a102.6,102.6,0,0,1,.2,19.2c-.5,9.6-1.5,19.1-2.2,28.6a195.6,195.6,0,0,1-8.5,43.6c-1.7,5.6-4.1,11-6.2,16.5a12.3,12.3,0,0,0-.7,3.2c.7,8.4.2,16.7-.2,25-.3,5.9,1.3,11.8,1.4,17.7.2,8.6.5,17.3-.5,25.8-1.4,11.9-4,23.7-6,35.6-1.5,8.2-3.2,16.4-4,24.7-.5,5.1.7,10.3,4.5,14.1a165.7,165.7,0,0,0,15.4,13.7c6.6,5.2,5.9,7.3,2.4,13.8-1.8,3.1-4.9,4.2-8.3,4.7-10.3,1.6-19.8-.5-27.8-7.3A111.7,111.7,0,0,1,686.4,557a8,8,0,0,1-1.5-5c.5-8.5,1.5-17,1.9-25.5a129.7,129.7,0,0,0-.1-16.5c-.6-8.5-1.6-17-2.5-25.4s-2.5-17-3.2-25.5c-.3-3.8.6-7.8,1.3-11.7,1.2-7,.6-13.9-.5-21a157.8,157.8,0,0,1-1.7-18.2c-.6-13.5-1-27-3.1-40.4a22.1,22.1,0,0,0-.5-2.5c-.2-.4-.6-.8-.9-1.3a4.2,4.2,0,0,0-.8,1.2c-1,4.6-2.4,9.1-2.7,13.6-.5,10.4-.4,20.8-.7,31.2-.1,5.8-.5,11.5-.9,17.2a13,13,0,0,1-.7,3.3,14.1,14.1,0,0,0,.1,9.3c5.1,13.4,4.4,26.8.7,40.3s-5.8,27.4-5,41.5c.3,4.1,2.1,8,2.9,12.1s1.9,11.1,2.8,16.7a5.3,5.3,0,0,1-2,5.1A13.1,13.1,0,0,1,666,558c-6.3,2.6-11.4,6.8-16,11.6a21.6,21.6,0,0,1-15.3,6.7c-5.5.2-11.1.7-16.7.9a4.4,4.4,0,0,1-3-1.2,16.6,16.6,0,0,1-3.5-4.4c-.5-1.1-.8-3-.2-4,3.6-6.1,7.5-11.8,15.1-13.9a18,18,0,0,0,6.8-4.2c3.7-3.4,7-7,10.4-10.6a2.8,2.8,0,0,0,.6-2.3,19.4,19.4,0,0,1-.6-11.2c.5-2.6-.1-5.5-.7-8.1-2.6-12.5-5.7-25-8.2-37.5-2-10.2-3.3-20.6-2.8-31,.4-7.6,1.7-15.1,2.1-22.7a142.5,142.5,0,0,0-.4-16c-.7-12.4-4.4-24.4-6.5-36.6s-3.2-22.4-4.3-33.7c-.7-7-.9-14-1-21a166.4,166.4,0,0,1,3.8-37.9c1.1-5.2.9-10.6,1.6-15.8,1-7.1,2.2-14.1,3.3-21.1a26,26,0,0,0,.3-4c0-.5-.4-1-1.1-1.5-.6,3.2-1.1,6.4-1.6,9.6-2.5,14.1-4.3,28.5-8.5,42.3-1.8,5.9-4.1,11.7-6.2,17.6l-.8,2.4c-.9,3.3-1.7,6.4-.1,9.9a22.1,22.1,0,0,1,.7,14.6c-1.5,5.5-2.8,11.1-4.4,16.5a15,15,0,0,1-6.8,8.5c-3.4,2.1-6.8,3.9-10.8,4.3a14.1,14.1,0,0,1-10.4-3.4c-1-.9-1.4-2.8-1.6-4.4a86.7,86.7,0,0,1-.6-8.9c-.1-1.3-.7-1.5-1.7-1.3l-4.5.8c-2.8.4-4.2-1-3.2-3.6a97.5,97.5,0,0,1,6.2-14.9c2.4-4.3,5.8-8.1,8.6-12.2a15.6,15.6,0,0,0,1.9-3.9c2.7-9,5.7-17.8,6.5-27.2.4-5.6.4-11.2,1.1-16.8,1.1-8.5,2.2-17,4-25.3a69.9,69.9,0,0,0,1.4-18.2,214.4,214.4,0,0,1,1.1-30c.6-5.9.6-11.9.7-17.9s-.3-9.9,1.3-14.7c2.1-6.5,7.3-10.1,12.6-13.5a55,55,0,0,1,14.1-6,25.5,25.5,0,0,0,5.8-2.7l14.9-7.7c5-2.7,7.2-7,7.2-12.6a53.1,53.1,0,0,0-.3-6.9,5.1,5.1,0,0,0-1.7-3c-5.7-5.1-7.9-11.6-7.8-19a2.4,2.4,0,0,1,.3-1.4c2.1-3.7,2.1-7.8,2.4-11.9.6-8.3,5.5-13.5,12.4-17.4s13.3-3.9,20.4-3.5,11,1.5,15.5,5.2c6.4,5.2,8.6,11.9,7,19.9a18,18,0,0,0-.5,1.9c-.5,1.7-.8,3.1,1.7,3.9s3.3,4.1,2.8,7.7-3,9.2-5.9,13.2a23.4,23.4,0,0,0-4.7,17.5c.2,1.2,1.7,2.5,2.9,3.1,4.7,2.5,9.5,4.9,14.3,7.1,6.5,3,13,5.8,19.6,8.6,3.2,1.4,6.7,2.3,9.7,4,6.2,3.6,9.6,9.3,11,16.2a88.3,88.3,0,0,1,.8,24.1c-.4,4,.7,8.2,1,12.4.7,6.8,1.4,13.6,1.8,20.5a39,39,0,0,0,4,15.3c5.2,10.6,6.6,22,7,33.7a134.5,134.5,0,0,0,2.2,22c1.2,6.3,3.6,12.5,5.9,18.7.6,1.8,2.6,3.1,4.1,4.6A69.3,69.3,0,0,1,797,337.7a18.6,18.6,0,0,1,1.1,5.7c.1.7-1.1,1.9-1.8,2a37.5,37.5,0,0,1-6.7,0c-1.4-.1-1.7.2-1.6,1.6s.1,5.2.1,7.8a1.3,1.3,0,0,1-.2.9,99.5,99.5,0,0,1-7.7,8.2c-1.8,1.7-4.3.9-6.5.6a18.5,18.5,0,0,1-14.1-9.2c-4-6.7-7.3-13.7-8.9-21.3a37.6,37.6,0,0,1-.1-11.6,32.4,32.4,0,0,0-2.9-18.4c-4.2-8.8-8.1-17.8-12.1-26.6a32.1,32.1,0,0,0-1.9-3.1ZM720,390.8c4.9-12.6,7.7-25.9,9.7-39.2,1.4-9.5,1.9-19.1,2.8-28.7a196,196,0,0,0,.9-31.6c-.3-3.9-.8-7.9-2.8-11.5s-2.1-2.6-4.2-1l-9.7,7.8c-5.4,4.3-11.3,8.2-16.1,13s-11.5,13.2-17.4,19.7a17.7,17.7,0,0,0-4.8,13.3c.6,8.8,1,17.6,1.6,26.5s1.4,16.2,2,24.3,1.4,17.1,2,25.7c.3,4.3.5,8.6.9,12.9a2.2,2.2,0,0,0,1.6,1.5l24.8.4a11.9,11.9,0,0,0,3.3-.4c.6-.2,1.5-.9,1.5-1.4.4-4.6.6-9.1.8-13.6M629.8,280.2c-.5,2.1-1.1,3.8-1.5,5.6-2.9,13.2-3.5,26.7-3.3,40.2a255.5,255.5,0,0,0,4.2,39.1c3.5,19,7.6,37.8,9.5,57.1.1.3.6.8.9.8l5.1.4,20.5.6c1.7.1,2.4-.8,2.4-2.4.3-11.3.3-22.6.9-33.9a125.1,125.1,0,0,1,2.1-18.3c2.2-11.1,4.4-22.1,3.8-33.5-.5-7.9-2.8-15.2-7.8-21.2-7.3-8.8-14.6-17.6-24.6-23.7-3.7-2.2-6.5-5.8-9.8-8.7Zm36.4-96.5v.4H607.9c-3.7,0-3.7,0-3.9,3.6a14.3,14.3,0,0,1-.3,2.9c-2.6,14.7-2.1,29.4-1,44.2a2.8,2.8,0,0,0,1.7,1.8c4.8.8,9.7,1.5,14.5,2,2.2.2,5.2.4,6.5-.8a13.6,13.6,0,0,0,4.9-11.1c-.6-7.9-1.1-15.8-1.9-23.7-.5-5.3-.2-10.7-3.3-15.4-.2-.3,0-.7,0-1s.9-.1,1,.1,2.2,2.3,2.4,3.7a105,105,0,0,1,1.9,13.7c.6,8.7.6,17.5,3.2,25.9,1.6,5.5.8,11.1.6,16.7,0,2.6,1.8,3.5,3.5,4.6a3.6,3.6,0,0,0,4.7-.6,24.2,24.2,0,0,0,3.2-3.2c3.8-5.7,7.5-11.4,11.1-17.2,5.9-9.5,11.4-19.3,18.6-27.9a4,4,0,0,0,1.1-2c-.1-5.2-.4-10.3-.7-15.5a2.3,2.3,0,0,0-1.6-1.2C671.5,183.6,668.8,183.7,666.2,183.7Zm34.3,242.6H687.2c-1.4,0-1.8.2-1.5,1.7a52.6,52.6,0,0,1,1.2,7.8c.2,5.1-.8,10-1.5,15a115.7,115.7,0,0,0-.5,20.4c.3,5.7,1.8,11.3,2.4,16.9,1,8.6,1.9,17.1,2.6,25.7a84.4,84.4,0,0,1,.2,13.3c-.3,3.8-1.4,7.5-2.1,11.3-.4,1.5.3,1.8,1.6,1.8h19.2c1.3,0,1.6-.5,1.2-1.7-.8-3.1-1.9-6.2-1.3-9.6,1.4-7.7,2.5-15.5,3.8-23.3,1.9-10.6,4.2-21.1,5.8-31.7a98.1,98.1,0,0,0-.1-30.6c-.9-5.1-1.8-10.3-2.6-15.5-.1-1.1-.5-1.4-1.6-1.4Zm-52.4-.7v.2c-2.9,0-5.7-.1-8.6.1-.6,0-1.6.7-1.6,1.3-1.1,8.9-2.5,17.8-2.8,26.8-.5,14.9,3,29.4,5.9,44,2.2,11.4,6.6,22.5,4.9,34.5-.3,2.5,1.2,3.6,4.1,3.6l12.3-.2c3.8-.1,4.1-.4,2.7-4a35,35,0,0,1-2.3-14.3,184.5,184.5,0,0,1,5.7-39.3c2.6-10.2,3.7-20.3.7-30.6-1.9-6.6-4.2-13.3-1.9-20.4.1-.2-.8-.9-1.2-.9Zm30.4-220.1v2.7c.1,5.4.2,10.8.2,16.3v72c0,1.2.4,1.6,1.6,1.6H698a3,3,0,0,0,1.6-.5l26.6-21.5a2.5,2.5,0,0,0,1-1.7c.4-4,1.1-8.1.8-12.1s-1.8-7.8-2.9-11.6c-.3-1.1-1.2-1.3-2.2-.7-5,3.1-8.9,2.1-12.7-2.2a163.9,163.9,0,0,1-12.1-15.4c-5.8-8-11.3-16.2-16.9-24.3A22.9,22.9,0,0,0,678.5,205.5Zm-3.2,1.4c-1.5,1.7-2.9,2.7-3.7,4.1-5.4,8.4-10.6,17-16.1,25.4a179.8,179.8,0,0,1-10.8,15.1c-3.1,3.7-6.6,3.5-10.1.2-1-.9-1.6-.8-1.8.4-.8,7.1-1.7,14.1-2.2,21.2-.1,2-.5,4.3,1.7,6.1,7.1,5.7,14.1,11.5,21,17.3a6.3,6.3,0,0,0,4.7,1.6l16.8-.2c1.4,0,1.7-.4,1.7-1.7V264.3c-.2-17.3-.3-34.6-.6-51.9A43.5,43.5,0,0,0,675.3,206.9Zm41.2-25.7V181h36.9c.4,0,1.2-.7,1.2-1-.7-5.4-1.1-10.9-2.3-16.2s-4-10.5-10-12.9a67.9,67.9,0,0,0-26-4.5l-34.4.2c-3.7,0-3.7,0-3.7,3.7l.3,29.2c0,1.4.3,1.8,1.7,1.8Zm-55,.5v-.5h12.8c1.4,0,2.1-.6,2-2s-.2-2.1-.2-3.1l-.6-27.6c0-1.5-.5-2.3-2.3-2.3-14.5.2-29,.7-43.5.3-7.7-.2-13,3.8-18.6,7.7-3.7,2.6-6.5,6.1-7.1,10.6s-.4,9.7-.5,14.6a1.9,1.9,0,0,0,2,2.1l17.6.2Zm69.8,1.5h-9c-13.9,0-27.8.1-41.8,0-1.5,0-2,.6-2,2,0,4.5.1,9,0,13.4a7.7,7.7,0,0,0,3,6.9,14.3,14.3,0,0,1,2.8,3.2c5.8,8.4,11.6,16.8,17.5,25.1A157.4,157.4,0,0,0,712,246.5a8.3,8.3,0,0,0,8.1,2.7c2.7-.7,3.7-3.1,4.2-5.6.8-4.2,1.8-8.5,2.2-12.8,1-9.6,1.6-19.3,2.3-28.9.2-4.1,0-8.3.4-12.4C729.3,187.6,730.4,185.8,731.3,183.2Zm.4,55.1a8.9,8.9,0,0,0-.3,2.2c.4,2.6,1.1,5.1,1.3,7.8a70,70,0,0,0,5.5,23.8c4.2,9.9,8.9,19.6,13.2,29.4,2.1,4.8,4.5,9.5,4.4,14.9,0,2.9,0,2.9,2.7,1.9,4.3-1.6,8.6-3.2,12.9-5a1.7,1.7,0,0,0,1-1.3c-.7-3.7-1.1-7.4-2.3-10.9A75.9,75.9,0,0,1,766,278c-.2-7.8-.2-15.5-.7-23.2s-2.9-12.9-6.1-18.7a3.2,3.2,0,0,0-2.4-1.6c-6.1.9-12.1,1.9-18.1,3m-113,7.3a2.7,2.7,0,0,0-2.6-3c-6.4-.9-12.9-1.7-19.4-2.4a2.4,2.4,0,0,0-2,1.2c-1,2.6-2.3,5.2-2.6,7.9-1.3,10.8-2.4,21.6-3.4,32.5-.9,8-1.5,16-4.2,23.8-.6,1.7-.9,3.6-1.4,5.4a1.7,1.7,0,0,0,1.7,2.3c3.7.4,7.4.7,11.1,1.3a3.9,3.9,0,0,0,4.6-2.4c1.7-3.9,3.5-7.8,5.1-11.8,4.7-12.1,6.8-24.8,9.6-37.4C623.6,256.5,624.5,250.6,625.7,244.8Zm45.6-131.1c-.7-.2-2-.6-1.8-.7l1.3-.3a28.8,28.8,0,0,1,3.3.5c2.4-.9,2.4-1.3,2.4-4.7a14.7,14.7,0,0,1,0-2.1c0-1.4-.6-2.1-2.1-2.3a8.1,8.1,0,0,1-3.3-1.4c-.2-.1,0-.9,0-1.4l1.1.4L675,103a10.1,10.1,0,0,0,1-2.4c.3-4.5.7-9.1.7-13.6,0-8.1-.1-16.2-.2-24.2,0-3.5-.7-4.1-4.1-3.1s-5.4,1.9-8.1,2.9c-8,3.3-11.9,9.1-11.3,17.8.3,3.6.7,7.2.9,10.9a3.2,3.2,0,0,1-.4,1.6l-.9-1-1.9-1.8c-.5.8-1.5,1.5-1.4,2.2a25.8,25.8,0,0,0,5,13.9,2.1,2.1,0,0,0,1.5.7c.3,0,.5-.8.7-1.3a2.9,2.9,0,0,0,.3-1,7.2,7.2,0,0,1,1.5,3.5c1.6,8.5,6.7,14.1,14.3,17.7,2.6,1.3,3.9.3,3.9-2.5a4.7,4.7,0,0,0-.1-1.7c-.8-2.6,1.3-6.3-2.4-7.7h-2.7ZM745,183.2h-8.2a6.5,6.5,0,0,0-6.3,7.9,11.8,11.8,0,0,1,.2,2.6c-.3,11.4-.5,22.8-.9,34.2a8.7,8.7,0,0,0,3.3,6.9,3.2,3.2,0,0,0,2.3.7c5.6-.8,11.2-1.9,16.8-2.7a3.7,3.7,0,0,0,3.4-3.7,93.4,93.4,0,0,0,0-24.2c-1.1-6.9-3.5-13.7-1.3-20.8.1-.2-.7-.9-1-.9ZM678.7,124v.2c-.2,1.8.7,2.3,2.2,1.9A24,24,0,0,0,694.5,116a35.4,35.4,0,0,0,4.9-14.2,21.3,21.3,0,0,1,1.1-3.3l.8.2c-.2,1.3-.4,2.7-.5,4a9.5,9.5,0,0,0,.5,2.3c.7-.5,1.7-.9,2-1.6a44.1,44.1,0,0,0,2.3-7,13.5,13.5,0,0,0,.3-4.9,2.7,2.7,0,0,0-1.7-2,5.6,5.6,0,0,0-2.9,1c-.4.2-.6.8-.9,1.3a3.7,3.7,0,0,1-.5-2.3c.4-2.3.9-4.5,1.2-6.8s1.6-6.4.4-9.8a20.8,20.8,0,0,0-21-13.7c-.4,0-1,.8-1,1.3-.1,3-.1,6-.1,9-.1,10.4-.3,20.7-.4,31.1,0,.8.5,2.1.9,2.2s1.7-.4,2.5-.8l1.8-1.5.6.6c-.8.9-1.4,2.2-2.4,2.5-3.3,1.1-4.1,3.4-3.7,6.5a3.8,3.8,0,0,1,0,1.5c-.1,1.3.5,1.6,1.6,1.4l4.5-.7c.5,0,.9.4,1.4.6s-.8.9-1.3.9-2.4,0-3.6.2a9.5,9.5,0,0,0-2.1.9m40,28.1h1.1a27.9,27.9,0,0,0-5.9-4l-14-6.1c-4.2-2-7.5-4.7-6.5-10.1.1-.4-.3-1.2-.5-1.2a3.6,3.6,0,0,0-2.1.3c-1.9,1.2-3.5,2.9-5.4,3.8-5.7,2.6-11.5,3.2-17.1-.4-2.6-1.6-4.9-3.6-7.3-5.4s-1.7-.7-1.8.7-.1.7-.2,1c-.4,4.6-1.8,8.7-6,11.3s-6.2,3.6-9.4,5.3l-9.6,4.7.6.2M616.7,572.1c.5.5.8,1.2,1.4,1.4a15.2,15.2,0,0,0,11.1.8,46.4,46.4,0,0,1,7.6-1.2c4-.5,7.7-1.7,10.5-4.8a40.9,40.9,0,0,1,6.1-5.7c4-2.8,8.1-5.2,12.2-7.6,1.8-1.1,2.9-2.4,2.5-4.5q-.7-5.7-1.8-11.4a1.6,1.6,0,0,0-1.2-.7c-5.5-.1-10.9,0-16.3,0a1.9,1.9,0,0,0-1.3.5c-3.1,3-6.3,5.9-9,9.1s-7.6,7.9-13.3,9.1c-1.8.4-3.2,1.3-3.2,3.6a3.7,3.7,0,0,1-1.2,2.2c-.8,1-1.8,1.8-2.6,2.8a6.1,6.1,0,0,0-.9,1.8M583,338.5c.1,5.2.5,10.3.9,15.4a23.7,23.7,0,0,0,.9,3.6h.8l3.7-16.2.7.2a28,28,0,0,1,0,2.9c-.4,4.5-.9,8.9-1.2,13.4-.1.7.6,1.5.9,2.2s1.9-1,2.1-1.8a52.3,52.3,0,0,0,1.2-5.7c.5-2.7,1-5.4,1.6-8,.1-.5.7-.8,1-1.2s.7,1,.6,1.5-.4,2.2-.5,3.3a84.6,84.6,0,0,0-.9,8.8c-.1.5.6,1.6,1,1.6a2,2,0,0,0,1.8-1,22.1,22.1,0,0,0,1.8-5.1c.6-2.8.9-5.6,1.4-8.5a9.4,9.4,0,0,1,.6-1.5h.6c.6,4-.6,7.9-1,11.9l.5.3c.7-.7,1.7-1.4,2-2.4,1.1-3,1.9-6,2.9-9.1a45.3,45.3,0,0,0,1.4-22.8c-.6-2.6-2.1-4.2-4.8-4.4s-8-.7-12.1-.9a1,1,0,0,0-.8.4c-1.8,1.8-3.5,3.7-5.3,5.7a64.9,64.9,0,0,0-11.5,19.7,5.9,5.9,0,0,0-.1,1.9,13,13,0,0,0,1.7-.8c3.2-3.2,4.1-6,8.5-7.7M728.5,561.5a11.8,11.8,0,0,0-2.2-2.8c-2.8-2.5-6.3-4.5-8.2-7.5a35.8,35.8,0,0,0-5.6-7.1,3,3,0,0,0-2-.8c-5.4-.1-10.8-.2-16.2-.1s-5-1.2-6.1,5.2c-.8,4.5-.3,8.7,4,11.3a18,18,0,0,1,6.6,7.1,8.9,8.9,0,0,0,5.2,4.3l8.9,3.4a4.1,4.1,0,0,0,4.5-.4l1.7-1.1c.8-.5,1.2-.5,1.4.6A2.3,2.3,0,0,0,722,575c1.8,0,3.6,0,4.1-2.1a7.2,7.2,0,0,0,2.5.1,3.5,3.5,0,0,0,1.7-1.5l1.7-2.8c.6-.5,1.1-2.4,1.5-3.1s-.7-1.3-1-1.7-1-.5-1.9-.8m31.2-215.4,3.8,6.1,4.9,4.4c.3.5,1.1.7,1.7.9a5.7,5.7,0,0,0,.3-1.8c-.9-4.1-1.9-8.2-2.8-12.4a22.6,22.6,0,0,1-.1-3.7c0-.2.4-.5.6-.8s.7.4.7.7.7,2.3,1,3.4c.9,4,1.8,8,3,11.9.3.9,1.4,1.7,2.1,2.5.3-1.1,1-2.3.9-3.4-.4-3.7-1.2-7.4-1.8-11l1.7-1.3c.9,3.6,1.7,7.1,2.6,10.7a3.6,3.6,0,0,0,1.1,1,5,5,0,0,0,.8-1.2,2.9,2.9,0,0,0,.3-1c.6-5.6-.4-11-1.6-16.4-.2-.8-1.3-1.4-1.9-2l-1.4-1.4c.7-.2,1.5-.7,2-.5a18.4,18.4,0,0,1,5.1,2.4,77,77,0,0,1,5.9,5.6,14.7,14.7,0,0,0,1.7.7,5.4,5.4,0,0,0-.3-1.9c-.5-1.4-1.4-2.6-1.9-4-2.5-7.1-7.2-12.8-12.6-17.9-1.8-1.7-3.6-2.5-6.2-1.4-4.8,2-9.7,3.6-14.5,5.5a2.3,2.3,0,0,0-1.2,1.5c-1.4,6.9,0,13.4,3.3,19.6.9,1.7,1.9,3.4,2.8,5.2l.6-.2m-87.9-25.9h3.9l6.8-7.1,9.6-11.5c.7-.9.4-1.4-.7-1.4-4.2-.1-8.4-.4-12.6-.4-7.2-.1-14.3.1-21.5.1h-1.3l.4.8c2.7,3.5,5.3,7,8.1,10.4" transform="translate(-568.9 -56.6)"/><path d="M651.1,188.2c2.2,0,3.8,1.1,3.8,2.6a3.4,3.4,0,0,1-3.4,3.1c-1.6,0-3.7-1.8-3.7-3.2S649.2,188.1,651.1,188.2Zm2.9,2.9c-1.3-.8-2.1-1.7-2.9-1.8s-1.4.8-2.1,1.3a13.7,13.7,0,0,0,2.7,2.2C651.9,193,652.8,192,654,191.1Z" transform="translate(-568.9 -56.6)"/><path d="M705.4,192.3c-2,0-3.7-1.3-3.8-2.8s2.1-3.2,3.9-3.2a3.2,3.2,0,0,1,3.3,3.2C708.9,191,707.3,192.3,705.4,192.3Zm-.2-.5c.9-.9,2.2-1.8,2-2.1a8.3,8.3,0,0,0-2-2.2c-.8.7-1.5,1.5-2.2,2.2Z" transform="translate(-568.9 -56.6)"/><path d="M669.4,88l3.1.8c.2,0,.3.4.4.6s-.2.3-.4.3a36.8,36.8,0,0,1-5.7.6c-.6,0-1.2-.6-1.8-.9a6.7,6.7,0,0,1,1.8-1.1A8.4,8.4,0,0,1,669.4,88Z" transform="translate(-568.9 -56.6)"/><path d="M672.3,85.9l-9.8,1C663.8,85,670.3,84.2,672.3,85.9Z" transform="translate(-568.9 -56.6)"/><path d="M683.1,87.9l8.1-.2c.2,0,.5.4.7.7s-.5.5-.8.6-2.4,1.2-3.5,1.2-3.1-.7-4.6-1Z" transform="translate(-568.9 -56.6)"/><path d="M692.7,85.4h-9.8C684.3,83.9,690.7,83.8,692.7,85.4Z" transform="translate(-568.9 -56.6)"/><path d="M669.2,181.9" transform="translate(-568.9 -56.6)"/><path d="M667.6,182.2" transform="translate(-568.9 -56.6)"/></svg>