<svg xmlns="http://www.w3.org/2000/svg" viewBox="0 0 60 60" height="50" width = "50"><defs><style>.cls-1,.cls-2{fill:none;stroke:#936;}.cls-1{stroke-linecap:round;stroke-linejoin:round;stroke-width:0.5px;}.cls-2{stroke-miterlimit:10;}</style></defs><title>Asset 14</title><g id="Layer_2" data-name="Layer 2"><g id="Layer_4" data-name="Layer 4"><path class="cls-1" d="M11.9,9.2c.4.4,7-7.7,7.3-7.3s-2.9,4.4-2.9,4.4S21.4.8,21.6.9s-2.7,3.8-2.5,4,2.6-3.7,3.1-3.1S21,4.4,21,4.4l2.7-2.7a10.1,10.1,0,0,1-.3,1.7L25.9.9,24,4.2c.3.2,3.8-3.7,3.8-3.7s-2,2.9-1.8,3.1S28.6.4,28.9.7a22.4,22.4,0,0,0-1.3,2.7c.1.1,1.7-2.1,1.9-1.8a22.4,22.4,0,0,1-1.3,2.7S31.3.9,31.4,1l-.6,2s1.6-1.7,1.7-1.6A10.5,10.5,0,0,0,32,3.3c.3.2,1.6-1.8,1.7-1.7s-1.8,3.2-1.8,3.2S34,2.1,34.3,2.4s-1.1,2.1-.9,2.3S35.9,2.1,36,2.1,34.3,4.8,34.5,5a23.9,23.9,0,0,1,2.3-2.2c.2.2-1.9,2.6-1.6,2.9l2.4-2.3a22.9,22.9,0,0,0-1.4,2.7c.2.2,2.9-2.9,2.9-2.9s-1.8,2.7-1.5,3l2.5-2.5c.1.2-1.1,2.1-.9,2.3s1.3-1.5,1.4-1.4a11.6,11.6,0,0,1-.4,1.8l1.2-1.2s-1.1,2.4-1.1,2.5S41.6,6,41.8,6.3l-.6,1.9c.2.2,2.3-2.5,2.4-2.4L42.5,8.3l2-2c.1,0-2,3.2-1.9,3.3S44.8,7.1,45,7.3s-2.1,3.5-2.1,3.5S45.8,7.4,46,7.6s-2.3,3.1-1.9,3.4,1.7-1.7,1.7-1.7l-1,2.4c.2.2,1.6-2.1,1.8-1.8s-1.2,2.6-1.2,2.6,1.5-1.7,1.6-1.6-1.1,2.1-.9,2.3a28.3,28.3,0,0,1,2.5-2.4s-2.2,2.8-1.8,3.2,1.9-2.3,2-2.1L47,15.2s1.6-2,1.8-1.8l-.4,1.8,1.5-1.5-1.3,2.7c.2.2,1.7-2,1.9-1.9S48,17.6,48.4,18A30.7,30.7,0,0,0,51,15.5c.2.2-1.8,3.1-1.8,3.1L52,15.8A24,24,0,0,1,50.3,19s.9-1.6,1.2-1.3S50,20.6,50,20.6s2-2.2,2.1-2.1a30.1,30.1,0,0,0-1.6,3.1,28.3,28.3,0,0,0,2.4-2.5s-2.7,3.4-2.3,3.8S53,20.4,53,20.4s-3.1,3.6-2.6,4.1l2.1-2.1c.1,0-2.1,3.5-2.1,3.5s2.4-2.4,2.4-2.4-1.9,2.7-1.6,3S53.7,24,53.7,24l-2.1,3.6,1.8-1.9s-3.8,4.1-3.3,4.7l3.8-3.8c.2.1-2.9,4-2.7,4.2l2.2-2.3-3.6,5.1,4.1-4.2c.3.3-5.1,6.4-5,6.5s4.5-5.2,4.8-4.8-6.5,6.4-5.7,7.2,4.8-4.9,4.8-4.9-8,7.5-7,8.5,6.6-6.7,6.7-6.7"/><path class="cls-1" d="M7.8,9.5c.2.2,1.3-1.8,1.5-1.6l-5,6.4c1.8,1.7,9.8-9.8,9.8-9.8S.9,16,2.5,17.6c0,0,14.6-15.9,15.3-15.3S.2,17.5,2.1,19.4s5.6-7,6.3-6.3-6.2,7.6-6.2,7.6,3-3.1,3.1-3l-4.7,6C.9,24,5,19.4,5,19.4S.2,24.1.9,24.8l4-3.9c.1,0-4,5.4-4,5.4a28.3,28.3,0,0,1,2.4-2.5L.2,28.3l4.1-4-4,5.4s2.6-3,2.8-2.8S.9,30.5.9,30.5l2.8-2.8L1,31.9l2.4-2.4c0,.1-2.4,3.7-2.4,3.7s2-2.6,2.3-2.3S1.1,34,1.4,34.3s2.1-2.6,2.3-2.4-2.4,3.1-2,3.5,2.7-2.7,2.7-2.7-3.1,3.7-2.7,4.1,2.7-3.3,3-3-2.1,3.5-2.1,3.5,1.5-1.6,1.5-1.5-.6,1.7-.4,1.8l1.5-1.5L3.8,38.9c.2.1,2-2,2-2L4.6,39.5c.2.3,1.8-1.7,1.8-1.7L4.2,41.4c.2.2,2.7-2.8,2.7-2.8a28.5,28.5,0,0,1-1.6,3l2.2-2.1a16.9,16.9,0,0,0-1.3,2.7c.1.1,1-1,1-1s-1.1,2.1-.9,2.3a22.8,22.8,0,0,1,2.2-2.2c.2.2-1.7,3.1-1.7,3.1s2.3-2.8,2.6-2.6-2.6,3.1-2.1,3.6l1.9-2-.3,1.8c.2.3,1.4-1.6,1.5-1.5L9.4,46c.3.3,1.4-1.9,1.7-1.6s-2.2,2.9-1.9,3.2,2.2-2.7,2.5-2.4A24.9,24.9,0,0,0,10.2,48s1.7-1.9,1.9-1.8-.8,1.7-.6,2,1.9-2.4,2.2-2.2-2.1,3.6-2.1,3.6l3.2-3.3c.3.2-1.3,2.8-1.3,2.8s1.4-2,1.7-1.7l-.9,2.3c.1.1,1.6-1.7,1.6-1.7s-.9,2-.7,2.2,1.7-2.4,2-2.1l-.8,2.3L17.8,49l-.4,1.7s.9-1.4,1.2-1.1-.4,1.7-.4,1.8,2.1-2.1,2.1-2.1-1.1,2.1-.9,2.3a18,18,0,0,1,2-1.9l-1.1,2.4c0,.1,2.2-2.3,2.3-2.2a24.4,24.4,0,0,0-1.4,2.8l1.3-1.4a6.2,6.2,0,0,1,.1,1.3s1.5-1.9,1.7-1.7L23.7,53c.4.4,2.1-2.5,2.3-2.3s-.9,1.9-.7,2.1l1.9-1.9-.6,2c.3.3,1.6-2.3,2-2s-1.1,2.1-.9,2.3,2.5-2.5,2.5-2.5-1.8,2.7-1.6,3,3.3-4.2,3.8-3.7-2.4,3.3-2.2,3.5,3.8-4,3.9-3.9-1.8,3.2-1.8,3.2,3.7-4.1,3.9-3.9-2.1,2.8-1.7,3.2,3.7-4.1,3.8-3.9-3.6,4.1-3.1,4.6S43,45,43,45l-4.6,6L51.9,37.5C53,38.6,39.1,48.3,40.8,50l8.6-8.6"/><path class="cls-1" d="M23.1,25.8c.1.1,0-.2.1-.1l-.6,2c.5.5,2.5-2.5,2.5-2.5s-3.6,4-3.1,4.5,5.3-5.7,5.5-5.5-5.6,5.7-5,6.4,5.9-7.3,6.6-6.6-5.9,7.3-5.9,7.3,5.9-6,6-6l-7.1,8.6c.6.6,8.9-8.9,8.9-8.9s-9.8,8.4-8.4,9.8l9.6-9.6c.1.2-9.4,10.8-9.4,10.8s8.3-9.2,8.8-8.8L22.2,38,32.9,27.4,22.3,39.3s8.6-10.1,9.4-9.3-8.9,10.2-8.9,10.2l9.4-9.3L22.9,41.6l8.7-8.8c.3.3-8.7,10.1-8.7,10.1s7.3-9.7,8.5-8.5-8.6,8.5-7.8,9.3,7.2-8.7,7.9-8-8,7.5-7,8.5,7.3-7.3,7.3-7.3-7.4,7.1-6.6,8,5.8-7.3,6.6-6.6-4.7,6.1-4.7,6.1,3.6-3.8,3.7-3.7-1.8,2.7-1.5,3l2-2.1"/><path class="cls-1" d="M23.4,12.3c.1.2.6-1,.8-.8l-1.5,2.9c.7.7,3.5-3.5,3.5-3.5s-4.8,4.9-4.1,5.5,6.3-6.7,6.5-6.5-6.5,6.5-5.8,7.2,6.3-7.8,7.1-7.1-6,7.4-6,7.4,5.6-5.7,5.7-5.7l-6.2,7.7c.6.5,7.7-7.7,7.7-7.7s-7.6,6.7-6.5,7.8l7.5-7.4c.1.1-6.4,7.8-6.4,7.8s5.5-6.1,5.8-5.8l-5.2,6.6,6.5-6.5-5.1,6.5s3.5-4.1,3.8-3.8"/><path class="cls-2" d="M27.2,3.4a22,22,0,0,1,3.7.6,22,22,0,0,1,3.7.6,34.1,34.1,0,0,1,3.3,1.7A20.6,20.6,0,0,1,41.2,8a22,22,0,0,1,2.7,2.6,16,16,0,0,1,2.5,2.7,33.7,33.7,0,0,1,1.9,3.2,35.4,35.4,0,0,1,1.6,3.4c.3,1.2.3,2.4.5,3.7a22,22,0,0,1,.4,3.6,22.6,22.6,0,0,1-.1,3.7,22.1,22.1,0,0,1-.8,3.7,34.1,34.1,0,0,1-1.7,3.3,32.8,32.8,0,0,1-2,3.1A22.1,22.1,0,0,1,44,43.9a21.8,21.8,0,0,1-2.8,2.5,21.4,21.4,0,0,1-3.2,2l-3.4,1.4A24.7,24.7,0,0,1,31,50.9c-1.2.1-2.5,0-3.8,0a22.9,22.9,0,0,1-3.7,0,24.2,24.2,0,0,1-3.6-1,21.1,21.1,0,0,1-3.3-1.8,20.1,20.1,0,0,1-3.3-1.6A34.7,34.7,0,0,1,10.4,44a22.6,22.6,0,0,1-2.3-2.9A19.8,19.8,0,0,1,6.2,38a20.9,20.9,0,0,1-1.3-3.5,21.2,21.2,0,0,1-1-3.6,22.2,22.2,0,0,1-.3-3.7,23,23,0,0,1,.2-3.7,20.9,20.9,0,0,1,.7-3.6,36.5,36.5,0,0,1,1.4-3.5,33.6,33.6,0,0,1,2.4-2.9,21.1,21.1,0,0,1,2.1-3.1l2.8-2.5a17.4,17.4,0,0,1,3.3-1.8,14.4,14.4,0,0,1,3.3-1.6,24.1,24.1,0,0,1,3.7-.7,23,23,0,0,1,3.7-.2m0-2.7A19.3,19.3,0,0,0,23.8.8a19.1,19.1,0,0,0-3.4,1c-1.1.3-2.3.3-3.4.7a29,29,0,0,0-2.9,1.9c-1,.6-2.1,1-3.1,1.7A28.3,28.3,0,0,0,8.5,8.5a19.4,19.4,0,0,0-2.3,2.6A28.2,28.2,0,0,0,4.4,14a18.3,18.3,0,0,0-1.8,3,21.3,21.3,0,0,0-1.1,3.3A19.7,19.7,0,0,0,1,23.8a19.3,19.3,0,0,0-.1,3.4,20.8,20.8,0,0,0-.1,3.5,21.4,21.4,0,0,0,.6,3.5c.3,1.1.9,2.1,1.3,3.2a30.1,30.1,0,0,0,1.6,3.1,27.5,27.5,0,0,0,1.9,2.8,30.3,30.3,0,0,0,2.3,2.6,18.6,18.6,0,0,0,2.7,2.2c1,.7,1.8,1.5,2.8,2.1a30.5,30.5,0,0,0,3.2,1.3c1.1.4,2.1.9,3.2,1.2a20.7,20.7,0,0,0,3.3,1,20.2,20.2,0,0,0,3.5-.1,20,20,0,0,0,3.5-.2,19.9,19.9,0,0,0,3.4-.5,21.9,21.9,0,0,0,3.3-1.2l3.2-1.3a29.2,29.2,0,0,0,2.8-2.1L46,46a28.8,28.8,0,0,0,2.2-2.7A28.2,28.2,0,0,0,50,40.4a29.6,29.6,0,0,0,1.5-3.1c.4-1.1,1.3-2,1.6-3.1s.1-2.4.3-3.5.1-2.3.1-3.5a19.3,19.3,0,0,0-.1-3.4,18.7,18.7,0,0,0-.8-3.4c-.3-1.1-.5-2.2-.9-3.3A17.7,17.7,0,0,0,50.2,14a28.3,28.3,0,0,0-2-2.8,19,19,0,0,0-2.4-2.5,28.3,28.3,0,0,0-2.5-2.4,28.3,28.3,0,0,0-2.8-2L37.4,2.7a32.1,32.1,0,0,0-3.3-1.2A34.3,34.3,0,0,0,30.7.9C29.6.8,28.4.5,27.2.5S27.2.9,27.2.9Z"/><path class="cls-2" d="M25.3,24.6h3.9a2.9,2.9,0,0,1,2.2.9,2.7,2.7,0,0,1,.7,2.3c-.1,1.7.1,1.7,0,3.4s-.2,1.6-.3,3.3L31.6,38l-.2,3.4a3.1,3.1,0,0,1-3,2.9H26.1a3,3,0,0,1-3-2.8c-.1-1.7-.2-1.7-.3-3.4l-.2-3.4c-.1-1.7,0-1.7-.1-3.4l-.2-3.3a3.1,3.1,0,0,1,.8-2.3,3,3,0,0,1,2.2-1Z"/><path class="cls-2" d="M22.3,15.2a5.1,5.1,0,0,0,2.4,4.4,5.2,5.2,0,0,0,7.6-4.4,4.9,4.9,0,0,0-1.5-3.5,5.1,5.1,0,0,0-3.6-1.5,5.1,5.1,0,0,0-3.5,1.5,4.9,4.9,0,0,0-1.5,3.5Z"/></g></g></svg>