<svg xmlns="http://www.w3.org/2000/svg" viewBox="0 0 520 60" width= "400" height = "70"><defs><style>.cls-1,.cls-2{fill:none;}.cls-1{stroke:#231f20;stroke-linecap:round;stroke-linejoin:round;stroke-width:0.5px;}.cls-2{stroke:#000;stroke-miterlimit:10;stroke-width:2px;}</style></defs><title>Asset 10</title><g id="Layer_2" data-name="Layer 2"><g id="Layer_1-2" data-name="Layer 1"><path class="cls-1" d="M29.2,12.2C30.7,13.8,40.3,1.1,40.3,1.1S30,12.2,30.3,12.5,41.4.7,41.7,1.1,31.5,12.7,31.5,12.7L42.9,1.3,32.8,12.8S43.1,2.1,43.3,2.3s-9.3,8.6-8.2,9.6,8.2-8.3,8.3-8.2l-6.9,8.2c.8.8,6.6-6.5,6.6-6.5s-6.8,7-6.2,7.6,6.3-7.3,6.8-6.8-5.1,5.6-4.6,6,4.7-4.7,4.7-4.7-4.9,4.9-4.2,5.6,3-4,3.5-3.5L42.2,12c.2.2.6-1.1.8-.9v1.4l.5-.6"/><path class="cls-1" d="M1.2,2.4l.6-.6s.3,1,.4,1l.5-.5L1,5.5S4.3,1.2,4.8,1.7,1.5,6.4,1.5,6.4,5.1,1.5,5.7,2.2.2,7.5,1,8.3,7.8.8,8.2,1.1l-6,7.4c.7.7,7.4-7.4,7.4-7.4S-.1,9.7,1.1,11l9.7-9.7L1.9,11.7,12,1.5S.2,11.4,1.9,13.1L13.2,1.8s-8.8,10-8.7,10.1S13.5,0,14.9,1.4,3.8,11.3,5.1,12.6,16,1.8,16,1.8,6.9,12.3,6.9,12.3,17.3,1.9,17.3,1.9L7.5,13.1c1.2,1.1,11-11,11-11s-8.6,10-8.6,10S18.6.7,20,2,9.4,12.1,10.4,13.1,20.9.9,21.7,1.7,11.5,11.9,12.2,12.6,21.7,1.3,22.7,2.2l-8.6,9.9c1.5,1.5,9.2-10.2,9.7-9.7l-8.3,9.8c.3.2,10.8-10.9,10.8-10.9s-9.2,10.6-9.2,10.6L28,1.1S15.7,13.6,16.3,14.2,27.6,1.3,28.4,2.1,15.5,15.3,16,15.9,27.8.7,29.5,2.4c0,0-13.6,13.1-12.6,14.1S31.7,1,32,1.3,14.4,15.7,16.7,18c0,0,15.7-16.6,16.2-16.2S14.3,17.3,16.6,19.6,32.4.5,34,2.1,16.1,21.5,16.1,21.5L36.2,1.4S15,22.3,15.9,23.1,35.3-.9,37.6,1.4,12.8,20.6,16.3,24.1,39.2,1.2,39.2,1.2L16.1,25.7S28.2,12,29,12.8,14.5,25.9,15.9,27.3,28.2,15,28.2,15,14.8,26.4,16.5,28.1L28.9,15.7l-12,13.4s9.7-13.3,11.5-11.5c0,0-12.4,12.2-11.5,13S28.2,17.6,29,18.4,14.6,30.2,16.6,32.2c0,0,12-13,12.5-12.5S16.5,33.4,16.7,33.6L29.2,21.1c2,2-13,12.6-12.1,13.5S29,22.7,29,22.7L16.1,37c1.3,1.2,11.7-12.7,12.2-12.2L16,38.5c1.1,1.2,13.2-13.2,13.2-13.2,1.8,1.9-13,14.4-13,14.4s13.1-13,13.1-13-14,12.1-12.4,13.7S27.2,27.1,28.7,28.6,16.3,42.5,16.3,42.5l13-13c1.2,1.1-13.8,13.1-12.7,14.1s9.7-13.3,11.5-11.5L16.8,44.8S27.7,32.3,28.5,33.1s-11.6,13-11.6,13c1.8,1.7,10.2-13.7,11.9-11.9s-11.1,12.2-11,12.4S28.2,34.8,28.9,35.5l-8.5,10c.4.4,7.8-7.9,7.8-7.9s-6.8,7.9-6.6,8.1l6.5-6.6c.3.4-5.3,6-4.9,6.4s6.1-6.1,6.1-6.1S24,46.1,24,46.1l4.6-4.6c.4.5-3.5,4.9-3.5,4.9s3.4-4.1,3.8-3.8-1.4,2.7-1.3,2.7,1-1.3,1.1-1.1-.9,2.4-.9,2.4l.8-.9"/><path class="cls-1" d="M63.3,22.6C64.7,24,73.4,12.5,73.4,12.5s-8.2,9.1-8,9.4,8.8-9.4,9.1-9.1-7.9,9.3-7.9,9.3l8.7-8.7-7.7,9.1s7.8-8.1,7.9-7.9-7,6.8-6.2,7.6l7.1-7.1L69.9,23c.8.8,7-7,7-7s-8.3,8.4-7.6,9.1,8.2-9.6,8.9-8.9-8.5,8.5-7.8,9.2,8.5-8.6,8.5-8.6-10.7,9.3-9.3,10.7,7.7-10.3,9.1-9l-7.8,9.2c1.1,1.1,7.3-9,8.2-8.2L71,29c1.5,1.5,8.5-9.4,9-9s-9.9,11.3-9.9,11.3c1.5,1.5,9.5-10.3,9.9-9.9S69.9,32.9,69.9,32.9,79.8,21,80.8,22s-11.6,9.7-9.9,11.4,9-10.4,9.7-9.7S70,33.8,70.9,34.7s8.3-10.6,9.5-9.4S70.1,36.5,70.3,36.7L80.6,26.5s-11,10.2-9.9,11.3S81.2,27.3,81.2,27.3L70.7,39.2c.4.5,10.6-10.6,10.6-10.6L70,41.3S79.8,28.6,81.3,30,69.8,40.6,71,41.8L81.1,31.7S68.8,42.3,70.3,43.8s10-10,10-10S70.1,43.7,71,44.6,81.1,33.6,81.6,34,68.9,44.9,70.5,46.5l9.7-9.7-8.4,9.8,9-9s-8.6,7.8-7.5,8.9,6.1-8.2,7.1-7.1-6.5,6.1-5.6,7,6.6-6.7,6.6-6.6-4.9,5.1-4.3,5.7,3.7-3.6,3.7-3.6-2.7,3.2-2.3,3.6l3-2.9c.1.1-2.5,3.1-2.1,3.5s1.1-1.2,1.1-1.2"/><path class="cls-1" d="M48.6,2.4l.7-.6s.2,1,.3,1l.5-.5L48.4,5.5s3.3-4.3,3.8-3.8-3.3,4.7-3.3,4.7,3.6-4.9,4.2-4.3-5.5,5.4-4.7,6.2S55.2.8,55.6,1.1l-6,7.4c.7.7,7.4-7.4,7.4-7.4S47.3,9.7,48.5,11l9.7-9.7L49.3,11.7,59.5,1.5S46.7,12,48.5,13.8l11.1-11S49.7,14,49.7,14.1,58.5,2.4,59.9,3.8s-12.4,11-11,12.4S59.6,5.6,59.6,5.6,49.3,17.3,49.3,17.3,59.4,7.1,59.4,7.1L48.5,19.5C49.6,20.6,59.3,8.7,59.3,8.7s-9.8,11.2-9.8,11.2S58,8.8,59.3,10.1,47.4,21.2,48.5,22.3,58.8,10.4,59.6,11.2,48.1,22.5,48.9,23.3s9.4-11.1,10.2-10.2L49.4,24.2c1.5,1.5,9-9.9,9.5-9.4L49.4,25.7c.2.2,10.6-10.6,10.6-10.6S49.7,26.8,49.7,26.8L60.2,16.2S48.3,28.5,48.8,29.1,61.1,15.1,61.9,16,48,30.2,48.6,30.7,62.8,12.5,64.8,14.5c0,0-16.6,15.6-15.4,16.8S67.6,12.4,68,12.7,46.4,30,49.3,32.9c0,0,19.1-20.3,19.7-19.8S46.4,31.7,49.1,34.4s19.2-23,21.1-21S48.6,36.3,48.6,36.3L72.2,12.7S47.4,37,48.4,38,59,25,60.1,26.2,46.9,37,48.8,39,60.1,27.7,60.1,27.7L48.6,40.6s10.5-12,11.3-11.3S47.2,40.9,48.5,42.2,59.1,31.5,59.1,31.5,47.5,41.5,49,43L59.7,32.3,49.5,44s8.2-11.4,9.8-9.8c0,0-10.6,10.6-9.9,11.3S59.2,34.2,59.9,35s-11.1,9.3-9.5,10.9c0,0,9.2-10,9.6-9.6s-8.3,9.4-8.1,9.5l8.2-8.2c1.1,1.1-6.9,7.3-6.4,7.8s6.2-6.2,6.2-6.2l-5.8,7.2c.6.5,4.8-5.3,5.1-5l-3.8,5.1c.3.4,4.6-4.6,4.6-4.6s-3,4.4-3,4.4,3.1-3.1,3.1-3.1-1.2,2.2-1,2.4.4-.5.5-.4"/><path class="cls-1" d="M101.2,25.6c1.1,1.1,11-11,11-11l-8.8,10.3c.5.5,10.3-10.3,10.3-10.3s-8.1,9.5-8.1,9.5,6.4-6.9,6.7-6.6-6.6,7.2-6.3,7.6,6-6,6-6-4.7,5.2-4.2,5.6l4-3.9-2.9,4.3c.2.2,1.5-1.5,1.5-1.5s-1.9,3.1-1.9,3.2l1.2-1.1"/><path class="cls-1" d="M100.9,16.2c.3.2,2.3-2.3,2.3-2.3s-5.1,6.2-5,6.4,7.6-8,7.8-7.8"/><path class="cls-1" d="M86.7,14.2l.7-.7.3,1.1.5-.5-1.7,3.1s3.3-4.2,3.8-3.8S87,18.1,87,18.1s3.6-4.8,4.2-4.2-5.5,5.3-4.7,6.1,6.9-7.5,7.2-7.2l-6,7.4c.7.7,7.4-7.4,7.4-7.4s-9.7,8.7-8.4,9.9L96.4,13l-9,10.4L97.6,13.2s-12.8,10.6-11,12.4L97.7,14.5,87.8,25.8C89.1,27,96.6,14.2,98,15.6S85.6,26.5,87,28,97.7,17.4,97.7,17.4,87.4,29,87.4,29,97.6,18.9,97.6,18.9l-11,12.4c1.1,1.1,10.8-10.8,10.8-10.8s-9.8,11.2-9.8,11.2,16-20.7,18.3-18.3c0,0-21.2,18.8-19.3,20.7S106.1,11.4,107.7,13c0,0-22.2,20.5-20.7,22.1s19.7-23.4,21.5-21.5L87.5,36c3.3,3.2,20.8-23,21.9-21.9L87.5,37.4c.6.6,23.9-23.9,23.9-23.9s-23.6,25-23.6,25l24.8-24.8S85.7,39.6,86.9,40.8s11-12.4,11.7-11.7S86.2,42,86.7,42.5s9.3-12,10.6-10.7S86.7,42.3,87.5,43.1,97.9,32.2,98.1,32.4,85.7,42.9,87.4,44.6c0,0,9.9-10.5,10.2-10.2S86,44.5,87.5,45.9s8.9-10.7,9.8-9.8-8.9,10.3-8.9,10.3l9.7-9.6s-8.9,9.5-8.5,9.8,7.6-9.3,8.5-8.4-7.9,6.9-6.7,8,6.8-6.8,6.8-6.8l-5.5,7s5-5.6,5.3-5.3-4.6,5-4.1,5.5,3.3-3.4,3.3-3.4-1.6,2.5-1.3,2.8l2-2-.6,2s.3-.4.4-.4"/><path class="cls-1" d="M127.5,21.9c1.2,1.2,8.8-8.8,8.8-8.8s-7.2,8.2-7,8.4,7.9-8.4,8.2-8.2-7,8.4-7,8.4l7.8-7.7-6.7,8s6.7-7,6.9-6.8-5.8,5.7-5.1,6.4,6-6.1,6.1-6l-5.2,6.6c.7.7,5.7-5.8,5.7-5.8s-6.7,7-6.1,7.6,7-8.1,7.5-7.5-6.8,7-6.2,7.6,7.1-7.1,7.1-7.1-8.7,7.8-7.5,8.9,6.4-8.6,7.5-7.5l-6.1,7.5c1,.9,6-7.4,6.7-6.7l-6.3,7.7c1.3,1.3,7.1-7.8,7.4-7.4s-8.2,9.6-8.2,9.6,8.2-8.9,8.6-8.5-8.8,10.1-8.8,10.1,8.9-10.6,9.8-9.7-10.5,8.8-8.9,10.3,8.3-9.6,9-9-10.3,9.8-9.4,10.8,8.3-10.8,9.5-9.6"/><path class="cls-1" d="M116.3,19l2.2-2.2s-3.7,4.6-3.5,4.8l6.7-6.6-8.6,10s9.6-13,11.3-11.3-11.3,12.7-11.3,12.7S124,11.8,125.8,13.7c0,0-15.3,12.7-13.3,14.7s15.1-16.7,15.9-15.9L113.6,28.8c1.5,1.5,16.4-16.5,16.4-16.5s-19.9,16.4-17.4,18.9l18.6-18.7L113.4,31.8l18.9-18.9s-22.7,17.8-19.5,20.9l20.5-20.6s-19.2,20.5-19.1,20.6c2.5,2.5,17.9-23.5,20.7-20.7,0,0-23.9,19.9-21.2,22.6.3.3,11.6-11.6,11.6-11.6,1.5,1.5-10.8,12.3-10.8,12.3s9.8-9.9,9.8-9.9L114,38.2c1.1,1,9.8-9.8,9.8-9.8s-8.3,9.8-8.3,9.8,7.1-9.4,8.2-8.3-9.5,9.2-8.6,10.1,8.4-9.7,9-9.1-8.7,8.9-8.1,9.5,7.1-8.4,7.8-7.7l-6.6,8c1.1,1.1,6.3-7,6.6-6.6l-6,7.4c.2.2,7.5-7.5,7.5-7.5s-6.5,7.9-6.5,7.9l7.2-7.2s-7.6,8.3-7.2,8.7,6.4-7.3,6.8-6.9-6.5,7.4-6.2,7.7,5.7-7.5,6.6-6.6-5.4,5.9-5,6.4,6.9-7.1,7-7-7.2,6.6-6.2,7.6,6.5-6.9,6.7-6.7-6.7,6.4-5.8,7.2,6.1-7.3,6.7-6.7-6.2,7.6-6.2,7.6l8.5-8.5s-7.9,8.7-7.6,9c2.1,2.1,20.2-25,22.6-22.6s-24.5,19-21,22.5,21.4-21.5,21.4-21.5L126.7,46.7s19.1-21.8,20.4-20.4C149.9,29,125.8,45,127.8,47s18.7-18.6,18.7-18.6-19.2,15.8-16.8,18.2l17.5-17.5L131.7,46s12.7-17.4,15-15c0,0-14.5,14-13.6,15s13.2-15.1,14.1-14.1-14.7,12-12.6,14.1c0,0,11.9-13.1,12.5-12.5s-10.8,11.8-10.6,12l10.2-10.3c1.3,1.3-8,8.3-7.4,8.9s6.3-6.3,6.3-6.3"/><path class="cls-1" d="M173.8,13.4l.6-.6c.1.1-1,2.3-.9,2.3s2.2-2.3,2.3-2.3l-2.5,3.9,3.6-3.6-3.7,5.2s4.3-4.6,4.4-4.5-4.1,4.5-3.5,5l5-5.1-5,6.5c.7.7,6.1-6.2,6.1-6.2s-7.9,8-7.2,8.7,8.6-9.9,9.2-9.3-9.2,9.2-8.4,9.9,10-10,10-10S171.2,24,172.9,25.6c0,0,9-12.1,10.6-10.5L174,25.9c1.3,1.3,8.4-10.4,9.4-9.4l-9.2,10.7c1.6,1.6,9.3-10.3,9.7-9.8s-10.6,12.1-10.6,12.1c1.6,1.5,10-10.9,10.4-10.5s-10.6,12.1-10.6,12.1,10.1-12.2,11.2-11.2-12,9.9-10.3,11.7,9.2-10.6,9.9-9.9"/><path class="cls-1" d="M151.8,14.2l.6-.7a7.6,7.6,0,0,0,.4,1.1l.5-.5-1.8,3.1s3.3-4.2,3.8-3.8-3.3,4.7-3.3,4.7,3.6-4.8,4.3-4.2-5.5,5.3-4.7,6.1,6.8-7.5,7.1-7.2l-6,7.4c.7.7,7.5-7.4,7.5-7.4s-9.7,8.7-8.5,9.9l9.7-9.7-9,10.4,10.2-10.2s-12.7,10.6-10.9,12.4l11-11.1-9.9,11.3c1.3,1.2,8.9-11.6,10.3-10.2s-12.5,10.9-11,12.4,10.6-10.6,10.6-10.6S152.5,29,152.5,29s10.1-10.1,10.1-10.1l-11,12.4c1.2,1.1,10.8-10.8,10.8-10.8s-9.8,11.2-9.8,11.2,8.5-11.1,9.8-9.8-11.8,11-10.7,12.1,10.2-11.8,11-11-11.3,11.1-10.5,11.9,9.2-10.9,10.1-10.1l-9.5,10.9c1.5,1.5,8.8-9.7,9.2-9.2L153,37c.2.2,10.1-10.2,10.1-10.2s-9.6,11-9.6,11l9.9-9.8S152.5,39.3,153,39.8s8.8-10,9.4-9.4-9.7,10.3-9.3,10.7,7.9-10.1,9-9-8.4,8.6-7.8,9.2,8.8-9.2,9-9-10.1,8.7-8.7,10.1,8.1-8.6,8.4-8.3-9.1,8.2-8,9.3,7.2-8.7,8-7.9-7.8,9.2-7.8,9.2l9-9s-8.8,9.5-8.5,9.8,8.2-9.9,9.1-9-9.1,7.8-7.7,9.1,8.7-8.7,8.7-8.7l-8,9.4s8.4-9.5,9-8.9-8.9,8.5-8,9.3,8.6-8.6,8.6-8.6-8,7.3-6.9,8.3l9.9-9.9-8.1,9.6s18.1-24.8,21.4-21.5c0,0-21.5,20.2-20.1,21.6S182.9,24,184.3,25.4s-22.6,17.8-19.4,20.9c0,0,18.7-20.4,19.5-19.6s-18,18.9-17.7,19.2l17.8-17.8c2.5,2.5-16.4,15.5-15.2,16.6s15-15,15-15L173.1,42.3c1.1,1.1,10-11,10.5-10.5L173,43.9c.9,1,11.5-11.6,11.5-11.6,1.6,1.6-11.3,12.8-11.3,12.8s11.4-11.4,11.4-11.4-12,10.5-10.6,11.9,8.7-11.3,10-10-9.2,10.7-9.2,10.7l9.8-9.8c.8.7-8.8,8.8-8.1,9.5s5.8-8,6.9-6.9l-5.2,6.6s5.2-6,5.6-5.6-4.5,6-4.5,6,4.1-5.6,4.9-4.9-4.1,5.3-4.1,5.4,3.9-4.3,4.1-4.1l-1.5,2.9c.1.1.8-.8.8-.8a7.1,7.1,0,0,1,.1,1.4l.4-.5"/><path class="cls-1" d="M199.9,49.1s7.4-8.7,8.1-8.1l-5.8,7.2c.7.6,5.7-7.2,6.5-6.4s-5.2,6.6-5.2,6.6,6.8-7,6.9-6.9l-5.2,6.6c.7.8,5.3-7,6.1-6.2s-5.6,6.9-5.5,7,6.5-7.7,7.1-7.1-5.7,5.5-4.9,6.3,5.6-5.6,5.6-5.6l-5.7,7.1,6.4-6.3-4.2,5.5c.1.1,4.4-6,5.2-5.2s-4.9,5.5-4.5,5.9,5.4-5.5,5.4-5.4-6,5.6-5.1,6.5,5.7-5.7,5.7-5.7-5.9,7.4-5.9,7.4,6.2-6.8,6.5-6.5"/><path class="cls-1" d="M189.6,49.8c.1.1,2-2.5,2.3-2.2s-3,4.3-3,4.3l5.7-5.7c.8.7-5.9,7-5.7,7.2s14-14,14-14c1.5,1.4-14.5,12.9-13,14.4s13.3-13.3,13.3-13.3-14.2,14.4-13.6,15S201.9,38.9,204,41.1c0,0-15.4,12.6-13.3,14.7s12.8-16.2,14.5-14.4l-15,16.3s16-16.9,16.5-16.4-15.6,15.4-14.8,16.2,5.5-6.7,6.1-6.1-5.9,6.1-5.3,6.7,5.2-6.6,5.9-5.9-5.4,6.8-5.4,6.8,4.5-4.6,4.5-4.6-3.9,4.5-3.5,5l4.5-4.5c.5.5-3.9,5.3-3.9,5.3l5.6-5.6c.1.1-4.5,5.5-4.3,5.7s5.1-5.6,5.3-5.3-5.8,5.5-4.9,6.3l5.9-5.9c.5.6-4.7,5.2-4.2,5.7s4.9-4.9,4.9-4.9-3.2,4.5-3.2,4.5,4.6-5.1,4.9-4.8-4,4.6-3.6,5,4.9-6,5.5-5.5-4.3,5.5-4.2,5.6,5.6-6.7,6.1-6.1-6,6.3-5.5,6.9,14.6-15.5,15-15c2,1.9-12.8,14.2-12.8,14.2s14-14,14-14-14.4,12.9-12.9,14.4,12.2-13.2,12.7-12.7S206.6,59.4,208.2,61s10-12.5,11.2-11.2-10.5,9.7-9.4,10.8l10-10c1,1-8.9,8.7-8.1,9.5l7-7.1c.9.9-6.4,7-6,7.5s6.1-6.1,6.1-6.1"/><path class="cls-1" d="M216,20c.3.4,5.4-5.4,5.4-5.4s-4,5.4-4,5.4,3.4-4,3.7-3.7-3.7,4.3-3.3,4.7,2.4-3,2.7-2.7a22.1,22.1,0,0,1-1.2,2.7s1.4-1.6,1.4-1.5"/><path class="cls-1" d="M201.3,21.5c.8.7,7.9-7.9,7.9-7.9l-6,7.4c.3.4,8-8,8-8s-5.9,7.3-5.9,7.3,5.9-6.4,6.2-6.2-6.1,6.9-5.8,7.2,7.6-7.6,7.6-7.6-6.6,6.8-6,7.4l8-7.9-6.9,8.3c.9.9,7.5-7.7,7.6-7.6s-8.4,9.2-8.1,9.5,9.5-9.6,9.5-9.6-8.2,9.7-8.2,9.7,10-10.2,10.1-10.1-10.8,9.6-9.5,10.9,10.6-11.6,11.1-11.1S208,24.4,209.6,26s10.4-11.7,11-11.1-11.9,13.3-11.9,13.3,6.2-8,7.1-7.1"/><path class="cls-1" d="M194.8,38.4c.2.2,1.8-1.8,1.8-1.8s-3.1,4.3-3,4.4,10.1-10.8,10.5-10.5-10.7,12.1-10.7,12.1l11.9-11.9L193.6,43.9S215.4,21,215.9,21.5s-23.6,19.8-21,22.4c0,0,21.6-21.8,21.7-21.7l-21,22.5c2.2,2.2,21.2-21.2,21.2-21.2s-23.3,21-21.5,22.8c0,0,20.8-24.2,22.5-22.4s-13,12.3-11.9,13.3,12.4-12.4,12.4-12.4-13.5,11.4-11.7,13.1c0,0,9.4-12.7,11.1-11.1l-8.3,9.7c1.1,1.2,7.3-9.1,8.2-8.2l-6.1,7.6c1.1,1.1,6-6.7,6.3-6.4s-4.6,6.1-4.6,6.1,3.2-3.5,3.3-3.4"/><path class="cls-1" d="M191.6,19.1a37,37,0,0,1,2.8-2.8s-3.5,4.4-3.3,4.7l5.7-5.7-7.4,8.8s8.6-11.5,10-10-9.6,11.1-9.6,11.1,9.3-12.7,10.9-11c0,0-13.2,11.1-11.5,12.9S202.6,12.3,203.3,13L190.5,27.2c1.4,1.3,14.4-14.3,14.4-14.3s-17.3,14.4-15.2,16.5l16.4-16.3L190.8,29.8l16.5-16.5s-19.6,15.5-16.8,18.2l17.9-18L192.2,31.2c.9.9,6.4-8.4,7.4-7.4s-8.6,8-7.6,9,6.9-6.9,6.9-6.9-5.8,7.2-5.8,7.2,5.8-5.8,5.8-5.8L193,34.6c.7.6,6.1-6,6.1-6s-4.2,5.6-4.2,5.6,4-5.4,4.7-4.7-5.4,5.7-4.9,6.2,5.4-6.2,5.9-5.8-4.9,5.5-4.5,5.9,4.4-5.2,4.8-4.8l-3.3,4.7c.7.7,3.8-4.3,4-4"/><path class="cls-1" d="M238.8,22.6c1.4,1.4,10.1-10.1,10.1-10.1s-8.2,9.1-8,9.4,8.8-9.4,9.1-9.1-7.8,9.3-7.8,9.3l8.7-8.7-7.8,9.1s7.8-8.1,8-7.9-7.1,6.8-6.2,7.6S252,15,252,15.1L245.5,23c.8.8,7-7,7-7s-8.4,8.4-7.7,9.1,8.3-9.6,8.9-8.9-8.5,8.5-7.8,9.2,8.6-8.6,8.6-8.6-10.7,9.3-9.3,10.7,7.7-10.3,9-9l-7.7,9.2c1.1,1.1,7.3-9,8.1-8.2l-8,9.5c1.5,1.5,8.5-9.4,8.9-9s-9.8,11.3-9.8,11.3c1.5,1.5,9.4-10.3,9.8-9.9s-10,11.5-10,11.5S255.4,21,256.4,22s-11.7,9.7-10,11.4,9-10.4,9.7-9.7-10.6,10.1-9.6,11,8.2-10.6,9.4-9.4-10.3,11.2-10,11.4l10.2-10.2s-10.9,10.2-9.8,11.3,10.4-10.5,10.4-10.5L246.2,39.2c.5.5,10.7-10.6,10.7-10.6L245.5,41.3s9.9-12.7,11.3-11.3-11.5,10.6-10.3,11.8l10.1-10.1s-12.2,10.6-10.7,12.1,10-10,10-10-10.2,9.9-9.3,10.8,10.1-11,10.5-10.6S244.4,44.9,246,46.5l9.7-9.7-8.3,9.8,9-9s-8.6,7.8-7.5,8.9,6-8.2,7.1-7.1-6.6,6.1-5.6,7,6.5-6.7,6.6-6.6-5,5.1-4.3,5.7,3.6-3.6,3.6-3.6-2.7,3.2-2.2,3.6l2.9-2.9c.2.1-2.4,3.1-2.1,3.5s1.2-1.2,1.2-1.2"/><path class="cls-1" d="M224.2,2.4l.6-.6.3,1,.6-.5-1.8,3.2s3.3-4.3,3.8-3.8-3.3,4.7-3.3,4.7,3.6-4.9,4.3-4.3-5.5,5.4-4.8,6.2,6.9-7.5,7.2-7.2l-6,7.4c.7.7,7.5-7.4,7.5-7.4s-9.8,8.6-8.5,9.9l9.7-9.7-9,10.4L235,1.5S222.3,12,224.1,13.8l11-11s-9.9,11.2-9.9,11.3,8.9-11.7,10.3-10.3-12.5,11-11,12.4S235.1,5.6,235.1,5.6s-10.3,11.7-10.3,11.7S235,7.1,235,7.1L224,19.5c1.2,1.1,10.8-10.8,10.8-10.8S225,19.9,225,19.9s8.5-11.1,9.8-9.8S223,21.2,224,22.3s10.3-11.9,11.1-11.1-11.4,11.3-10.6,12.1,9.3-11.1,10.2-10.2L225,24.2c1.5,1.5,8.9-9.9,9.4-9.4l-9.5,10.9c.3.2,10.6-10.6,10.6-10.6s-10.3,11.7-10.3,11.7l10.6-10.6s-12,12.3-11.4,12.9,12.2-14,13-13.1-13.8,14.2-13.3,14.7,14.3-18.2,16.3-16.2c0,0-16.7,15.6-15.5,16.8s18.3-18.9,18.6-18.6S222,30,224.8,32.9c0,0,19.2-20.3,19.8-19.8s-22.7,18.6-19.9,21.3,19.1-23,21-21-21.5,22.9-21.5,22.9l23.6-23.6S223,37,224,38s10.5-13,11.7-11.8S222.5,37,224.4,39s11.2-11.3,11.2-11.3L224.2,40.6s10.5-12,11.2-11.3S222.7,40.9,224,42.2s10.7-10.7,10.7-10.7-11.6,10-10.1,11.5l10.7-10.7L225,44s8.2-11.4,9.8-9.8c0,0-10.6,10.6-9.9,11.3s9.8-11.3,10.5-10.5-11.1,9.3-9.5,10.9c0,0,9.2-10,9.6-9.6s-8.2,9.4-8.1,9.5l8.2-8.2c1.1,1.1-6.9,7.3-6.4,7.8s6.2-6.2,6.2-6.2l-5.7,7.2c.5.5,4.8-5.3,5-5l-3.8,5.1c.4.4,4.7-4.6,4.7-4.6s-3,4.4-3,4.4,3.1-3.1,3.1-3.1-1.2,2.2-1,2.4.3-.5.4-.4"/><path class="cls-1" d="M317.6,20.1c.7.8,12.5-12.5,12.5-12.5,2.1,2.1-12.4,13.9-12.4,13.9S328.9,8.4,329.8,9.3s-14.5,13.3-13.1,14.6,11-14.2,12.6-12.6-12.6,14-12.6,14,11.8-13.7,12.7-12.7-12.8,12.5-11.9,13.3L329,14.4,317.9,26.9c1.4,1.3,10.7-12.1,11.4-11.4s-12.5,13.9-12.5,13.9,11.6-15.1,13.4-13.3L317.7,29.9c.4.3,11.3-12.4,11.9-11.8s-13.1,11.7-11.7,13.1,11.3-11.4,11.3-11.4c1.5,1.4-12,12.6-11.6,13.1s12.1-12.4,12.2-12.3-13.6,14.1-13.1,14.6,12.6-12.6,12.6-12.6-13.2,11.7-11.7,13.1S328.4,24,328.8,24.5s-12.7,11.9-11.6,13,12.3-12.2,12.3-12.2-13.4,11-11.5,12.9l11.7-11.7c1.9,1.9-13.5,12.5-12.3,13.7l12.2-12.3c.2.1-12.1,13.6-12.1,13.6s11.9-12,11.9-12c1.7,1.7-11.8,13.3-11.8,13.3s11.3-11.3,11.3-11.3-11.4,12.6-11.3,12.7,12-13,12.5-12.5-14,12-12.3,13.7c0,0,10.8-12.5,11.6-11.6S318,46.6,318,46.6s11.4-11.3,11.4-11.3-10.1,11.1-9.9,11.3,9.7-9.7,9.7-9.7-8.9,8.2-7.9,9.2,7.2-8.6,7.9-7.9-7.6,7.3-6.7,8.2,6.4-6.8,6.6-6.6l-5.2,6.5c.5.5,5.8-6.5,6.2-6.1l-4.9,6.3s3.1-4.2,3.7-3.7a22.7,22.7,0,0,0-1.7,3.1s1.6-2.1,1.9-1.8-.1,1.3,0,1.4.5-.6.5-.5"/><path class="cls-1" d="M317.5,2.9a10.9,10.9,0,0,0,1-1.1l-5.5,7c.3.3,7.5-7.5,7.5-7.5s-11,12.4-11,12.4S320.3,1.9,320.8,2.4"/><path class="cls-1" d="M294.5,20.1c1.1,1.1,7.9-7.9,7.9-7.9s-7.8,8.8-7.6,9,8-8.5,8.3-8.2-7.8,9.2-7.8,9.2l8.1-8.2-7.7,9.1s7.4-7.7,7.6-7.5-6.9,6.6-6.1,7.5,6.7-6.8,6.8-6.8l-6.2,7.6c.8.7,6.4-6.5,6.4-6.5s-7.5,7.7-6.8,8.3,7.5-8.7,8.1-8.1-7.4,7.6-6.8,8.2S323,1.6,323,1.6,294.9,24,298.4,27.5c0,0,21.5-28.9,25.2-25.2L300.2,27.1C303.3,30.3,322.6,0,325,2.3L300.9,27.8c4.2,4.2,24.8-27.2,26-26s-26.2,27.7-26.2,27.7C304.8,33.7,327,.9,328.1,2.1s-27,28.4-27,28.4C304.5,33.9,327-.9,329.8,1.8c0,0-31.6,24.2-27.2,28.6,1.3,1.3,25-28.6,26.8-26.8,0,0-28.6,25-26.1,27.5,0,0,22.6-28.9,25.8-25.8,0,0-26.5,26.6-25.8,27.2L329.2,6.6s-27.5,23.8-25,26.4c.2.2,25.6-25.6,25.6-25.6l-25,26.4c.4.5,9.9-9.8,9.9-9.8l-10,11.3s5.1-6.5,5.9-5.8"/><path class="cls-1" d="M281.9,2.4l.6-.6s.3,1,.4,1l.5-.5-1.7,3.2s3.2-4.3,3.7-3.8-3.2,4.7-3.2,4.7,3.5-4.9,4.2-4.2-5.5,5.3-4.7,6.1,6.8-7.5,7.1-7.2l-5.9,7.4c.6.7,7.4-7.4,7.4-7.4s-9.7,8.6-8.5,9.9l9.7-9.7-9,10.4L292.7,1.5S280,12,281.8,13.8L293.6,2S282.9,14,283,14.1,292.9.9,294.5,2.5c0,0-13.9,12.1-12.3,13.7S294.8,3.6,294.8,3.6c1.6,1.7-12.2,13.7-12.2,13.7S295.3,4.6,295.3,4.6L281.7,19.5c1.5,1.5,14-14,14-14s-13,14.4-13,14.4S294.6,4.6,296.3,6.3c0,0-16,14.6-14.5,16S296.1,5.7,297.3,6.8s-16.2,15.4-15.1,16.5S296.1,6.8,297.4,8.1L282.7,24.2C285,26.5,297,8.4,297.8,9.1L282.6,25.7c.4.4,16.9-16.8,16.9-16.8s-16.6,17.9-16.6,17.9L300.3,9.4s-19.1,18.8-18.2,19.7,16.7-19,17.8-17.9S281.1,30,281.8,30.7s16.1-20.6,18.4-18.4c0,0-18.9,17.7-17.5,19S301.6,11.7,301.9,12s-22.3,17.9-19.4,20.9c0,0,11.3-11.9,11.6-11.6s-13.4,11.5-11.7,13.1S292.7,21.9,293.8,23s-11.9,13.3-11.9,13.3l12.6-12.6S281.1,37.4,281.7,38s11.5-14.2,12.9-12.9S280,36.9,282.1,39s12.6-12.6,12.6-12.6L281.9,40.6S293.6,27.2,294.5,28s-14.2,12.8-12.8,14.2,12-12,12-12S280.6,41.3,282.3,43l12-12.1L282.7,44s9.4-13,11.2-11.2c0,0-12,11.9-11.2,12.7s11-12.7,11.8-11.9-12.7,10.5-10.9,12.3c0,0,10.5-11.4,11-11s-9.6,10.8-9.5,10.9l9.6-9.5c1.3,1.3-8.4,8.5-7.8,9.1s7.6-7.5,7.6-7.5l-7.1,8.5c.7.6,6.1-6.7,6.4-6.4l-5.2,6.5c.5.5,6-6,6-6s-4.3,5.8-4.3,5.8,4.4-4.4,4.4-4.4-2.7,3.3-2.3,3.7,1.5-2.1,1.8-1.8-1,2.5-1,2.5l1.6-1.6"/><path class="cls-1" d="M359.9,13.6l.7-.8c.2.2-2.1,3.4-2,3.5s3.3-3.6,3.4-3.5-4.7,6.1-4.7,6.1l5.9-5.8-7,8.4s7.5-7.9,7.7-7.7-8.9,8.3-7.9,9.3l9.4-9.4L355,25.6c1.2,1.2,11.5-11.5,11.5-11.5s-14.8,13.8-13.6,15,14.4-16.8,15.6-15.6"/><path class="cls-1" d="M335.1,14.1l.6-.6.8.6h.1l-.9,2.2s2.6-3.2,2.9-2.9-2,3.4-2,3.4,2.5-3.4,3-2.9-3.6,3.9-3,4.4,5.2-5.7,5.4-5.4l-3.8,5.2c.5.5,5.3-5.3,5.3-5.3s-6.9,6.5-6,7.4l7.2-7.2-6,7.4,7.2-7.2s-8.8,7.7-7.6,9l8.6-8.5-7,8.3c1,.9,6.6-8.7,7.7-7.6s-9.1,8.3-8,9.4,8-8.1,8-8.1-7.2,8.7-7.2,8.7,7.5-7.5,7.5-7.5L340,26.2c.8.9,8.1-8.1,8.1-8.1s-6.7,8.1-6.7,8.1,6.1-8.1,7.1-7.1-8.5,8.3-7.7,9.1,7.8-9,8.4-8.4-8.1,8.4-7.5,8.9,6.8-8.1,7.4-7.4l-6.5,8c1.1,1,6.3-7.1,6.7-6.7L343,30.3c.2.2,7.7-7.8,7.7-7.8s-7,8.5-7,8.5l7.7-7.7s-8.6,9.1-8.1,9.5,7-7.9,7.5-7.5-7.7,8.5-7.4,8.8,6.5-8.4,7.4-7.4-6.7,7-6.1,7.6,7.5-7.9,7.6-7.7-8.6,7.6-7.4,8.8,7.1-7.5,7.3-7.3-8,7.4-7,8.4,6.4-7.7,7.1-7-7.2,8.5-7.2,8.5L370,13.1s-25.7,25.1-24.7,26.1S367,12.5,369.5,15s-27.2,21-23.3,24.8,22.4-22.4,22.4-22.4L346.4,41s19.5-22.3,20.9-20.9S344.4,40,346.6,42.2c.5.5,18.9-18.9,18.9-18.9s-21.9,17.8-19.1,20.6l18.7-18.8L345.7,45.9s15.1-20.6,17.9-17.8c0,0-20.3,19-19,20.4s17.2-19.9,18.5-18.6-23,18.1-19.8,21.3c0,0,18.1-19.7,18.9-18.9S342,53.2,342.3,53.6l18.9-18.9c3.2,3.2-21,19.5-19.6,21s18.3-18.3,18.3-18.3L339.6,59.1c1.9,1.9,17.7-19.4,18.6-18.5L338.8,61.3C340.5,63,358,42.2,358,42.2c2.4,2.4-17.6,18.9-17.6,18.9S357,44.6,357,44.6s-16.3,13.9-14.4,15.8,11.1-14.5,12.8-12.8-12.1,13.5-12.1,13.5l11.6-11.6c.9.9-10.7,10.4-9.9,11.3s6.5-8.9,7.7-7.7l-6,7.4s4.9-5.7,5.3-5.3-4.2,5.6-4.2,5.6,3-4,3.5-3.5-2.7,4-2.6,4.1,1.5-1.7,1.6-1.6"/><path class="cls-1" d="M404.5,29.8c2.1,2.1,21.3-21.3,21.3-21.3l-20,21.4c1.1,1,21-21,21-21s-18.7,20.2-18.7,20.2,17.3-18.8,18-18.1-18.2,17.9-17.3,18.8,18.1-18.1,18.1-18.1S409.4,27.4,411,29l16.7-16.7-15,16.4c1.6,1.7,14.4-14.5,14.5-14.5,2,2.1-14.6,15.2-14.2,15.6s14.3-14.3,14.3-14.3-11.9,13.4-11.9,13.4,12.2-12.5,12.3-12.4S416,26.9,417.4,28.3s9.9-10.8,10.3-10.4-9.9,9-8.7,10.2,7.4-8.3,7.9-7.9-5.7,7.1-5.7,7.1,4.1-5.2,4.6-4.7"/><path class="cls-1" d="M405.3,9.9c1.2,1.2,8.8-8.8,8.8-8.8s-7.9,8.9-7.6,9.1,8.6-9.3,8.9-9-7.7,9.2-7.7,9.2l8.7-8.8-7.5,9s7.8-8.2,8-8-6.6,6.5-5.8,7.2l7-7-5.9,7.3c.8.7,6.6-6.6,6.6-6.6s-7.2,7.4-6.6,8,7.6-8.8,8.2-8.2-7.1,7.3-6.5,7.9,7.5-7.5,7.5-7.5-8.9,8-7.7,9.1,6.7-9,7.9-7.8l-6.2,7.6c.9,1,6.2-7.7,6.9-7l-6.5,8c1.3,1.3,7.4-8.2,7.8-7.8s-8.5,9.9-8.5,9.9,8.6-9.4,9-9-9.4,10.8-9.4,10.8S424.3,6,425.2,7"/><path class="cls-1" d="M392.2,2.4l.6-.6a7.6,7.6,0,0,0,.4,1.1l.5-.6L392,5.5s3.2-4.3,3.7-3.8-3.2,4.7-3.2,4.7,3.5-4.9,4.2-4.2-5.5,5.3-4.7,6.1,6.8-7.5,7.1-7.2l-5.9,7.4c.6.7,7.4-7.4,7.4-7.4s-9.7,8.6-8.5,9.9l9.7-9.7-9,10.4L403,1.5S390.3,12,392.1,13.8l12-12S393.2,14,393.3,14.1,404.2-.3,405.9,1.4c0,0-15.2,13.1-13.4,14.9S406.9,1.8,406.9,1.8c1.9,1.9-14,15.5-14,15.5S408.3,1.9,408.3,1.9L392,19.5c1.9,1.9,17.5-17.4,17.5-17.4C411.2,3.8,393,20,393,20S408.6-.2,410.9,2.1c0,0-20.7,18.4-18.8,20.2S411.1.2,412.6,1.8c0,0-21.6,20.1-20.1,21.5s10.8-12.9,11.9-11.8L393,24.2c1.7,1.8,10.5-11.6,11.1-11.1L392.9,25.7c.3.3,12.3-12.2,12.3-12.2s-12,13.3-12,13.3l12.3-12.2s-13.7,13.8-13.1,14.5S403.7,16.3,404.5,17s-12.9,13.2-12.3,13.7,10.5-13.5,12-12S392.1,30.5,393,31.3,405,18.8,405.3,19s-14.4,12-12.5,13.9c0,0,11.6-12.3,12-11.9S391,32.8,392.7,34.5s11.9-14.4,13.1-13.2-13.6,15.1-13.6,15.1L408,20.6S391.3,37.3,392,38s15.6-19.3,17.5-17.5S389.6,36.2,392.4,39s18.7-18.7,18.7-18.7L392.2,40.6s19-21.8,20.4-20.4c2.9,2.9-22.8,19.8-20.6,22,.3.3,12.3-12.3,12.3-12.3S390.9,41.3,392.6,43l12.3-12.3L393,44s9.7-13.3,11.5-11.4c0,0-12.4,12.1-11.5,12.9s11.3-13,12.1-12.1S392.1,44,394,45.9c0,0,10.7-11.7,11.2-11.2s-9.9,10.9-9.7,11.1l9.8-9.8c1.4,1.4-8.7,8.8-8,9.4s7.8-7.8,7.8-7.8l-7.4,8.8c.7.7,6.4-7,6.7-6.7L399,46.5c.5.5,6.3-6.2,6.3-6.2s-4.7,6-4.7,6,4.7-4.7,4.7-4.7-3,3.6-2.5,4,1.7-2.4,2-2.1-1.3,2.7-1.3,2.7l1.9-1.8"/><path class="cls-1" d="M442,33.4c1.5,1.4,14.8-14.8,14.8-14.8L445.1,31.7c.6.6,12.6-12.6,12.6-12.6s-10,11.5-10,11.5,8.8-9.7,9.2-9.3-10.5,10.9-10,11.4,10.6-10.6,10.6-10.6-10.7,10.2-9.7,11.2l10.4-10.4L448,34.5c1.1,1.1,9.4-9.5,9.4-9.5,1.6,1.6-10.8,11.7-10.5,12s10.6-10.6,10.6-10.6-9.8,11.2-9.8,11.2S457.9,27.3,458,27.4"/><path class="cls-1" d="M431.5,33.2c.3.4,2.6-2.6,2.6-2.6s-4.1,5.3-3.9,5.4,6.9-7.4,7.2-7.2-7.7,9-7.7,9l9.8-9.8-9.9,11.4s11.2-11.7,11.5-11.5-11.8,10.5-10.5,11.9S443.3,27,443.3,27.1L431,40.8c1.5,1.6,14.2-14.2,14.2-14.2S429,41.7,430.3,42.9s23.8-27.7,25.8-25.8S429.6,40.9,431.6,43s25.2-25.1,25.2-25.1-29.1,23.2-25.5,26.8c0,0,7.1-9.5,8.4-8.3l-6.4,7.8c.9.9,5.5-6.9,6.2-6.2l-5.3,6.7c1.1,1.1,5.8-6.4,6.1-6.1s-6,7.4-6,7.4,6-6.5,6.3-6.3-5.4,6.9-5.4,6.9,6.1-7.4,6.7-6.8-5.5,5.2-4.7,6.1,5-5.8,5.4-5.4-4.4,5-4,5.4,4.7-6.1,5.4-5.4-4.7,5.9-4.5,6l18-18.1S439.6,44.3,441.3,46s16.8-16.7,16.8-16.7l-15,16.4c.6.7,15.2-15.2,15.2-15.2L444.9,45.3S456.5,30.2,458.2,32s-10.6,9.9-9.5,10.9l9.3-9.3s-10.8,9.6-9.5,10.9,8.8-8.7,8.8-8.7-8.2,8.1-7.5,8.8,8.4-9.1,8.7-8.7-10.4,9.1-9,10.5l7.8-7.9-6.9,8.3,8-7.9s-7.6,7.1-6.7,8,6.2-8.2,7.2-7.1-6.7,6.1-5.7,7.1,8.7-8.9,8.8-8.8-7.3,6.9-6.4,7.8,6.2-6.2,6.2-6.2-5.3,5.1-4.5,6l5.3-5.3c.2.2-4.5,4.6-3.9,5.2s2.9-2.9,2.9-2.9l-.6,2.1c.1.1,1.1-1.1,1.1-1.1"/><path class="cls-1" d="M430.4,18l1-1a6.6,6.6,0,0,0,0,1.4l2.9-2.8-4.1,5.5s6-8,7-7-6.5,7.9-6.5,7.9,6.7-9.1,7.9-8-9.7,8.6-8.4,9.9,10.7-11.8,11.2-11.2l-10,11.4c1.1,1.1,11.7-11.7,11.7-11.7s-14.4,12.2-12.6,14l13.9-13.9-7.5,8.9,8.7-8.7s-8.3,7.3-7.1,8.6l8.2-8.2s-5.3,6.6-5.2,6.6,5.9-7.8,6.8-6.9-6.9,6.7-6.1,7.5,7-6.9,7-6.9S444,20,444,20s6.2-6.3,6.2-6.3l-5.9,7.4c.7.7,6.8-6.8,6.8-6.8s-4.8,6.2-4.8,6.2,5-6.7,5.9-5.8-6.9,6.9-6.2,7.6,6.8-8,7.4-7.4-7.1,7.4-6.6,7.9,6.4-7.5,7-6.9l-6.2,7.6c1.1,1.1,6.3-7.1,6.7-6.7l-6.6,8c.2.2,8.4-8.4,8.4-8.4"/><path class="cls-1" d="M467,13.4l.6-.6a15.7,15.7,0,0,1-.9,2.3c.2.2,2.3-2.3,2.3-2.3s-2.5,3.9-2.5,3.9l3.7-3.6-3.8,5.2s4.4-4.6,4.5-4.5-4.1,4.5-3.6,5l5.1-5.1-5.1,6.5c.7.7,6.1-6.2,6.1-6.2s-7.8,8-7.2,8.7,8.6-9.9,9.3-9.3-9.3,9.2-8.5,9.9,10-10,10-10S464.4,24,466.1,25.7c0,0,9-12.2,10.6-10.6l-9.5,10.8c1.3,1.3,8.5-10.4,9.4-9.4l-9.2,10.7c1.6,1.6,9.3-10.3,9.8-9.8s-10.7,12.1-10.7,12.1c1.6,1.6,10-10.9,10.4-10.5s-10.6,12.1-10.6,12.1,10.2-12.2,11.2-11.2-12,10-10.3,11.7,9.2-10.6,9.9-9.9-10.8,10.2-9.8,11.2,8.3-10.8,9.5-9.5-10.4,11.3-10.1,11.5l10.2-10.2S466,34.9,467.1,36s10.4-10.5,10.4-10.5L467,37.4c.5.5,10.7-10.7,10.7-10.7L466.3,39.5s9.9-12.8,11.4-11.3S466.1,38.8,467.3,40l10.1-10.2S465.2,40.5,466.7,42s10-10,10-10-10.2,9.9-9.3,10.8,10.1-11.1,10.5-10.6-13.4,11.4-11.7,13.1l10.4-10.4L466.4,46.6l10.8-10.9s-10.7,9.4-9.3,10.8,7.6-10.3,8.9-9-8.6,7.7-7.4,8.9,8.3-8.5,8.4-8.5-7,6.7-6.1,7.6,5.5-5.5,5.5-5.5-4.9,4.8-4.1,5.5l4.8-4.8c.2.3-4.6,4.7-4,5.4s3-3,3-3l-1.6,3c.3.3,2-2,2-2s-1.4,2.3-1.1,2.6l.4-.4"/><path class="cls-1" d="M468.1,3.5,469.6,2a24.4,24.4,0,0,0-1.4,2.8l3.1-3.1L467,7.5s5.3-7,6.1-6.2-5.3,6.8-5.3,6.8,5-6.8,5.9-5.9-6.9,6.3-5.9,7.3,7.3-8.1,7.7-7.7l-5.9,7.3c.6.6,6.6-6.6,6.6-6.6s-7.8,7.2-6.8,8.2l7.1-7.1-5.4,6.8L476.5,5s-5.7,5.4-4.8,6.3l4.6-4.6"/><path class="cls-1" d="M498.5,22.8c1.4,1.4,10.3-10.3,10.3-10.3s-8.2,9.1-7.9,9.3,8.7-9.3,9-9-7.8,9.3-7.8,9.3l8.6-8.7-7.6,9.1s7.7-8.1,7.8-7.9-6.9,6.7-6.1,7.5l7-7-6.4,7.8c.8.8,6.9-6.9,6.9-6.9s-8.2,8.3-7.6,9,8.2-9.4,8.8-8.8-8.4,8.5-7.7,9.1,8.5-8.4,8.5-8.4-10.6,9.2-9.2,10.6,7.6-10.3,8.9-8.9l-7.6,9.1c1.1,1.1,7.2-9,8-8.1l-7.9,9.3c1.5,1.5,8.4-9.3,8.9-8.8s-9.8,11.1-9.8,11.1c1.5,1.5,9.4-10.1,9.8-9.8s-10,11.4-10,11.4,9.8-11.7,10.8-10.7-11.5,9.5-9.8,11.2,8.9-10.3,9.6-9.7-10.5,10.1-9.6,11,8.2-10.6,9.4-9.3-10.2,11.1-10,11.4L516,26.5s-10.9,10.1-9.8,11.2,10.5-10.4,10.5-10.4L506.2,39.2c.4.4,10.6-10.7,10.6-10.7L505.5,41.3s9.8-12.8,11.3-11.3-11.5,10.5-10.3,11.7l10.1-10.1s-12.3,10.6-10.8,12.2,10-10,10-10-10.2,9.8-9.3,10.7,10.1-11,10.5-10.6-12.7,11-11.1,12.6l9.8-9.8-8.4,9.9,9-9.1s-8.7,7.9-7.5,9,6.1-8.3,7.1-7.2-6.6,6.1-5.7,7.1,6.7-6.8,6.7-6.7-5,5.2-4.4,5.8,3.8-3.7,3.8-3.7-2.8,3.3-2.4,3.7l3.1-3c.1.1-2.6,3.2-2.2,3.6s1.2-1.2,1.2-1.2"/><path class="cls-1" d="M484.1,14.2l.6-.7a7.6,7.6,0,0,0,.4,1.1l.5-.5-1.7,3.1s3.3-4.2,3.8-3.8-3.3,4.7-3.3,4.7,3.6-4.8,4.2-4.2-5.5,5.3-4.7,6.1,6.8-7.5,7.2-7.2l-6,7.4c.7.7,7.4-7.4,7.4-7.4s-9.7,8.7-8.5,9.9l9.7-9.7-8.9,10.4L495,13.2s-12.8,10.6-11,12.4l11.1-11.1-9.9,11.3c1.2,1.2,8.8-11.6,10.2-10.2S483,26.5,484.4,28s10.7-10.6,10.7-10.6S484.8,29,484.8,29s14.3-14.2,14.3-14.2L484,31.3c1.8,1.8,17.3-17.4,17.3-17.4C503,15.6,485,31.7,485,31.7s15.9-20.6,18.2-18.3c0,0-21.1,18.8-19.2,20.7S503.5,11.4,505.1,13c0,0-22.2,20.5-20.7,22.1S504.2,11.6,506,13.4L484.9,36c3.3,3.3,21.1-23.3,22.2-22.2L484.9,37.4c.2.3,10.6-10.6,10.6-10.6s-10.3,11.7-10.3,11.7L495.7,28s-11.9,12.2-11.4,12.8,9.7-11,10.4-10.4S483.6,42,484.1,42.5s9-11.6,10.3-10.4-10.3,10.2-9.5,11,10.4-10.9,10.6-10.7-12.4,10.5-10.7,12.2c0,0,9.9-10.5,10.2-10.2s-11.6,10.1-10.2,11.5,9-10.7,9.9-9.8-8.9,10.3-8.9,10.3l9.6-9.6s-8.8,9.5-8.4,9.8,7.6-9.3,8.5-8.4-7.9,6.9-6.7,8,6.8-6.8,6.8-6.8l-5.6,7s5.1-5.6,5.4-5.3-4.6,5-4.1,5.5,3.3-3.4,3.3-3.4-1.7,2.5-1.4,2.8l2.1-2-.6,2s.3-.4.4-.4"/><path class="cls-2" d="M43.7,12.6c-1.4,1.2-1.9-.2-3.8-.2s-1.9.2-3.7.2-1.9-.3-3.7-.3-2.5-1.1-3.8.2,0,1.9,0,3.7-.1,1.9-.1,3.7.3,1.9.3,3.8-.1,1.8-.1,3.7.1,1.8.1,3.7-.3,1.9-.3,3.7v3.8c0,1.8.3,1.8.3,3.7s1.2,2.4-.2,3.7-2-.1-4-.1H20.6c-2,0-2.4,1.2-3.9-.2s-.1-1.7-.1-3.5V38.6c0-1.9-.2-1.9-.2-3.8s.2-1.8.2-3.7.1-1.8.1-3.7-.1-1.9-.1-3.7V20c0-1.9-.2-1.9-.2-3.8s1.5-2.5.2-3.8-1.9.2-3.8.2-1.9-.3-3.7-.3-1.9.2-3.7.2S3,13.7,1.7,12.4s0-1.7,0-3.5-.1-1.8-.1-3.6S.3,2.9,1.5,1.7s1.9-.1,3.6-.1S6.9,2,8.6,2h3.5c1.8,0,1.8-.3,3.5-.3s1.8.3,3.5.3,1.8-.2,3.5-.2H33.1c1.8,0,1.8.2,3.5.2s1.8-.2,3.5-.2,2.3-1.1,3.6.1-.1,1.8-.1,3.6-.3,1.8.1,3.6S45,11.3,43.7,12.6Z"/><path class="cls-2" d="M80.9,46.1c-1.2,1.2-1.8-.2-3.5-.2s-1.8.2-3.5.2-2.2,1-3.4-.2-.1-1.6-.1-3.3V35.9c0-1.7-.2-1.7-.2-3.4s.1-1.7.1-3.4c0-.1-.1-.2-.1-.3s.3-.4.3-.8a10.4,10.4,0,0,0-.9-4.3C69,22.4,67.7,22,66,22a4.7,4.7,0,0,0-3.5,1.3,16.1,16.1,0,0,0-3.1,3.6c-.3,1.9.1,1.9.1,3.8s-.1,1.9-.1,3.8.1,2,.1,3.9v3.8c0,1.9,1.5,2.5.2,3.9s-1.9-.2-3.6-.2H52.6c-1.8,0-2.3,1.4-3.5.1s.1-1.7.1-3.6-.2-1.8-.2-3.7.2-1.8.2-3.6-.2-1.9-.2-3.7.2-1.9.2-3.7-.2-1.9-.2-3.7.1-1.9.1-3.7V16.5c0-1.8-.1-1.8-.1-3.7s-.1-1.8-.1-3.7V5.4c0-1.8-1-2.2.3-3.5s1.6,0,3.3,0,1.8-.3,3.6-.3,2.1-1,3.4.2.1,1.6.1,3.2.1,1.7.1,3.3.1,1.6.1,3.3-.1,1.6-.1,3.3-.7,1.7-.2,3.3a29.6,29.6,0,0,1,2.3-2.5A12.8,12.8,0,0,1,64.7,14a13.8,13.8,0,0,1,2.7-.8,23.6,23.6,0,0,1,2.8-.4,11.3,11.3,0,0,1,3.8.5,8,8,0,0,1,3.2,2.2,8.9,8.9,0,0,1,2.5,2.9,19.1,19.1,0,0,1,1,3.8A21.7,21.7,0,0,1,81,26v3.4c0,1.6-.3,1.6-.3,3.3s.1,1.7.1,3.3.3,1.7.3,3.3-.8,1.8-.4,3.4S82.1,44.9,80.9,46.1Z"/><path class="cls-2" d="M113.5,15.3c0,2-.8,1.8-1.4,3.8s-.6,1.9-1.2,3.8-.4,2.1-1.5,3.8a7.6,7.6,0,0,0-2-1.7,5.6,5.6,0,0,0-2.7-.8,5.2,5.2,0,0,0-3.9,1.7,9.1,9.1,0,0,0-1.7,3A18.1,18.1,0,0,0,97.8,32a20.4,20.4,0,0,0,0,3.5c0,1.8-.2,1.8-.2,3.5v3.5c0,1.8,1.4,2.4.2,3.6s-1.9-.1-3.6-.1H90.7c-1.8,0-2.3,1.3-3.5.1s.1-1.8.1-3.6-.1-1.8-.1-3.6V35.2c0-1.8-.1-1.8-.1-3.6s.1-1.8.1-3.6.1-1.9.1-3.7-.1-1.8-.1-3.6V17.1c0-1.8-1.4-2.3-.1-3.6s1.8.1,3.6.1h3.5c1.7,0,2.2-1.2,3.4.1s.1,1.9.1,3.8-.3,2-.1,4a13,13,0,0,1,1.6-3.1,15.1,15.1,0,0,1,2-2.6,8.3,8.3,0,0,1,2.6-2.1,7.6,7.6,0,0,1,3.3-.8,9.4,9.4,0,0,1,3.1.8A20.9,20.9,0,0,1,113.5,15.3Z"/><path class="cls-2" d="M147.2,29.7a20.3,20.3,0,0,1-.6,4.4,19.6,19.6,0,0,1-1.3,4.3,17.2,17.2,0,0,1-2.6,3.3,14,14,0,0,1-3.3,2.6,10.1,10.1,0,0,1-3,1.3l-3.1.7a33.1,33.1,0,0,1-3.3.4,16.6,16.6,0,0,1-3.2-.3,16.5,16.5,0,0,1-3.2-.6,13.2,13.2,0,0,1-2.9-1.5,14.6,14.6,0,0,1-3.3-2.6,14.4,14.4,0,0,1-2.7-3.3,18.7,18.7,0,0,1-1.3-4.2,21.7,21.7,0,0,1-.3-4.5c0-1.2,0-2.3.1-3.4a17,17,0,0,1,1-3.2,14.8,14.8,0,0,1,1.2-2.9,22.3,22.3,0,0,1,1.9-2.4,16.5,16.5,0,0,1,2.4-2.2,16,16,0,0,1,3-1.3,13.6,13.6,0,0,1,3.6-1c1.2-.1,2.4-.3,3.7-.3a22.5,22.5,0,0,1,3.8.3,20.1,20.1,0,0,1,3.7.8,18.7,18.7,0,0,1,2.8,1.6,12.8,12.8,0,0,1,2.6,2,11.7,11.7,0,0,1,1.7,2.6,17.3,17.3,0,0,1,1.5,2.7c.3,1.1.5,2.2.7,3.3A18.6,18.6,0,0,1,147.2,29.7Zm-11.2,0a16.7,16.7,0,0,0-.2-3.2,8,8,0,0,0-1.3-2.8,5.4,5.4,0,0,0-8.9-.1,8.3,8.3,0,0,0-1.3,3,14.8,14.8,0,0,0-.3,3.1,15.3,15.3,0,0,0,.5,3.2,7.4,7.4,0,0,0,1.2,2.9,4.9,4.9,0,0,0,4.3,2.1c2,0,3.6-.5,4.6-2a7.3,7.3,0,0,0,1.2-3A15.7,15.7,0,0,0,136,29.7Z"/><path class="cls-2" d="M184.1,46c-1.3,1.3-1.8-.1-3.6-.1H177c-1.8,0-2.3,1.3-3.4-.1s.3-2.3-.1-4.5a21.3,21.3,0,0,1-2.2,2.1,12.3,12.3,0,0,1-2.5,1.7,9.9,9.9,0,0,1-2.8,1.2,15.6,15.6,0,0,1-3.1.2,17.8,17.8,0,0,1-3.4-.2,9.1,9.1,0,0,1-3.1-1.6,6.7,6.7,0,0,1-2.1-2.6,13.8,13.8,0,0,1-1.4-3,17.5,17.5,0,0,1-.5-3.3c-.1-1.1-.1-2.2-.1-3.3s-.1-1.9-.1-3.8.2-1.9.2-3.8-.2-1.9-.2-3.9.1-1.9.1-3.8-1.5-2.5-.2-3.9,1.8.2,3.6.2h3.5c1.8,0,2.2-1.3,3.5,0s-.1,1.7-.1,3.4.2,1.8.2,3.5-.2,1.8-.2,3.5.2,1.8.2,3.5-.2,1.8-.2,3.6a11.1,11.1,0,0,0,1,4.6,3.4,3.4,0,0,0,3.5,2.1,5,5,0,0,0,3.6-1.5,32.2,32.2,0,0,0,2.8-3.7c.3-1.9-.1-1.9-.1-3.8V25c0-1.9.2-1.9.2-3.9V17.3c0-1.9-1.5-2.4-.2-3.9s1.8.2,3.6.2h3.5c1.8,0,2.4-1.3,3.6-.1s.1,1.9.1,3.7-.1,1.8-.1,3.6-.1,1.8-.1,3.6.1,1.8.1,3.6v3.6c0,1.9-.1,1.9-.1,3.7s.1,1.8.1,3.6-.3,1.8.1,3.6S185.3,44.7,184.1,46Z"/><path class="cls-2" d="M220.8,20.5c-2.1,1.4-2.7-.7-5.2-.2a10.2,10.2,0,0,1,2.1,3,8.2,8.2,0,0,1,.4,3.5,10,10,0,0,1-.6,3.9,9,9,0,0,1-2.3,3.2,10.6,10.6,0,0,1-3.7,2.3,13.2,13.2,0,0,1-5,1.4c-2.4.1-3.6.7-3.6,2a.9.9,0,0,0,.5.9,2.4,2.4,0,0,0,1.4.9l3.4.4a26.7,26.7,0,0,1,5.1.5,9.2,9.2,0,0,1,4.3,2.9,6.3,6.3,0,0,1,1.5,2.8,9.6,9.6,0,0,1,.5,3.1,12.8,12.8,0,0,1-.5,2.7,11.7,11.7,0,0,1-1,2.6,8.4,8.4,0,0,1-2.1,2.1,10.4,10.4,0,0,1-2.7,1.7,20.8,20.8,0,0,1-3,.5l-2.9.4h-7a36.2,36.2,0,0,1-4-.5,10.9,10.9,0,0,1-3.6-1.7,8.9,8.9,0,0,1-2.9-2.4,6.5,6.5,0,0,1-.8-3.7,7.2,7.2,0,0,1,.3-2.4,6.9,6.9,0,0,1,2.1-2.6A9.9,9.9,0,0,1,196,46a3.4,3.4,0,0,1-1.8-1.6,4,4,0,0,1-.9-2.5,6.5,6.5,0,0,1,1.1-3.4c.7-1.1,2.2-1.6,3.8-2a12.6,12.6,0,0,1-3.3-1.6,17.9,17.9,0,0,1-2.8-2,9.7,9.7,0,0,1-1.6-3.4,10,10,0,0,1-.7-3.6,13.8,13.8,0,0,1,.1-2.9,12.9,12.9,0,0,1,.8-2.8,11.2,11.2,0,0,1,3.2-3.9,14.8,14.8,0,0,1,4.8-2,22.9,22.9,0,0,1,2.8-.8h12.7c1.7,0,1.7.4,3.3.4s2.3-1.5,3.4-.3-.4,1.8,0,3.5S222.3,19.5,220.8,20.5Zm-9.6,31.6a2.7,2.7,0,0,0-2-2.9,16.1,16.1,0,0,0-4.4-.5,26.2,26.2,0,0,0-2.7-.1,7.9,7.9,0,0,0-2.6.9,2.9,2.9,0,0,0-1.7,2.7,3.3,3.3,0,0,0,2.6,3.2,13.7,13.7,0,0,0,4.3.3,10.5,10.5,0,0,0,4.7-.8A3,3,0,0,0,211.2,52.1Zm-2.1-26.2a5.4,5.4,0,0,0-1.4-4,4.9,4.9,0,0,0-3.5-1.4,4.6,4.6,0,0,0-4,1.6,5.9,5.9,0,0,0-1.3,3.9,5.6,5.6,0,0,0,2.3,4.6,4.7,4.7,0,0,0,2.7.5,5.1,5.1,0,0,0,5.2-5.2Z"/><path class="cls-2" d="M256.5,46.1c-1.3,1.2-1.8-.2-3.6-.2s-1.7.2-3.5.2-2.1,1-3.4-.2-.1-1.6-.1-3.3.1-1.6.1-3.3V35.9c0-1.7-.3-1.7-.3-3.4s.1-1.7.1-3.4c0-.1-.1-.2-.1-.3s.4-.4.4-.8a10.4,10.4,0,0,0-1-4.3c-.6-1.3-1.9-1.7-3.6-1.7a4.7,4.7,0,0,0-3.5,1.3,15.9,15.9,0,0,0-3,3.6c-.3,1.9.1,1.9.1,3.8s-.2,1.9-.2,3.8.2,2,.2,3.9-.1,1.9-.1,3.8,1.5,2.5.2,3.9-1.8-.2-3.6-.2h-3.5c-1.8,0-2.2,1.4-3.4.1s0-1.7,0-3.6-.2-1.8-.2-3.7.2-1.8.2-3.6-.2-1.9-.2-3.7.3-1.9.3-3.7-.2-1.9-.2-3.7.1-1.9.1-3.7-.1-1.8-.1-3.7-.1-1.8-.1-3.7V5.4c0-1.8-1-2.2.2-3.5s1.6,0,3.4,0,1.8-.3,3.5-.3,2.2-1,3.4.2.1,1.6.1,3.2.2,1.7.2,3.3v6.6c0,1.6-.8,1.7-.3,3.3a19.3,19.3,0,0,1,2.4-2.5,9.6,9.6,0,0,1,2.9-1.7,11.2,11.2,0,0,1,2.6-.8,27,27,0,0,1,2.8-.4,11.9,11.9,0,0,1,3.9.5,8.7,8.7,0,0,1,3.2,2.2,7.6,7.6,0,0,1,2.4,2.9,14.1,14.1,0,0,1,1.1,3.8,21.7,21.7,0,0,1,.3,3.8v3.4c0,1.6-.4,1.6-.4,3.3s.2,1.7.2,3.3.2,1.7.2,3.3-.7,1.8-.4,3.4S257.7,44.9,256.5,46.1Z"/><path class="cls-2" d="M329.6,46.1c-1.5,1.3-2.1-.2-4.2-.2s-2,.2-4,.2-2.5,1.1-4-.3-.1-1.6-.1-3.5.1-1.8.1-3.6V35c0-1.8-.3-1.8-.3-3.6s.1-1.9.1-3.7-.1-1.8-.1-3.7,2-3.3.2-3.8-1.2,1.6-2.3,3-.9,1.7-2,3.2-1.2,1.4-2.3,2.9-1.3,1.4-2.4,2.8-.7,1.8-2.1,3.1-.4.2-.8-.2a12.7,12.7,0,0,1-2.3-2.8l-2.2-3c-1.1-1.5-1.3-1.3-2.4-2.8s-.9-1.7-2-3.1-.6-3.7-2.4-3.1,0,2,0,3.8v3.7c0,1.8.2,1.8.2,3.6s-.3,1.9-.3,3.7.3,1.8.3,3.7-.3,1.8-.3,3.6,1.5,2.5.2,3.7-2-.1-4-.1h-3.9c-2,0-2.6,1.4-4,0s-.1-1.8-.1-3.7V38.6c0-1.8.3-1.8.3-3.6s-.1-1.9-.1-3.7-.2-1.9-.2-3.7.2-1.9.2-3.7-.1-1.9-.1-3.7-.2-1.8-.2-3.7V12.8c0-1.8.1-1.8.1-3.7s.2-1.8.2-3.7-1.5-2.5-.2-3.8,1.9.1,3.8.1h3.7c1.8,0,2.1-1,3.8-.2s1.1,1.4,2.1,2.8.7,1.6,1.8,3,1.3,1.2,2.3,2.6a27.8,27.8,0,0,1,2.1,2.7l2.1,2.8c1.1,1.4.2,2.7,2,2.7s1.2-1.1,2.2-2.5.9-1.5,2-2.9.8-1.5,1.9-2.9,1.3-1.1,2.4-2.5.8-1.5,1.9-2.9.6-1.9,2.2-2.6,1.8-.2,3.6-.2h3.7c1.9,0,2.5-1.3,3.8,0s.1,2,.1,3.8-.2,1.9-.2,3.7-.2,1.9-.2,3.7v7.4c0,1.8.4,1.8.4,3.7s-.3,1.8-.3,3.7v3.6c0,1.9-.1,1.9-.1,3.7s.5,1.9.5,3.7-.8,1.9-.4,3.7S330.9,44.8,329.6,46.1Z"/><path class="cls-2" d="M370.1,13.5c.9,1.5-.9,1.6-1.6,3.3s-.6,1.8-1.3,3.5-1,1.5-1.7,3.2-.6,1.8-1.3,3.5-.8,1.7-1.5,3.3-.7,1.7-1.5,3.4-.5,1.8-1.2,3.5-.8,1.7-1.5,3.3-.6,1.8-1.3,3.5a33,33,0,0,0-1.8,3.2L354,50.6c-.8,1.7-.4,1.8-1.2,3.5s-.9,1.6-1.6,3.3,0,2.2-1.6,3.3-1.6.1-3.4.1-1.8-.2-3.6-.2-2.5,1.6-3.5.2.7-1.6,1.4-3.1.5-1.7,1.2-3.3.9-1.5,1.6-3.1l1.4-3.1c.7-1.6.6-1.6,1.3-3.2s1.4-1.5,1.4-3.2-.9-1.6-1.5-3.1-.4-1.7-1.1-3.3-.9-1.5-1.5-3-.4-1.7-1.1-3.3-.8-1.5-1.5-3-.5-1.6-1.2-3.2l-1.4-3.1a29.2,29.2,0,0,0-1.4-3.1c-.6-1.6-2.4-1.9-1.3-3.3s2,0,3.8,0,1.9.3,3.8.3,2.2-1.1,3.7-.1.8,1.5,1.4,3.1.4,1.7,1,3.3.7,1.6,1.3,3.2a30.9,30.9,0,0,1,1.4,3.2c.6,1.6-.7,3.1,1.1,3.1s.5-1.5,1.2-3.1.9-1.5,1.6-3.2.5-1.7,1.2-3.3.7-1.6,1.4-3.2,0-2.2,1.5-3.2,1.7-.1,3.4-.1,1.7.3,3.3-.1S369.2,12,370.1,13.5Z"/><path class="cls-2" d="M427.8,15.7a15.1,15.1,0,0,1-.9,4.7,16.3,16.3,0,0,1-2.4,4.5,13.7,13.7,0,0,1-2.3,1.7,19.4,19.4,0,0,1-2.4,1.5,18.9,18.9,0,0,1-3.4.9,20.2,20.2,0,0,1-3.6.3c-2,0-2,.2-4,.2s-2.4-1.3-3.9,0,.1,1.6.1,3.2-.3,1.7-.3,3.3v3.4c0,1.6.3,1.6.3,3.3s1.1,2.3-.2,3.3-2-.1-4.1-.1h-4c-2.1,0-2.5,1.2-4-.2s-.1-1.6-.1-3.5.1-1.8.1-3.7-.3-1.8-.3-3.6.3-1.9.3-3.7.1-1.9.1-3.7-.1-1.9-.1-3.7V20.2c0-1.8-.2-1.8-.2-3.7s.2-1.8.2-3.7-.2-1.8-.2-3.7.3-1.8.3-3.7-1.5-2.3-.2-3.7,1.7.1,3.3.1h13.6c1.7,0,1.7.4,3.3.4a21,21,0,0,1,3.6.1,16.9,16.9,0,0,1,3.4.8,14.3,14.3,0,0,1,2.4,1.6,10.1,10.1,0,0,1,2.2,1.8,12.8,12.8,0,0,1,2.7,4.4A16.8,16.8,0,0,1,427.8,15.7Zm-12.6,0c0-2.1-.5-3.6-1.6-4.4a9.1,9.1,0,0,0-3.1-.8,22.4,22.4,0,0,0-3.1-.5c-1.3,0-1.9-.8-2.6.2s-.1,1.8-.1,3.6v3.5c0,1.8-.8,2.1.2,3.5s1.2,0,2.6,0a17.8,17.8,0,0,0,4.6-.5c1.1-.3,2.1-.5,2.6-1.3A7.4,7.4,0,0,0,415.2,15.7Z"/><path class="cls-2" d="M462.1,44.4a38.4,38.4,0,0,1-4.4,1.5,16.1,16.1,0,0,1-4.7.7,5.2,5.2,0,0,1-3.5-1.1,5.6,5.6,0,0,1-1.6-2.4,16.7,16.7,0,0,1-3.8,2.5,13.8,13.8,0,0,1-2.6.7,23.6,23.6,0,0,1-2.8.4,11.2,11.2,0,0,1-2.7-.3,8.8,8.8,0,0,1-2.6-.9,7.6,7.6,0,0,1-2.7-3.3,10,10,0,0,1-.8-3.8,8.4,8.4,0,0,1,1.2-5.1,11.7,11.7,0,0,1,3.8-3.1l3.1-1.3,3.2-1.2,3.3-1.1a18.3,18.3,0,0,0,1.7-.7l1.2-.6a6.5,6.5,0,0,0-1-3.7c-.6-.9-1.8-1.5-3.8-1.5a12.4,12.4,0,0,0-3.3.4,16.9,16.9,0,0,0-3.1,1.3,18.7,18.7,0,0,0-2.9,2,28.4,28.4,0,0,0-2.6,2.4c-.4-2.2.2-2.2.2-4.4s-.7-2.3-.1-4.5a17.8,17.8,0,0,1,4.3-2.3,20.1,20.1,0,0,1,4.7-1.6,29.2,29.2,0,0,1,5.1-.4,18.8,18.8,0,0,1,3.4.2,14.7,14.7,0,0,1,3.3.7,13.1,13.1,0,0,1,3.1,1.7,8.4,8.4,0,0,1,2.5,3.4,11,11,0,0,1,.5,4.2c0,2.1.1,2.1.1,4.2s.1,2,.1,4.1-.1,2.1-.1,4.2a8.5,8.5,0,0,0,.4,2.7,1.1,1.1,0,0,0,1.1.8,6.4,6.4,0,0,0,2.8-.9c.7,1.3-.2,1.6,0,3S462.6,43,462.1,44.4Zm-14.8-6.3a16.1,16.1,0,0,0,.1-3.8c0-1.9.5-2-.1-3.8a19.5,19.5,0,0,0-2.9,1.2,14.6,14.6,0,0,0-2.6,1.7,4.5,4.5,0,0,0-1.7,3.6,4,4,0,0,0,.8,2.6,2.7,2.7,0,0,0,2.1.7,4.2,4.2,0,0,0,2.1-.6A23.9,23.9,0,0,0,447.3,38.1Z"/><path class="cls-2" d="M477.3,46.1c-1.2,1.2-1.8-.2-3.6-.2s-1.7.2-3.5.2-2.1,1-3.4-.2-.1-1.7-.1-3.5.1-1.8.1-3.6V35.2c0-1.8-.2-1.8-.2-3.6V28c0-1.9-.1-1.9-.1-3.7s.4-1.8.4-3.6-.1-1.8-.1-3.6-1.5-2.5-.3-3.7,2,.1,3.7.1,1.8.2,3.5.2,2.3-1.4,3.5-.2-.2,1.8-.2,3.6.2,1.8.2,3.6v3.6c0,1.8.2,1.8.2,3.6s-.3,1.8-.3,3.6v7.3c0,1.8-.3,1.8,0,3.6S478.6,44.8,477.3,46.1ZM476.5,6A4.6,4.6,0,0,1,475,9.3a3.8,3.8,0,0,1-3,1.6,4.3,4.3,0,0,1-2.2-.9,4.9,4.9,0,0,1-1.6-1.6,4.8,4.8,0,0,1-.6-2.4,4.8,4.8,0,0,1,1.3-3.4A4.3,4.3,0,0,1,472,1a4.6,4.6,0,0,1,3.2,1.5A5.6,5.6,0,0,1,476.5,6Z"/><path class="cls-2" d="M516.4,46c-1.2,1.3-1.8-.1-3.5-.1h-3.6c-1.7,0-2.1,1.1-3.4-.1s0-1.6,0-3.4v-7c0-1.8-.2-1.8-.2-3.5s.1-1.8.1-3.5a13.6,13.6,0,0,0-.9-4.7,3.3,3.3,0,0,0-3.4-2.1,5.2,5.2,0,0,0-2.3.5,6.1,6.1,0,0,0-1.6,1.6,9.6,9.6,0,0,0-1.4,1.5,9.5,9.5,0,0,0-1.2,1.6c-.2,1.9.1,1.9.1,3.8s-.2,1.9-.2,3.8.1,2,.1,3.9v3.8c0,1.9,1.4,2.5.1,3.9s-1.8-.2-3.5-.2h-3.5c-1.8,0-2.3,1.3-3.5,0s0-1.7,0-3.5-.1-1.8-.1-3.6.2-1.8.2-3.6-.2-1.8-.2-3.6.2-1.8.2-3.6-.2-1.9-.2-3.7.1-1.8.1-3.6-.1-1.8-.1-3.6-1.3-2.3,0-3.6,1.8-.1,3.5-.1h3.6c1.7,0,2.3-1.2,3.4.2s-.5,2.3,0,4.6a27.1,27.1,0,0,1,2.3-2.4,10,10,0,0,1,2.8-1.6,12.5,12.5,0,0,1,2.7-1,13.5,13.5,0,0,1,2.9-.4,11.5,11.5,0,0,1,3.3.4,8.1,8.1,0,0,1,3.1,1.5,8.7,8.7,0,0,1,2.1,2.5,21,21,0,0,1,1.5,3,17.4,17.4,0,0,1,.5,3.4,17.6,17.6,0,0,1,.1,3.3c0,1.9.2,1.9.2,3.8v3.8c0,2-.3,2-.3,3.9a12.2,12.2,0,0,0,.3,3.8C516.9,44.2,517.7,44.6,516.4,46Z"/></g></g></svg>