<svg xmlns="http://www.w3.org/2000/svg" viewBox="0 0 60 60" height="50" width = "50"><defs><style>.cls-1,.cls-2{fill:none;}.cls-1{stroke:#000;stroke-miterlimit:10;}.cls-2{stroke:#231f20;stroke-linecap:round;stroke-linejoin:round;stroke-width:0.5px;}</style></defs><title>Asset 13</title><g id="Layer_2" data-name="Layer 2"><g id="Layer_5" data-name="Layer 5"><path class="cls-1" d="M54.3,47.5a11.5,11.5,0,0,0-1.6-2.9,13.2,13.2,0,0,0-1.9-2.9c-.9-.8-2.2-.9-3.1-1.3a14.6,14.6,0,0,0-3.2-1,16.9,16.9,0,0,1-3.4-1.1A14,14,0,0,1,37.8,37a10.9,10.9,0,0,1,0-4.4,23.2,23.2,0,0,0,1.9-3.1,13.9,13.9,0,0,0,1.8-3.1A15,15,0,0,0,42.6,23a16.3,16.3,0,0,0,.5-3.6c0-1.2-.3-2.3-.4-3.4s-.2-2.3-.4-3.4a29.2,29.2,0,0,0-1.4-3.1,29.2,29.2,0,0,0-1.4-3.1,17.3,17.3,0,0,0-2.4-2.3,12.2,12.2,0,0,0-2.9-1.7,11.5,11.5,0,0,0-3.1-1.1A13,13,0,0,0,27.7.5a18.6,18.6,0,0,0-3.4.4,14.3,14.3,0,0,0-3.1,1.2,9.3,9.3,0,0,0-2.7,2.1A13.1,13.1,0,0,0,16,6.4a28.2,28.2,0,0,0-1.8,2.9,28.4,28.4,0,0,0-.8,3.4,26.6,26.6,0,0,0-.8,3.3c-.1,1.1.1,2.2.1,3.4a14.5,14.5,0,0,0,0,3.6A22.6,22.6,0,0,0,14,26.3a32.4,32.4,0,0,0,1.7,3.2,22.8,22.8,0,0,0,2.1,3c.3,2.3.1,2.3-.2,4.6l-3.4,1.1-3.4.8a25.6,25.6,0,0,0-3.2,1.2,9.9,9.9,0,0,0-3.1,1.5,11.2,11.2,0,0,0-2.2,2.6A12.9,12.9,0,0,0,.7,47.4a3.5,3.5,0,0,0,.5,3.3c.5.8,1.7,1.1,3,1.6a19.8,19.8,0,0,0,3.2,1.1l3.3.8,3.4.4c1.1.1,2.3-.1,3.4-.1l3.4.4h6.8l3.4-.2,3.4.2,3.4-.5c1.2-.1,2.3.2,3.4,0l3.4-.3a30.7,30.7,0,0,0,3.4-.5,13.3,13.3,0,0,0,3.2-1.2A5.8,5.8,0,0,0,54,50.6a3.8,3.8,0,0,0,.3-3.1ZM15.6,19.4a22.3,22.3,0,0,1,.2-3.7,19.9,19.9,0,0,1,1.3-3.4,15.1,15.1,0,0,1,1.1-3.4,11.2,11.2,0,0,1,2.5-2.8A8.9,8.9,0,0,1,24,4.7a10.5,10.5,0,0,1,3.6-.5,10.5,10.5,0,0,1,3.6.5,10.5,10.5,0,0,1,3.2,1.5A12.7,12.7,0,0,1,36.8,9a16.6,16.6,0,0,1,1.5,3.3,12.8,12.8,0,0,1,.7,3.5,19.5,19.5,0,0,1,.5,3.6,13.3,13.3,0,0,1-.7,3.8,17.4,17.4,0,0,1-1.1,3.9,19.1,19.1,0,0,1-2.4,3.2,5.8,5.8,0,0,1-3.6,1.4,24.5,24.5,0,0,1-3.9.4l-4-.4a7.7,7.7,0,0,1-3.7-1.3,16.7,16.7,0,0,1-2.4-3.2,16.6,16.6,0,0,1-1.5-3.8A22.5,22.5,0,0,1,15.6,19.4Zm12,32.1H24.2c-1.2,0-2.3-.5-3.4-.5s-2.4.4-3.4.3L14,51.2l-3.4-.7-3.3-.7c-2.6-.6-3.1.6-3.2-1.1a15.1,15.1,0,0,1,1.4-3.1,8.6,8.6,0,0,1,2.7-2.1,11.7,11.7,0,0,1,3.2-.9c1.3-.3,2.8-.5,4-.9a21.3,21.3,0,0,0,3.7-1.8c.9-.4,1.4.1,1.9-.8s-.3-2.3-.2-3.6a9.6,9.6,0,0,0,3.5,1.1c1,.1,2.2,0,3.4,0l3.4-.4a17.5,17.5,0,0,0,3.6-.6c.3,1.6-1.1,1.9-.4,3.5s1,.5,1.8,1A33.7,33.7,0,0,0,40,41.5a40.4,40.4,0,0,0,4,.8,9.9,9.9,0,0,1,3.1,1.2,7.4,7.4,0,0,1,2.4,2.3,12.6,12.6,0,0,1,1.8,2.7c0,.1-.7.6-3.2,1.3l-3.3.9c-1,.1-2.2-.2-3.5-.1s-2.1.6-3.4.7l-3.4.2-3.5.2Z"/><path class="cls-2" d="M3.6,43.1s1.3-2,1.6-1.6-3.5,5-3.5,5,6-6,6-6L.8,48.8l9-9c.4.4-9.3,10.4-9.1,10.5S11.2,38.3,11.9,39,2,50.4,2,50.4s1.5-2.2,1.9-1.8S2,51.2,2.3,51.5s1.8-2.3,2.1-2-.8,2.1-.8,2.1,1.3-2,1.7-1.7-.6,1.7-.4,1.9,2.4-2.5,2.5-2.5L5.7,52.4C6,52.7,8,50.1,8,50.1s-1.9,2.7-1.6,3l3.4-3.4S7,53.1,7.4,53.5s2.9-3.7,3.3-3.3L8.8,53.5c.2.2,3-3.8,3.4-3.4s-1.9,3.2-1.9,3.3,2.6-2.7,2.6-2.6S10.8,54,11,54.2s2.6-3.3,3-3-2.1,3.5-2.1,3.5,3.8-4.6,4.2-4.2-3.1,4.1-2.9,4.3,3.6-4,3.8-3.8-2.9,3.6-2.6,3.9l4.3-4.2c.3.3-3,3.5-2.5,3.9s2.3-3.1,2.7-2.7S17.8,54,18,54.2a31.9,31.9,0,0,0,2.6-2.6s-2.3,3.6-2.2,3.6,3.2-4.1,3.7-3.7-1.4,2.4-1.2,2.6S24,51,24.1,51l-2.3,3.6c.5.5,2.9-2.9,2.9-2.9l-1.4,2.9L26,51.9c.1,0-2.5,3-2,3.4s3.4-3.6,3.5-3.5-2.4,2.9-2,3.4S29,51.7,29,51.7l-1.1,2.5c.5.5,1.7-2.6,2.1-2.1l-1.2,2.7s3.3-3.6,3.4-3.5S29.5,54.5,30,55l3.6-3.7c.3.3-2.9,3.8-2.6,4s4.2-4.1,4.2-4.1-2.6,3.2-2.2,3.6l3.7-3.7s-2.5,3.8-2.5,3.9,3.6-3.6,3.6-3.6S36,54.6,36,54.6s3.1-3.1,3.1-3.1l-1.6,3c.4.4,3-3.7,3.4-3.4s-2,2.9-1.7,3.2l3.4-3.5c.2.2-1.8,3.3-1.8,3.3s2.7-3.9,3.2-3.3-1.8,2.9-1.6,3.1,2.9-4.1,3.5-3.5l-2,3.4,3.5-3.6s-2.6,3.2-2.1,3.6S50.1,49,50.1,49s-3.7,5.1-3.7,5.1,7.5-7.8,7.6-7.6-5.6,6.9-5.5,7,6.3-6.6,6.4-6.5-3.9,4.7-3.6,5,2.9-2.9,2.9-2.9"/><path class="cls-2" d="M21,6.3l5.9-6L23.5,5.2s3.8-4.1,3.9-4L25.3,4.8s4-5,4.5-4.5-3.1,3.6-2.6,4,3.1-3.1,3.1-3.1a24.4,24.4,0,0,1-1,2.4L32,.9S29.6,4,30,4.4,32,2,32.2,2.2l-.7,2.1L33.7,2l-1,2.4c.4.4,2.6-2.5,2.6-2.5S33.6,5,33.6,5s2.3-2.8,2.6-2.6L34.1,5.9s2.5-2.6,2.5-2.5S35.2,6,35.3,6.1s2.1-2.5,2.3-2.3-1.8,2.7-1.6,3l1.3-1.3a15.7,15.7,0,0,0-.9,2.3c.3.3,1.4-2,1.7-1.7s-1.8,2.9-1.6,3l2.3-2.3L37,10.1s2.2-2.7,2.4-2.5-2.5,3.4-2.2,3.7l3.2-3.2-2.7,4.1c.2.2,2.5-2.9,2.7-2.7s-2.3,3.1-2,3.4,2-2.4,2.2-2.2-2.2,2.8-1.8,3.2,2.8-2.8,2.8-2.8S39.1,15,39.1,15l2.2-2.2-1.8,3.3L42.6,13l-3.3,4.7c.4.5,2.6-2.7,2.6-2.7L39,19.4s3.7-4.1,3.9-3.9-3.4,4.7-3.4,4.7l2.7-2.6c.3.3-3.2,4.6-3.2,4.6s4.3-4.5,4.4-4.4-4.8,5-4.2,5.6l4.3-4.3c.3.3-6.1,7.5-6.1,7.5s4.7-4.7,4.7-4.7-5.5,6.9-5.5,6.9,5.3-5.9,5.6-5.6"/><path class="cls-2" d="M21.6,35.1c.2.2,3.3-3.3,3.3-3.3s-2.7,4.1-2.7,4.1l3.9-3.8c.4.4-2.6,3.6-2.4,3.7s4-4.4,4.2-4.2l-3.5,4.9s4.3-4.4,4.4-4.4-3.8,4.8-3.6,5L30.4,32s-3.8,4-3.2,4.6l5.6-5.7c.2.2-4.1,5.1-3.8,5.3s4.9-5.9,5.4-5.4-4,4.9-3.7,5.1l12-12c.7.7-10.4,11.8-10.4,11.8l8.6-8.6c.3.3-7.1,8.6-7.1,8.6s5.3-6,5.7-5.7l-5.3,6.6,4-4c.7.8-4.2,5.4-4,5.5s2.6-3.6,3.1-3.1-3,3.5-2.6,4,3.4-3.4,3.4-3.4-3.2,4-2.9,4.3,2.2-2.2,2.2-2.2L36.5,40c.2.2,2.4-2.6,2.5-2.5s-1.1,2-.9,2.3,1.6-2,1.8-1.8l-2,3.4,3.2-3.1s-2,2.8-1.7,3.1l2-2.1c.1,0-1.3,2.8-1.3,2.8l3.4-3.5-1.2,2.7c.2.3,2.1-2.6,2.3-2.4l-2.1,3.6,3.3-3.3-2.3,3.7,2.4-2.4c.2.2-.6,2-.6,2l1.8-1.8-.2,1.6s1.9-2.5,2.2-2.2-2.5,3.3-2.2,3.6a30.7,30.7,0,0,0,2.6-2.5c.2.2-1.3,2.6-1.3,2.6a30.7,30.7,0,0,1,2.6-2.5c.3.3-1.9,3.3-1.9,3.3s2.2-2.2,2.2-2.2A40.5,40.5,0,0,1,49,45.9s1.9-2.6,2.3-2.3l-1.4,2.8A28.3,28.3,0,0,1,52.4,44l-1.7,3c.3.2,2.7-2.6,2.7-2.6s-1.8,3.1-1.8,3.1S54.1,45,54.1,45"/><path class="cls-2" d="M7.5,44c.4.4,5.7-5.8,5.7-5.8s-2.5,3.9-2.5,3.9,3.6-3.7,3.7-3.7-2.8,3.5-2.5,3.9,4.7-4.7,4.7-4.7-3,3.9-2.7,4.2,8.4-11.2,9.8-9.8-9,9-8.3,9.7l6.2-6.2s-4.3,4.3-3.6,5l3.3-3.4"/><path class="cls-2" d="M17.2,5.3c.3.3,1.6-1.7,1.7-1.6s-4.9,5.8-4.7,6,7-9,8.1-8-9.1,10.5-9.1,10.5S23.7,1.7,23.7,1.7,13.4,13.4,13.4,13.4s12-11.9,12-11.9-14,12.7-12.7,14,4.5-4.9,4.7-4.7L12.6,17l4.2-4.2L13,18.1a39.7,39.7,0,0,1,2.9-2.9L13,19.5s1.8-2.7,2.2-2.3l-3.1,4.6s2.7-3.4,3-3.1-1.7,3.2-1.7,3.2,2.1-2.8,2.5-2.5-3.7,4.1-3.2,4.6,3.3-4,3.7-3.7L14,24.1c.4.4,1.5-2.2,1.8-1.8s-2.2,3.6-2.2,3.6,3.2-3.1,3.2-3.1-3.4,4.1-3.1,4.4,3.3-3.4,3.4-3.3l-1.9,3.3c.2.2,1.1-1.2,1.1-1.2s-.7,2.2-.7,2.2,1.2-1.6,1.4-1.4a35.4,35.4,0,0,1-1.9,3.3l2.2-2.2c.2.3-1.4,2.5-1.2,2.7s2.8-2.9,2.8-2.9-2.1,3.5-2.1,3.5,1.2-1.6,1.4-1.4a9.7,9.7,0,0,0-.5,2,27.2,27.2,0,0,1,2.4-2.4c.4.4-2.3,3.5-2.2,3.6s2.1-2.6,2.3-2.4-2.3,3.8-2.3,3.8l3.6-3.6c.2.2-3.8,5.1-3.8,5.2s4.9-5.6,5.3-5.3"/></g></g></svg>